<mxfile host="app.diagrams.net" modified="2024-07-11T09:31:36.598Z" agent="Mozilla/5.0 (Windows NT 10.0; Win64; x64) AppleWebKit/537.36 (KHTML, like Gecko) Chrome/126.0.0.0 Safari/537.36" etag="m40TUpwmZgAWzSCnS2UI" version="24.6.4" type="github">
  <diagram name="第 1 页" id="dkfIu-SB50vqXqwRGAK6">
    <mxGraphModel dx="1018" dy="633" grid="0" gridSize="10" guides="1" tooltips="1" connect="1" arrows="1" fold="1" page="1" pageScale="1" pageWidth="827" pageHeight="1169" math="0" shadow="0">
      <root>
        <mxCell id="0" />
        <mxCell id="1" parent="0" />
        <mxCell id="1MryAkgBpspKinondV_L-1" value="应收款单中添加相关收款单关联信息，效果如下：" style="rounded=0;whiteSpace=wrap;html=1;" vertex="1" parent="1">
          <mxGeometry x="175" y="37" width="473" height="41" as="geometry" />
        </mxCell>
        <mxCell id="1MryAkgBpspKinondV_L-2" value="" style="shape=image;verticalLabelPosition=bottom;labelBackgroundColor=default;verticalAlign=top;aspect=fixed;imageAspect=0;image=data:image/png,iVBORw0KGgoAAAANSUhEUgAABSEAAAMGCAYAAAAN8kE+AAAAAXNSR0IArs4c6QAAAARnQU1BAACxjwv8YQUAAAAJcEhZcwAADsMAAA7DAcdvqGQAAP+lSURBVHhe7P178CXHdd8J4s/ZHVlhmtbaq+HYoVnLjo3VzMaM6JiNWG/MhuWd1doRO9yRWyIJUdTLlqil1Q1aFEmZoj1DWKQf/RAgDQC/aNlUEEADIj2yPWGFl+toAd2U5bU9HIUtESAaAEeEyREBEo9G9+/Xzdo8+aqTWZl1897fvXWr7u/zRXxQt6qysqpOnjyZdW7dX9/1TW//cCe88Xv/Wvd73/bf9rz1vzH8pZTv+YsFPtT93u8O/HTPGccbz3ywzJ/+C4qfGue7PjAt//X7AQDW5lve/he633PmL3T/4ff+peL+gCv3/sg3ve0vdt/yvR/qfr9dX318iW/53r/YffN3/1T3zXf/pe4//B5f93d/sPuDWV1/8G0/1f3+79Hn3+x8AAAAAFPDXAsAFkcp57RLSjm1BJWLK+XqDCGfl+T4Qt5PcoCl3GCeP5Sc4tv+2+6Nd//VmGeU3KNNQn7nz/yD7lvf9z90/6s/80sAALAhv+/HP9V944/8UvfGH//l4b4/98nuG370k903+X2/78f/++4NP3q5+/d+xPEN7/ql7g3vluMvd9/47l925WX7j/33g7pKvPFdj3dv+HOhbleP1Ct15WVtmXf/kjtvY/0AAAAA+4a5FgDAspBco+QcQyLyLnkDkgQkAMDucJPc4YR5MDlWk9R+clueaAfSOvrJ8Tf92ONu27s+NTgGAAAA4JBgrgUAMF8k5xiTkPK/UiEAADg5tUlx3F+ZHLvt/US3hJs8mzLvdt/khzr+PfsWwPjE+pv+HN/KAwAAwPJhrgUAMH9iEvIXf/EXiwUAAOBkuElxOrktfetemhx/04/9UnVS3NehGU6Qv8FMrGUZfiakz1P76RAAAADAUmCuBQCwDP7Ij17q/si7LpGEBADYFW98l5+k+r9PFP42UE8/aS5NjvP6cmTi/Y2mnJuAm+P8z4GG58lQfy8JAAAAYKkw1wIAWAZ/5Ecv2kTkXR//+MeLBQAA4OSEvxdkvykPE+QwkbXk39Kn3+a30E+EszcB7Hn6+gEAAAAODeZaAADzxyUhL3Z3/f2///eLBQAAYDvEb+nVHy7vJ8fpN/TfVJkUu8mvnkSnPxMKPwfS3+q7c6w/0QYAAABYEsy1AADmzR/+EZKQAACT8cZ39ZPagPvmfrhd00+ghV/q3mCPSSfTb/ixT6mJspo822PH6wcAAAA4BJhrAQDMF0lCCiQhAQAmxH1T7ya2MjEe+6Pl4Vt9+cZdJrlveLeZ/I78jSFdXtbtxJi/SQQAAACnCOZaAADz4w//yAWSkAAAU+K+LXeTVz2BraHLS9nSN/ya8DeRQnn5WdGqcwAAAAAcCsy1AADmyR/+s+dtIvKuv/f3/l6xAAAA7I/wzfob1WRX/52jnDAJDt/QO8Yn0gAAAACnFeZaAADTQRISAGCm2L899C7/rzvK5x9Vk93sJz/6J0fxWCk/MokGAAAAOM0w1wIAmBabhDTc9Qu/8AvFAgAAMD1uYusmusln+y829hPk8PeN+u18Ew8AAACwCuZaAADTQxISAGCGvPFd2aT43Z/svtH/raF8cmx516fUz4LcsXmdAAAAAOBgrgUAMD1/+M/8dZKQAABzIvwLjnpS7P5Yukx4+3+tMf1bRAEmxQAAAABjMNcCANgPJCEBAGaI/lmQrNe+eX/jj6V/rwgApuFn/uG/7Z758qvd/+P8rxb3C5/+t1/uWvXy68fdD/3tf1GsR5Dz/c4rt0bLBKSMlJVjZP1jv/ps99sv3Ri9VqFU7t988WV7H7pcjuwvlcmvAwBgTjDXAoC58fv+y5/o/sB//j1rIceU6porf/jP/DWbiLzr7/7dv1ssAAAA05JPioVv+rFf6r4h/rF0MyE2k2H5qVD4O0UAsBskkSYJwnU0lvCrJexakISgUNqnyZN/cowkGPNygmyvSZKswqokotyr3LO+NhKQADBnmGsBwBz5lv/0T3VvOHOh+11vfaAJKSvHlOpazePdN/+pDxS2p7gyjw+2b4pLQv617q67P0QSEgBgbrhJspsQf8OPfbL7RjsxFh436/xrjAD7QJJt157+SkzSbZLgy3Xr+E5M2K2b+AxJz5Bs1AlAQeouKX/7Uo7VCdTaseG4da5TJygBAOYEcy0AmAuSUPyG7//7xX3//vd/vPvffdt/kSBlN01CSnLx277tj3Xf/CffV9wvyD5bpiFZ2cq3hiTkH/2jf7RYAAAA9ov+4+j95Dj99h4AdotOuEmyThJ04efYkmATrXrDUcq1vAWpk4il/TWk/jwJKdt0AjC8tSjlZL2WSJTko9yfPlbQiUo5Vj7LMuzXdtHH5PUAAMwJ5loAMAfGkpCBb7z7b3b/0X/yX3bf+kf+TydKQgqSZPyPv+3/3P0H3zn8Sbdsk31jScpNiEnIt//0x4oFAABg/8gfUI+T43fJz4X4+0QAUyAJtHUlSb1f/ldfrL6BWFN4G7KUhMyTh4IkNPWbi3kSUt7WFOkyspQk4aoEpy4nSH0/+chnk2uoJTBLIgkJAHOHuRYA7JtVScjf9fa/2f1H3/Ynut/9py+d+E3IQEg26kRkadu2+NYf/qs2EcmbkAAAM0dPjvn7RADTsuptvlLiMLDqWNmn35AMdf2jf/2CTfKFOqVMqCckJfVxsk8nISWJKHXo6woJRSmjj8ulE5elYwRZl3J6u5TlTUgAWCrMtQBgn4wlIb/x7X+j+xafgJT1bSUhhf6tx/dbdpWAFGIS8u/8nb9TLAAAAPPB/suNfDMPMDmSSFul8CZjOCYkCluUJyFDck8nKOUaJCkp2wWdXBTyJGTYp+vQicxWpB6dDA3IeXgTEgAODeZaALAvaknIb7w7TUAKv+t7//bWkpBCSD6GZGSpzDawSUgDb0ICAMwc9/eK3L/WWNoPALtj1dt8eeJPyoek5KrEn04SClJXSEJKPeGtRH0OvV3XE6QTorKU4/KfUwvyuSaduPzKq7eSaxT0dYZtci7ehASApcJcCwBK/Cf/8R/biFJdY/z7P/hIcfvv/ZMfTBKQgUUnIXkTEgAAAKDMWLIuKH8TMiDJu1XSCT6dyNOJx/BmpfytR1nmx8j5Jdmnjwn7Q4IyT1wKcm9Slyxl///n33wpHitl5VpCIjE/Nkdfe2k/AAAAwNIoJRhbKNU1xv/m//6+7n/7f31Xwhv/nx8ulhUW+XPsH/orLgn55je/uVgAAAAA4LSz6m2+UuIvIAm+sWNln04o5uXz/XIOOZd+A1EzloTMr0OShbJNjglJyJ/7p093/+q5l+x+OW84t5STMmH7uqolaQEAAADA/Rz79/6pn+5+z3/1ly2//zvOdt/8f/mhYllhG0nIkIDUScfStm0Rk5D/tx/768UCAAAAALA5LQm7kOgbS2YGpGyeTNToOgRJ/oU3IEMyUicTw+eQhJRykoSUv/eozyP1yrZQvoScjzchAQAAANZHEor6b0L+7u/66ztNQn7zn3xfNdkYEpFSJt93ElQS8v9dLAAAAABwWpGE27oK/3hMqGNV0lD2hSRkKCtJPEkItig/X0hCSjIw3xeQc4Q3E/U95teRHyflx97CJAkJAAAAsBlTJiG/+U99oPu2b/tjo0lG2WfLmLKl/ZvwrT/0UZuIvOttvAkJAAAAAAAAAAAwOZJQ/F3f93e7//UPXba84f/1V2ISMmzTSNnN34R8vCm56Mo8Pti+KTEJ+bf/9t8uFgAAAAAAAAAAAIDd8Qf+87d23/Jt35Hw+//4u+2+fHvgm/+LPzOoZ8586w/6JOTf+lt/q1gAAAAAAAAAAAAA4CS4JORHSUICAAAAAAAAAADAbiAJCQAAAAAAAAAAADvlD/3gR2wikiQkAAAAAAAAAAAA7ASSkAAAAAAAAAAAALBTSEICAAAAAAAAAADATiEJCQAAAAAAAAAAADvlD/3AR2wi8q6/+Tf/ZrEAAAAAAAAAAAAAwEkgCQkAAAAAAAAAAAA7hSQkAAAAAAAAAAAA7BSSkAAAAAAAAAAAALBT/tAP/IxLQv6Nv/E3igUAAAAAAAAAAAAATgJJSAAAAAAAAAAAANgpNgn5Az4J+eKLLwIAAAAAAAAAAABslSQJiRBCCCGEEEIIIYQQQtvWQw891En+kSQkQgghhBBCCCGEEEJoJ3rwwQdJQiKEEEIIIYQQQgghhHYnkpAIIYQQQgghhBBCCKGdiiQkQgghhBBCCCGEEEJop5IkpPxdSJKQCCGEEEIIIYQQQgihnYgkJEIIIYQQQgghhBBCaKciCYkQQgghhBBCCCGEENqpYhLyox/9qN+EEEIIIYQQQgghhBBC29NHPvKRTvKPd/3cz/2c34QQQgghhBBCCCGEEELb03333dfdf//9JCERQgghhBBCCCGEEEK7EUlIhBBCCCGEEEIIIYTQTkUSEiGEEEIIIYQQQgghtFORhEQIIYQQQgghhBBCCO1UJCERQgghhBBCCCGEEEI7FUlIhBBCCCGEEEIIIYTQTkUSEiGEEEIIIYQQQgghtFORhEQIIYQQQgghhBBCCO1UJCERQgghhBBCCCGEEEI7lSQhBZKQCCGEEEIIIYQQQgihnYgkJEIIIYQQQgghhBBCaKciCYkQQgghhBBCCCGEENqpSEIihBBCCCGEEEIIIYR2KpKQCCGEEEIIIYQQQgihnWqWScgvfPpW95bHj/3aCn32qHvLx467L/jVa4/f6t796dt+ra5huePuws/e6i6/4FeLut1d/lilTHYdVi8cd+/Ot5XK2XMfddf8mlP9elrvESGEEEIIIYQQQgihOSgmIe+//36/aQ5yCbgLn/WrY0qSeqVkXi9J3r3F1FviwqcLCcOSJLEo5fW1FROLTvac2b4kyerrGyYbVRJS6vfXWYOkJEIIIYQQQgghhBCaq/afhGxIsGlcsk0lG1UC0Cb3CsdYsjcr87cJq8eG49a4zjR56t6evPBZtyyV1/TX5JKQ7zbnz5ObvAmJEEIIIYQQQgghhJakeSQhW95ATFRKQrqkXZIAtG8Zqjcja4nEjx11F2yi0JfzSpJ9cmyWyJTEZZ4MlGOa3uA0Kh1vJdf9uLkmf30XPuvubXDdivGfkSOEEEIIIYQQQgghtD/NMwmZJw/924TpW4JpEvKy/Oz5Z7OkntTTkuBU5eJPpVsTmAVcElK/+ajvpVctCem2u8TjZXMdF7J74E1IhBBCCCGEEEIIIbQkzSYJeU2SfzHZFn7CbFd8QlC/7ZcnIeVNRrOeJTRjQjGq/EahTugNj/GSujd5E1InM/195OfvceVcHSEJ6a9pUDYjS1QihBBCCCGEEEIIITQXzSMJaZN7fdJNJIm4mPTLkovln2OH7aGOLJHZKJvwKyX05Dw66TdCNQmZqZTE7DW8lz4JqzSwDUIIIYQQQgghhBBC89KMkpDZz4xVcm3482OXoIuJP5WEi28yFpJ/NrGpj1PoZN+7Swk/dZ1Ba78JmWndJGTpui0kIRFCCCGEEEIIIYTQjLX3JGSSiNNv9fmfLl/+rF+qpKBNNJptNtk3eBOwT1CWEnySJJS6XGJT/pakOlbOKXWZOuvJwV7jSUSvmITMEqc14r3wJiRCCCGEEEIIIYQQOgztOQmZ/2RaJ96cbMIxewMx0UgScvBTbEkIZm9dSv2unE70SR3h7cUVbyHWCNekk5BZsnA8iTlMQhbPI5CERAghhBBCCCGEEEIz1gc+8AHLfpKQK9/iy5OUBak6whuSLrEXkpE6mdj/LDokIW05cw552zI5j9Rb+Rl1UPubkO668vtYNwnJm5AIIYQQQgghhBBCaIk6f/58d+HChX0kIVWCUSXqVpK/FWmTcPKvYxf2WflkpE/USfIx1KUTfKVEp01qjryF2ZSEHEkSbp6EDAlWx8prQAghhBBCCCGEEEJoj3rggQcs+/uHaRBCCCGEEEIIIYQQQgctSUA++OCDJCERQgghhBBCCCGEEEK7EUlIhBBCCCGEEEIIIYTQTkUSEiGEEEIIIYQQQgghtFORhEQIIYQQQgghhBBCCO1UMQn57d/+7X4TQgghhBBCCCGEEEIIbU+8CYkQQgghhBBCCCGEENqpSEIihBBCCCGEEEIIIYR2qv7n2H/6J/wmhBBCCCGEEEIIIYQQ2p5iEvKPf/uf9psQQgghhBBCCCGEEEJoe4pJyB/+E3/cb0IIIYQQQgghhBBCCKHtKSYhP/zDJCERQgghhBBCCCGEEELbV/8P0/wEP8dGCCGEEEIIIYQQQghtX30S8t4f9psQQgghhBBCCCGEEEJoe+qTkPff7zchhBBCCCGEEEIIIYTQ9hSTkN/+7d/uNyGEEEIIIYQQQgghhND2xJuQCCGEEEIIIYQQQgihnYokJEIIIYQQQgghhBBCaKciCYkQQgghhBBCCCGEENqpSEIihBBCCCGEEEIIIYR2qq0nIW/evNm98MIL3XPPPdc988wzAAAAAAAAAAAAcAqQnKDkBkvaahJSTvKlL32pe/HFF7tXX321e+211wBmzec///nidgCAXUDMgaWBzwLA1BB3AOrQP2DuSF7wa1/7mvXVUiJyq0lIST5++ctfLl4IwBwhiAPAlBBzYGngswAwNcQdgDr0D1gKkoiUNyJzbTUJ+cUvftGeqHQBAHOEIA4AU0LMgaWBzwLA1BB3AOrQP2ApyFuQ8tPsXFtNQsoJ+Bk2LAmCOABMCTEHlgY+CwBTQ9wBqEP/gCWx8yQkHQKWBj4LAFNCzIGlgc8CwNQQdwDq0D9gSZCEBMjAZwFgSog5sDTwWQCYGuIOQB36ByyJUhLyAx/4gIUkJJxK8FkAmBJiDiwNfBYApoa4A1CH/gFLopSEvO+++ywkIeFUgs8CwJQQc2Bp4LMAMDXEHYA69A9YEiQhATLwWQCYEmIOLA18FgCmhrgDUIf+AUuCJCRABj4LAFNCzIGlgc8CwNQQdwDq0D9gSZCEBMjAZwFgSog5sDTwWQCYGuIOQB36BywJkpAAGfgsAEwJMQeWBj4LAFND3AGoQ/+AJVFKQs7jX8d++uHu7Jkz3Zl7Hu6eKu33PPWJs92ZM2e7h5+W9SvdeTnm/JVBOYfbf/YTT/Xbrpw3x5/vriTleq6cz+t7qnv4ntJ1+e1y/hor7gXmAUEcAKZk05hjxycztpy/Ut7vSMfFdMwc4vbrMdGNbcm4WcSfx1Avm42fYZzPqY7hMBdO2zgZ+toYq/sIAJyEzeJOGJvqz3opvvzYM5sfu/TY68bO4Xg8jB3nu/OleMK4ByeE51dYEqUk5Pnz57sLFy5MnIS0ycBCUB4gD0/9Q5F+oKoNANW6zQDz8GAg0A9nT5nBw9UZJpfhHGfNYFFMQhYHrbF9MDdafHb4oF7enk8+tG8OE9yhvPfBzG9Tv+4f+BO/yh7qaw9Fw3OX6lPbNPlEyZ6zYoti2XI9oW8JTfcqjNTnkGPrCReAOdA2TvpxJPj7GNIX4hdsvv/Y/uE/D8aiet3nP5HGFMugr+WxYhgPhg9ihnAd9lrpp0tiI58d+J1QitHKn9aI+fUxJGWjsQYA9k5T3Gl+nqzFiRC36mNSnOtnc+6cWP/oGOfjTnEOC9BOc85FYX05jnd6Lpf6qx43LfgrnJBSEvKBBx6w7CEJ2foQ4gaINAk58hAVBxnXufrEjFsP++OgIvsaB7G+bn/+4sR1bB/MjVafHSTy7GSk92G7X7e5n6wEn8mPT8uLb6oHeeuPYb33/7Qe2a76UHY9keDb8dy1+rLjSvXFCViadIiDVVKP7m/pOZP7S84zdm0j9an97XEFYD+sldAp9c0SsU/5fiDH1cY1FaeScTCsJ3Ep62cxBvh+VokJg7gi12LiVekBrh9XYa60+Kz4Tu8rrTF6w5hfHUMyNhprAGAONI2Vto/7fu3HvDTu9NvDWBPnrKOEWKHGwVqs8eNgqN/GEz0m6mssjasAG9Ccc1H0c7xsjqnHSoP4MD4K26SWhHzwwQf3nYT0nSE+/Oj1frLoBg5z3CeygSYZAMJEN0Ve+cw7WDxffj3ZgJUPMPH6VP0D4r3AnGkP4vqBKA/QvY/qY/SDjf6cPuiX0OeSz7lvqslNpHQNcqz/KUjyYLe6vsEAFPrIFekLw350Re5JP8TZPtOX0/dsP8ey+rpHrm2kvr5/ZscDzJC2mOPHGN2n8nFJr8e+In1AjnvYj1HDvhr7oJTT3GNihY4h2bjXH5P1MV9O9sVrS8o7zn7iYXttfVxx16qPgXlysocds16N0ZvFfPu5OIb4ejz1ciPnBYBZ0BR3bN81fdnOTfvxJiXt225sysaxyn732Rzvx9sx3FhWG7v9+XwsLMUrgHVYL+ciPnrWPA8af7bjaD4WO7/VPszcDLbJ7JKQfWfIBoXwUGODeD9xdGX6gB+DvA7w+jyK8ABmf5Idlsnxvs4R6JCHxzoPV9b/xF/FX7zfJvvET/TEQxGSkHFCUygTsf6v+4Iqr/fpYwoP9CGRGM5tt7fUl5fRVPbZ+9L3ntvI9jF3XLiuUDZe39i1jdQX6hk8WALMkLaYEx5kzqt+7fp46Ge23+j+YfuDLxMJ/aHwYJRj+5s5l/9Jtlu64925GjHnCPHQ9vPYj9219clIt2RcnT/rjJOBZNyJZDF6w5hfHUNCWbV9vbHG9xPx4wZ03QCwXdZ9pjybjXHJOKTKu+0qDmXo/TZm+P6ux8TScRYbS/pjJIbZL+lDvPH7GffgpDT1j8Tf/Phmx9X8eanPtcS5ZkSNlQAbMr83If0bjbZz2G2Fz4MkpDnuinl4uacP6m6QCJ2kPIkMAd+W1RNbIVxP6IzJ+Q26E/t9rcQ6YJas93DV+1a5XbPArSZDeiIzHtD1QGDWrb+p8vFhKZR3xIcrXc77ebKvoT4pX324suWH12/7Zj75Kz5AZvdniNc3cm31+vy6JR9UAeZHW8zxsSa80Wh9328bfDblY3/wMcj0J3nwkXHL9jXbl/K4YsppQl2+7PjYlZ2/iOuP9sHQlnPXRhJyeaw3ThqK8VnIYvRGMX9kDAllLSPlRs7bH++uIfqnlBmcAwB2RXuSxfddP3ZJH7fxw44zff8PuH31uWK+367HuGHqryDnsjFGfzYxzCUh07ICYx+chKb+IT6bj6N23c/hwpjm+47tL9l4GPy4PtcDWM1skpB9gPcPTNa5+4endADoJ5LJ9thhwgPNcKAZ4jtdPjleMbAE9ICRD1KwTDZ6uGoKxukDkJuYOL+rB/RsUBCsn48/LA3rk3r6MnZ/MtCM1Zc9JObkx3viJC1sKw186v51f43XN3ZtI/WFekhCwhJoizn5eOjGn37c6ffb8rE/pNtt3zLbH7bHDfttEVvXcEwN1zGGPsbFBNNnTX901xHKhOSju1YexObPWuOk9Z9aHM5i9IYxvzqGhLJq+9pjTdjmy5OEBNgPG83P/TgTKcy1W8ayGMNUnWftyy/y2cQOH5/sl32fuJI9p7rPNt4Uzh/qZOyDk9DSP6w/5uNoWLfjnvd3/+d4ij5ZGR8B1mFmSUg3AXSfxblDglC/OSHl/UNVpO8INsDbbWoyWRqEBKkvdrgVnalhgOjPXaE08MDs2GiSM2hb8VHlgx7r2zoZEB9g0gSlw/l5ui1sV/5qfTOcq5C0FPTAorHlxurz62O+a+sev9dSOT0QpmW1LUaubaQ+V4+QHQ8wQ9pijo4H7rPtM7ZPmO3+YSiMUbY/SJlA6F8qFvSxJYy1Q6S+OLbp/uyRfa4eX4fu06o/lsbHkHQ8e/68vSaSkMthk7ldaf8wRmfrjTHffi6OIb4eT73cyHkjUl6Vkesp9AkA2A3rxR0ZZ/L5nxtj4jjk+68bn+pxytXn6tIxxH42MaE4vzbo8Vo+2/MM5qkGG2/yawVYj6b+Ib6mfTBfj+RjsyIbiwE2YSZJyPThJTwk9Q8iftAIkz27Xw0GqpP0A0/pQcafR00akwejsN0OBmr7ClY/MGX3B7OmdZITqQRw61vK1/REpLg/8Xv9cBSOD6T7dD3Dc5ZJy9XrE/SEq0hlMBoe5+6/eH+2z/k6VP8ev7aR+iIjgyjATGieOKrxxvYFFXfysbDvK9n4GdaF0phkz6P6jI9LbrzL+1KoS7a7Pujq1NvTsu769Wc9bjOpXQrtPruqTcUXtJ9sGPOrY0jGRmONOlZvk+P1er4fALZKS9yxfdeOJ2O4f4NAx5J1+24Yt9yXaCamSP8341/+JmSIW/LZjdvuDbP+WvyxtZgF0Ejb8+twHHXzNvc5mZeFOaL37TBfLI6PAGsyjyRkeMipObQNzn3H0OgHrzDwnL/iO1XeycLf0vLL+Bq9nNefI05oc0auYTWuw9Nhl0FbEFdkwVmTT4a0f5WCeJjUnP8H+sG/p/c/71NCPLfapij59PDcpfr6stV+Idj+O3zQtPeS+3zo60Ll3oW0n9Wvbaw+hxzLxA7mTfuDVc2X9UQy3+f7j/SP0F+knB/T4jF23dRv/y6zX8Y3POS8YVzN+no4Tichi+Oluw63LXzux+rw0LY6aQVzYONkwMBHSzHa+2yp/NpjyLD+TcYad0zmm3It6hqkzOhYCQAnonl+7uNEqT+6vqxiQnG8GsPFifjrA/uP0/hEookbtSRkiDnDGFi4JoANaO4f3uej/waf1ONrNt7pcbPkwwDrMqufY4efYkUnL1KfTJY7jCl/7Up3Jfy9LMPZe84b/Gc9QMWHqb6OdF/rIFW6DwaXpdAcxAEAtkBbzDHjin/ASceWAklyJh2P0ocyv8+Uv2LG3348NQ9R50MCUo+r4Qs9XXY1xQexSDo2lr6cgflxesbJ3ueH+3KfZp4HsEua406STCnR91U7lq2RVLly3o2J8mWbTd7Yc6VJyHAe/aWbjIN2fIvnyuIH4x6cEJ5fYUnMJgkJMBfwWQCYEmIOLA18FgCmhrgDUIf+AUuCJCRABj4LAFNCzIGlgc8CwNQQdwDq0D9gSZCEBMjAZwFgSog5sDTwWQCYGuIOQB36BywJkpAAGfgsAEwJMQeWBj4LAFND3AGoQ/+AJUESEiADnwWAKSHmwNLAZwFgaog7AHXoH7AkSEICZOCzADAlxBxYGvgsAEwNcQegDv0DlgRJSIAMfBYApoSYA0sDnwWAqSHuANShf8CSIAkJkIHPAsCUEHNgaeCzADA1xB2AOvQPWBIkIQEy8FkAmBJiDiwNfBYApoa4A1CH/gFLgiQkQAY+CwBTQsyBpYHPAsDUEHcA6tA/YEmQhATIwGcBYEqIObA08FkAmBriDkAd+gcsCZKQABn4LABMCTEHlgY+CwBTQ9wBqEP/gCVBEhIgA58FgCkh5sDSwGcBYGqIOwB16B+wJCZJQgIAAAAAAAAAAMDpZZIk5J07dwAWAz4LAFNCzIGlgc8CwNQQdwDq0D9gSZCEBMjAZwFgSog5sDTwWQCYGuIOQB36BywJkpAAGfgsAEwJMQeWBj4LAFND3AGoQ/+AJUESEiADnwWAKSHmwNLAZwFgaog7AHXoH7AkSknID3zgAxaSkHAqwWcBYEqIObA08FkAmBriDkAd+gcsiVIS8r777rOQhIRTCT4LAFNCzIGlgc8CwNQQdwDq0D9gSZCEBMjAZwFgSog5sDTwWQCYGuIOQB36BywJkpAAGfgsAEwJMQeWBj4LAFND3AGoQ/+AJUESEiADnwWAKSHmwNLAZwFgaog7AHXoH7AkSEICZOCzADAlxBxYGvgsAEwNcQegDv0DlgRJSIAMfBYApoSYA0sDnwWAqSHuANShf8CSIAkJkIHPAsCUEHNgaeCzADA1xB2AOuv0j2uXznTnLj9f3AcwBfNIQn7hse7cmTPdGc17HuuuXT7Xnbl0zZe71l0y2y99Jju2hK4vHp/xmUt2f1N9cKpgkgMAU7JWzPFjl4yRzxf3nese+0K2XfG8jKtnLnXXCvvGeb577D35efU2/zmMvQrG2cODcRIApmazuOOeH9vHPV++NMZmuPG0MZkTxm55LuUZFHbAWv1DciU1H7d5FD+XFF8d5FJMHxnrH8VjXH/JfV62uf4T+mmP7lfXLrnrKdURsee9ZOoZnwfDPJjNm5CSkbcO6xOI4mAuuKtOoBzSlleOOqCWfAwwAEAFHq4AYEraY06W6LPjnEoE2nHNjZnJGGnKhYelIf7BzI+JmnR8LCUh+4ew4ljKOHuwtPls5q8V38l9JJ3fVRIH+iGptN9Qqr/cD1Y/sJTfGpGHppaHnfFycf5b2Jd8qZ7bQu8beyD02HuP5xk+8FlWzZ0B9khT3CmMZTXKY1OIW+3xpYjvkzqehfO5bS2xA6Cdlv6Rjq8e46v2xS+1rscTOSbpK9LHRsYKXV5/lj6jP4cx1X1+zIxJaowz55D94ZiQhAz9M7me7Bg3vrV+6QD7YtZJyDBJuvSZ8sOPRQ022iG1c5eQ/QwAUKI9IQAAcHLWGifDuBXGvkuP9eOj3daPa26cS5MnbptOPOrPfhwN4/ClfnxNiOcyZczEUcoWx1tdZ74PFk2Lz6bzMDePi+va93RCUbarh5s4N/TrjoYkQa3+rFy5/hTX73IfD0m8kWuwrCjn+0j5GuQ+++Ns343z4DA/dvtW3UeIBdUyIzYCmAtNY6XtU96Xff8ajE9+e+g/sX+M0vePEBOGY1uITdk+/WzrP6d1O4rjKEAjbXNJM3aofIr4svhlOl7nuGMe835fw/l8GPME12f0OWQp68NzyXFmzJb+4eeYUqY/Ro9PpmyY+6rz59Cf5s28kpDKcS59RjuxQnWcftDwE818uyqbUx9A4LTT6rMAANugNaGTJzLspEzGylISMjzoSNJh5KHHImX0Q5l+YIrXkH0ZmD3EFWkpA4tkk3HS+rD3H/s5JsSyBKXG+tBwjnfuknlAyfqDpql+6+dp3Sne5009yUNT7B8yT61fw+pysv2SeZjyfTBuq9Spr9d+7svVbevnu2Zf+ieOUsoPhQDzoinuhHHwM67/xXEuofTcWO/Ler/77I+Xc4Ux0VB6tgzbUlxdoW8+7xM39EE4Cc3jsvitjAVmGXxO/LrJ/2TsUT6fI/Ukcz7bH3P/d4SXzFx5Nx62JSEryLGVMQ7mx8zfhBQqgdmXKzm1HhDK+ImllMVZIWOThysAgE1ZHXPUmJUgkzK/z0/a0gclX06NiYMHqOSzH3vjOKwTIuo8WfniQ5af4IYyw3uCJbPJOBnnef6zntfpfRrrr3pOZ33TP6hE3xzSUn9eZoxy2ZGEYUK5XKizdG0lUlu4/hiuqaUOe3ypTLBpvh1gZqyVZDF97pyMWcrnw7iY92W3vd6Xy/v1uOzPVaujMhbafpuN3Xo/wDqs7h8up+J8VnOuu3TJ9Y2ES/8o+rjzXfH53k+HiUGz32zr8zNmXDG+XRpnxfddnWF8lKUf232fkOOk77l5Zigj9Vb6ihzbMJbCPJjxm5Bhn3O4kgNHfHCPD1MrJqfhASs5BsCzycMVAMCmtMUc/8ATJljxocVvrzzIhIec+s9o/BgYx9Ge+HNsm/hQ51Hl3eRQbdfXqcr09wGHwNrjpPWFMN9yPqLnddaH8oeHwlwuPriMzvMa6rfHt8//5PjhPDQ8POltJQrl5Py+zxTvPSE8eOV9yfc1s310juypJSHL9wYwP5rijo4N9rPrX7UEpLBZEtJh+68/R77P0ffTfCy0x8axE+BkrDUuS99QPis+7vqG+Gs6Nsq+ftz1/j5A9Q8Z70Pd5nPoc/05nO+n/UHGOXPeMDb648K5dcIzfI59z2P/PFC1H8LcmO+bkLW/RWVwTttPyvKBwTqu3zc62PhX9fNBAU43TT5rH6iC/5mgma+XjgEAKNA2TvoHGT/BcuOYxBq/3U/awngoY+q5y9eSY9Ljsvp9DNMTTfnsyqu6wgOTKp9PBC1yTl1nfj5YNGs97Ci/DNucf/bzszgH9OvaB+M2qSeUsft9nb6s8z3t//X6rV/r86lEgZDPHfP6HJsmIeVc/frg3qu4eW/fR/s67P2sSGYM71lovQeA/bNW3BH8GJRQ6CdhnBsn7Se23xbLefx5BnWrv+NsvxxUS5KRcBJa+kfRb43vyZ/rcGPcSBJSbROKb0KqcdT2mcurk5Dus4xF5rwytsk4ZfqulA3nLiUh3TnNcbHv6M8wd+b/c+w4gGQPTaWBpUjWQcJk1U/EXGcsPJDBqWXtSQ4AwAloizl+cqf/GLcdx/x2mXjZcdGNefrBJ/zjMf24mGLHWz+m2s/JOOwSJjJBjOeR61Hl7TgaJ37hOt0kMtaZ3AssndZx0vnhcI5lt/t5WPCZmORTfqyPcfO1nGE5YbR+v76OX8q5++MDrQm8rFyYh+bE663R34e9P/2wZescv5bUJh6xNQ9tsBDWizvSr/I+IX1x2OdWPQu6+lxdSRwq9h0/Bvp9bnx0P1G1Mac0djJWwhZo6h8h5suYcelSTNqJLzr/E/9N+4L4f/TX4PsFkjE8jDXmc9ge6pHPw/NJ37zUPWbK2PL+uP7cfV92n81xl+UcOvE4vHaYLzNLQprOEJxZB2/jyLKMzh1xDmudzU/qguOWBxM/+ERnrW2D00yrzwIAbIO2mOMfbMYSFXbsCxM1P7ZlY6F7mCqMj/ZYPylMkpABf/4wVqryxYmpXKeuM9YDh0Dzw05xLpbt0wm0hmSaZVW5Wv12v/SNhnMo6nPQlnrGy4V57nBfdtyInar9WmHLZOcpbQOYKy1xpzgeDThn/waeG5saxtYB2Xg4tu8z5hnW9lcZC9Nz2Wu15cbqA2hjdf+QMUWNi+KHdilfbofxQ3wxHUtCIjCtS/y3Mq7J+GvrNPvjm5BybuPj/vzi+7ZOOX/0+1BmOG/Mk5DSf2O9qt/Eeu01MLbNmXkkIX1wto4ZA3WYVOkJl3LKeIyfGPp1+fz8F/wf+i6VLwX4WFfa6eB00pYQAADYDm0xJ314KT4E2cSLHzPtZzcO6olYNVmhy3vSSWB2Pl9eyvQPUrp8WibZDotn42SA8hPni2578BG9rafgr3beVnkA8pTqt9hj15vvyb1Mk4TMysb5aeE+kj7bH2Pvu/DwVdpevi+AedI8P/f9puTbLi6oPrbROOXHw9j/Cugx0V9Pfo7q2AmwAWs9v4pPhvFA+kAcG7IkZBxnhmNmLQk53sdCotHvN/tcP3XbXRnXv3R/SZOQ5vhkzJT6fF+Sc/klY9u8mc2bkJFkwpU5t91ntv3/9OCSDgRJgLdO35cvTcp6Qj3ZOeHUsbbPAgCcgNaYo5MqATsO6nHTP9DIJC2Mh3bCpo4ZIGOjniTqBya/PRDHWF3eX58jezjjAesgYZwEgKlpjjvJs2SJ/lnPjqtrj1N+nCseV9inx1S1LtdCogS2RVv/6JN2fR5F5z5kPSQc9WeV7Ksw8OUwfyzmX57vrn0m/Nxa6s7zL7LN/Tzb1T+8pjC3zc/rtpPPmTvzS0IC7Bl8FgCmhJgDSwOfBYCpIe4A1KF/wJIgCQmQgc8CwJQQc2Bp4LMAMDXEHYA69A9YEiQhATLwWQCYEmIOLA18FgCmhrgDUIf+AUuCJCRABj4LAFNCzIGlgc8CwNQQdwDq0D9gSZCEBMjAZwFgSog5sDTwWQCYGuIOQB36BywJkpAAGfgsAEwJMQeWBj4LAFND3AGoQ/+AJUESEiADnwWAKSHmwNLAZwFgaog7AHXoH7AkSEICZOCzADAlxBxYGvgsAEwNcQegDv0DlgRJSIAMfBYApoSYA0sDnwWAqSHuANShf8CSIAkJkIHPAsCUEHNgaeCzADA1xB2AOvQPWBIkIQEy8FkAmBJiDiwNfBYApoa4A1CH/gFLgiQkQAY+CwBTQsyBpYHPAsDUEHcA6tA/YEmQhATIwGcBYEqIObA08FkAmBriDkAd+gcsiUmSkAAAAAAAAAAAAHB6mSQJ+dprrwEsBnwWAKaEmANLA58FgKkh7gDUoX/AkiAJCZCBzwLAlBBzYGngswAwNcQdgDr0D1gSJCEBMvBZAJgSYg4sDXwWAKaGuANQh/4BS4IkJEAGPgsAU0LMgaWBzwLA1BB3AOrQP2BJkIQEyMBnAWBKiDmwNPBZAJga4g5AHfoHLAmSkAAZ+CwATAkxB5YGPgsAU0PcAahD/4AlQRISIAOfBYApIebA0sBnAWBqiDsAdegfsCRIQgJk4LMAMCXEHFga+CwATA1xB6AO/QOWBElIgAx8FgCmhJgDSwOfBYCpIe4A1KF/wJIgCQmQgc8CwJQQc2Bp4LMAMDXEHYA69A9YEiQhATLwWQCYEmIOLA18FgCmhrgDUIf+AUuCJCRABj4LAFNCzIGlgc8CwNQQdwDq0D9gScw2CfnUJ852Z86c6c5+4qni/pxQ/vyV8n7hyvkz3Zl7Hu6eSrZf6c6vcR4hnMty/kqxDCyX9X1WfOh8dyWsP/1wd7bJL5zvjfksABw+m42TLn6c0bEn58p5s/9s9/DT+bZNxq6nuofvycdQvc1/DmOjghh3ePCwAwBTM6ux0u/vxzd/HlNenjfrz5W+3OB5FOBkNPUPeUa1/WGc+rxN/DfrKznF52CZI644Dk4VM0lC1h9eBtSCdsODlU5CukSiDEhuMBgMFqG+AknZp59iEDkwmnx2xD+G+IlP8zEEaYDTxLZjThyj7DEuntjxr1DWIuNiof50ElpKQq74AtDXSRLy8NhoblfxndxHUl+tJA7sg9T4WFmqP/kSObJ6zC0nFRoexizj5ez91uauyQNjZgu9rzY3Vth7j+fxiZCckTk0wL6Zw1j5Kdmvxsw+dvk+df5hU4fEGVdfOeaUGcYYgHbaxuXVSB8YHzNLqDGumIQ0SJ9pGKvgdDCvJKR12DBpzSee+QNQZQKVY+uUsue783Fg0Z9z0oRR8vDkJ3wMEofNWkH86SvdFUPTm5DGp3LfkeCe+BgAnDraH6xWJDziGPVkmvwJY5kf1/pxUdWnxzxfz/nzvnyOfgD7xMi4qOvM98GiafFZGd96v3BzuLhufcOPm9bfvC/KdjV+lhN0YZ440h9q9WflRhOAnpCUSH08zEFX9MlV5XwfKV+D3Gd/nH0YzObAoW+tuo/4IFkrM2IjgLkwi7EyGx/78c33dXXM+Sv5uOjL3GOeQ+1582ddgM1pz7mM9488Cdkyh5PEe9JH/FgTxs8iI2MWHD6zS0KOOWtxAlh1YLVfOoOZuD0sddsJnNvnOpX7PHiA8gNQ9SEsECeEcCi0+ayQPVQJ4jc1nzD7cj8jCQkA7TFH48fNkTHIjadhYujHRP/QE5ISMSaFMU/iUXjISmJTdj5dPpbJaCkDi2QTn9VJNPs5zt8KY2nA+lD6oC7HnjVzs7GkWVP91s/HkgDe5/3cNB4f+4f0qZGHuZXlZLv/Ujxe60id+nrt575c3bY+Dph9V7LtmuT+AGbKLMbKUJ8to8c3d1ytH4V69HW48/bnyo8BWIf2nMvIuGUQvxybt9X3h76T+7XrM+EY6QvMC2FGfxPSOehZ0zHSb7DSwaAv77dXJlTJfpnEmqUN9hL87aQ2HWwGg0bp4clPKJmoHTatPtsHUfEh8afgqynRX4xP5b4TJyWakYkSABwerTGnf2AZIY6JKh6FBIQuZ0jikR7zismT7EFOlS9eVxh7fZl4HjgINkkGWD/x/imftf/pfRo7RuoxMSTisiRcTkv9eZkxymV1/xijXC7UWbq2Eqkt/JzZX1NLHfb4Uplg03w7wMyYxVgZCOPbyMsqsX/Leuy77ny6zlimIQ4A1GjrH34u5320hp63FZ9VE9LxLR9rxL9jfTLe4OdgmE0SUk+gXDAWhw4DQ2ly5PdVHXm439arJ7Oq3GCAiQ9P4RrKFAcmWDRtPqv9wgVf8a/cHyQQx8BrfGp0PwCcStZ7sEq/Wc4fbMKYl08aQ+yJ2+1xrg4bg/yYp4kPV6psPJ9KMKZjqy8n16HK6PuA5dPqsxHrC6nv6vHQ+lA+nyskGqWc9afRJGRD/Wsm3uT4fPx2fa52DZpCOTm/7zPFe0/o5xtpX/J9zWwfXtuQ/MEwUL43gPkxi7Ey1u+IfdLGFNm2Iq6Y58qHbd0tsQOgnbb+Ib487nvi33qskb6g1/P9yU+x1bhUJPZDOO3M6E3IQNl5tbM7+knZKGrCZQcNPekrlQ+Dh50wS6dy53GDkhq4/GDDxO3waPdZHcivdFeMj9pJiwqwSeA2PmX9xT+YFyE4A5w61nuwWoEd8/wDk00i9pPD9KFK1SfH6IShH9/kczjm7CfMg5N+kFPli9eV1+nvAQ6DteZ21g/Shx7xGT1/sj6k5mvaB+M2qSeUsft9nfHhX3DbVtVv/VqfL5t75nO7vD6HzAnT+yqTl9Nzh8K9V3Fz0L6P9nXkc48Sw3sWWu8BYP/MYazM6w4xKh4z6E8+tphzuOfJh/0yjU/D+AKwHm39Ix1/Wuh9u0bad+yfSymONX2CXnyeueHpZkZJSDe5ss6cOW7q/N7R/aSzHrR9faouO3AMJmmuXF6PO6ecS+3X51x5flgqbT6r/NWivvmUByU1cdETFPtZP0glmDpXPEQAwOGx3oNV49sdV64kf3okjqPZQ1WcBNqyft2Pb26fm7DKrwJGk5DxOsIDl7kOXafdB4dCq886vxu+GWS3x3HQ+UycTym/1ccEn00ZlhNG6/fr6/ilnHs435M+Vz5/SlbO96/BvRTnBZr+Puz96fmCrXP8WlKbeMTWuh6AGTOHsVL221iQjG/+HKbOQayI46k7ryRnwr9N4K7BH1uIkwDr0NY/xN8axi3j38GPxef1eCk+nq6H+kzd502/EZ9XY03aH936cDyF08Y8kpC1CVmOfIsUBpHKJHUM2wkGky0/KGSdIe8wQhyYDOtMXmFZtE5yWtCBOgZp8V0VnHuML/IwAHDqWO/BagU6toRx8oobY9045x9+LGoM1Q9U8aHJ77NkD3KqfPG65Dp0nbEeOASafNa2f+XBWu/TCTT9OT9Gs6pcrX67X/pAwzkU4uPDh6bWesbL2f5TmxPo40bs5OanFVt7bJnsPKVtAHNlFmNlcowf3waf874p666+NI6YcfUT5jpsfy7FGIB22vpHWxJS/Db4o/Nh1XcGZPWJP0v/8n4d54D5OpxqZvVzbDdolCZRfiCIA0b2MNSIrb8lCek7yeB8oeP4wWbVhA+WSbvP6glKKaiqQC8+lT28FyEJCXDqWO/BKow7+TiYj5OG7GGofzCTOkL88vsLcSmNadn5fHkpUx5b0zLJdlg8LT7b+5tC+Yl+sAk+Un7YKcy17Dxt/EGqVL/FHrve/E3uZZggkD40fg2O8XLWTrHfZmXDfLR0H0mf7Y+x963jgKe0vXxfAPNkFmNlcozpk5+oPDP689m67GdXT+l5U7bRF+GktPeP+njkUM+vZl3GDj32iK+m61l94tfJWBP6kOpPhTEKThczTEKOEB3WOXAyGWsgDgTJxG2I1Os6nB9IzLbSwOAmuKs6MiyNNp9NA3S6XfmTn4QkAVz8rxh8jV/HSRIAnBbWGSd70gedYpn4YBXiUh6z/HaJR+GBSuKUfzCyn7PxMoljej2vMxxDTDtINvNZAIDNmcVYmRzjx7nBlxrlREvtOZfkI2yD5v6RzeuKFJ9THXkSckBMQob+NPzSr/SlGJwuRpOQH/3oR/2mzcVEFZYGPgsAU0LMgaWBzwLA1BB3AOrQP2BJlJKQP/MzP9N95CMf6e566KGH/KbNRYeApYHPAsCUEHNgaeCzADA1xB2AOvQPWBKlJOQDDzzQPfjggyQh4XSCzwLAlBBzYGngswAwNcQdgDr0D1gSJCEBMvBZAJgSYg4sDXwWAKaGuANQh/4BS4IkJEAGPgsAU0LMgaWBzwLA1BB3AOrQP2BJkIQEyMBnAWBKiDmwNPBZAJga4g5AHfoHLAmSkAAZ+CwATAkxB5YGPgsAU0PcAahD/4AlQRISIAOfBYApIebA0sBnAWBqiDsAdegfsCRIQgJk4LMAMCXEHFga+CwATA1xB6AO/QOWxGgS8i//5b/sN20uOgQsDXwWAKaEmANLA58FgKkh7gDUoX/AkiglIe+9995O8o933X///X7T5qJDwNLAZwFgSog5sDTwWQCYGuIOQB36ByyJUhLyvvvus5CEhFMJPgsAU0LMgaWBzwLA1BB3AOrQP2BJkIQEyMBnAWBKiDmwNPBZAJga4g5AHfoHLIlJkpAAAAAAAAAAAABwepkkCXnnzh2AxYDPAsCUEHNgaeCzADA1xB2AOvQPWBIkIQEy8FkAmBJiDiwNfBYApoa4A1CH/gFLgiQkQAY+CwBTQsyBpYHPAsDUEHcA6tA/YEmQhATIwGcBYEqIObA08FkAmBriDkAd+gcsCZKQABn4LABMCTEHlgY+CwBTQ9wBqEP/gCVBEhIgA58FgCkh5sDSwGcBYGqIOwB16B+wJEhCAmTgswAwJcQcWBr4LABMDXEHoA79A5YESUiADHwWAKaEmANLA58FgKkh7gDUoX/AkiAJCZCBzwLAlBBzYGngswAwNcQdgDr0D1gSJCEBMvBZAJgSYg4sDXwWAKaGuANQh/4BS6KahPzzf7q769u//Y/7TZuLDgFLA58FgCkh5sDSwGcBYGqIOwB16B+wJEaTkLwJCacRfBYApoSYA0sDnwWAqSHuANShf8CSmN3PsZ+/fK47c+ZMd+7y88X9gWuXCmW+8Fh3zhx75j2Pdc/r7QBrQBAHgCnZNObIOCjj5aXPlPc7rnWXZFy8dM2uuzH2XPfYF0plw/5L3bW47fnusfdUxmQ/5rrzu3Jx/LX71Hk+c8le6wBT/jG5D7k+W6Z+bTAfGCcBYGqa404+loyMP3a8Wrd8gh9jk3EzxY7V/lj9eTjeepKx1RGej4vjfe16FePzBDgEGJdhSYwmIf/4D3/Yb9pca3WIlUFUDRA+QOcPRu6hjIcY2ByCOABMSVvM8Um+wbhYICb05OFGJyH958GDVL3uS5f9l3san9C884Xnu+f9uH3pMyoJGcbyS49118z2eB673Y3Pg4cykpCLgnESAKamNe64Z8FAOqaUvohbq3wY3xoIz6iD8W5FEjJuDy/XVIiJxTgOp/Ws3AcHBeMyLIn5vAmZBHU9AIRvmApvYthjLnWXksEjp/7NFEAJgjgATElbzPFJvpAAXIUfH5MkZDLOKlRSMn8osutxv6vLjsW1ugqkD0pufB88lJGEXBSMkwAwNU1xJ38LP2OQVFy3fMs4FV+U+fX0Cz4z5tk3/wdJSDW26s+1a/P1k4QEDeMyLIl5JCGTYFp6IyMPwBKgywOA+zaLxCNsDkEcAKakLeYUkpD5w4Vet591EtI8/NixtR8fh29kyH7Fey51l8wx8QvA/MEn4LfrY/Mybmwu4b9IJAm5KBgnAWBqWuLOYCyLX6Lp/f04s275IepXAMX9hS/d7LnOmbFPn/uSOcfz/nxmnPbj+Rj52D/GYNyGg4NxGZbEaBLy2//ED/tNm2utDjEaRFVi0QTpa5VBgSQknBSCOABMSVvMCUnISzap6B4oQoLRJSbd+OfHxTwJGQnjZsOblSHp6H+S7ZbpuBse4JKfY6tz9g8+6YPa4KGMJOSiYJwEgKlpiTvXzBgZfsY8+AWdIU8qrlte6BOJI6ixdTDe+c9h/NTPrbru0pgLUINxGZbErN6EdEG3EGwr+3UgD2Vd8CYJCZtDEAeAKWmLOSFp6N9otGOfTuylSb5BEtI8EMmXd/FBK3/oKn0JGOryZZM3KcK4HB+0svPHMn7Mzs5XGr9JQi4HxkkAmJrmuJOPb4pSUnHd8umzZj72pV8O9uXdNj32ubqHz6x2uxxfGpcVg597ryIfc+GgYFyGJTGfvwk5eFujRCW5OBak1SAA0AJBHACmpC3m9A824e0JSQr2D0jZg08hCSnbw8PTY5WHnyJ+jC09oPWEJGllzLUPef354kOZfShS4z8PSYuAcRIApmZ13PHjUBhPPPoLtDSpuG55Rxy/xrBjoarfj20rk5Dqmfbce2S/fDZlZLs5zn6ZePmarbcfk7PxH04ljMuwJOaXhEweoPqBIDw49YG6HHCH5QDWgyAOAFPSFnPcmOceOtT4FxKE/mEljJkhURkJY6V/48MeEx9gyg9igtQXH7jUeDuof4xsnHb4c5J0XCSMkwAwNc1xZ45vQq5IQobtvy7b/LF2vxnbw5idE69Xjes1dGIVDhPGZVgSy30TMktSBtKBAWB9COIAMCVNMaf0xZxK4OUPSna/fZDJH4jUWKuOj9jzqAeu5OEme3CLhCSmeViyy9IYXE90JpSuCWYH4yQATE1z3AlJxUuXzDIdj0aTkI3l3bPmClYkIa9dln+UTeqW8/nxUR3jzquuScZme1zpTcgRKs/LcHgwLsOSWOybkPl6oLYdoBWCOABMSUvMcWPbiiRgMYGnxtaQUJRyfoyNx4Tko3kwisv4BoacNyQRs/E11BOvrU82jj/0jF0zzB3GSQCYmua4o748y8ehsSRka/n0WTMfy/Iv/nx5u78fHyWB6OqWevx2e4w7Pv66wf7jNKaMjLWmjnWTkMX7hYOEcRmWxDLfhAyDhQTr+ABUh29/YB0I4gAwJW0xx4yR/gGkNM4lqIeffGxNH1r6h6Vrn+n/1qQ8sJy7FBKQOunYPyjpssWHG/VQJ+d0D22NkJicPYyTADA1zXHHPhvqsSt7xkzGyA3KJ4x/oRbHPqnDjotqzFTjZBhL7b/WbfbJF4XnpE5bxmxTSchwXaXn235sVoxePxwKjMuwJGaUhASYB/gsAEwJMQeWBj4LAFND3AGoQ/+AJUESEiADnwWAKSHmwNLAZwFgaog7AHXoH7AkSEICZOCzADAlxBxYGvgsAEwNcQegDv0DlgRJSIAMfBYApoSYA0sDnwWAqSHuANShf8CSIAkJkIHPAsCUEHNgaeCzADA1xB2AOvQPWBIkIQEy8FkAmBJiDiwNfBYApoa4A1CH/gFLgiQkQAY+CwBTQsyBpYHPAsDUEHcA6tA/YEmQhATIwGcBYEqIObA08FkAmBriDkAd+gcsCZKQABn4LABMCTEHlgY+CwBTQ9wBqEP/gCUxmoS89957/abNJSc4Pj4unhxgjhDEAWBKiDmwNPBZAJga4g5AHfoHLIlSEvLDH/5wJ/nHux566CG/aXO98MIL3euvv148OcAcIYgDwJQQc2Bp4LMAMDXEHYA69A9YEqUk5AMPPNA9+OCD20lCvvjii91XvvKV4skB5ghBHACmhJgDSwOfBYCpIe4A1KF/wFL46le/al9UzLXVJOTNmzftSV566aXu6OioeCEAc4IgDgBTQsyBpYHPAsDUEHcA6tA/YAlIAlJ8VXKEubaahBSFROT169ftq5cAAAAAAAAAAABw+EhOsJSAFG09CYkQQgghhBBCCCGEEEJaJCERQgghhBBCCCGEEEI7FUlIhBBCCCGEEEIIIYTQTkUSEiGEEEIIIYQQQgghtFORhEQIIYQQQgghhBBCCO1UJCERQgghhBBCCCGEEEI7FUlIhBBCCCGEEEIIIYTQTkUSEiGEEEIIIYQQQgghtFORhEQIIYQQQgghhBBCCO1UJCERQgghhBBCCCGEEEI7FUlIhBBCCCGEEEIIIYTQTkUSEiGEEEIIIYQQQgghtFORhEQIIYQQQgghhBBCCO1UJCERQgghhBBCCCGEEEI7FUlIhBBCCCGEEEIIIYTQTkUSEiGEEEIIIYQQQgghtFORhEQIIYQQQgghhBBCCO1UJCERQgghhBBCCCGEEEI7FUlIhBBCCCGEEEIIIYTQTkUSEiGEEEIIIYQQQgghtFO5JORHu7ve9KMX/CaEEEIIIYQQQgghhBDanuKbkG8mCYkQQgghhBBCCCGEENqBSEIihBBCCCGEEEIIIYR2KpKQCCGEEEIIIYQQQgihnYokJEIIIYQQQgghhBBCaKfqk5A/fslvQgghhBBCCCGEEEIIoe0pJiHfRBISIYQQQgghhBBCCCG0A5GERAghhBBCCCGEEEII7VQxCfmdf/EhvwkhhBBCCCGEEEIIIYS2J0lCfvRHvqO766GHSEIihBBCCCGEEEIIIYS2r/gmJElIhBBCCCGEEEIIIYTQLkQSEiGEEEIIIYQQQgghtFPNIgn5hU/f6t796dt+7bi78LO3urdUuPyCLyZ64bh798eOuy/41URj+xLd7i5/LKu3JqnzZ4+6a37VyR1/4bN+NVFe9/i9WZJrHrm2zx5lZRFCCCGEEEIIIYQQmqdmmoTME32ickLu2uOSvFsnMTiUnL8loWfLPX5s6y4mEBXxfmzisn4toc6qSseTgEQIIYQQQgghhBBCC9Jek5A2AacSdy55t14SMmzvk5g+MVlI7JXOt4q+3vHzjyY8i29QOlWTkJJoLFxPidZkK0IIIYQQQgghhBBC+9As3oSUpOG6P8d2b0A2Un1r0J2rKYmXvH04fo06IbpKo0nIbLuUzesWO5CERAghhBBCCCGEEEJz1v6TkP7nxmkScp03IXuVknR1FeqTaykmLF3ZNAlZf7PRXYM/xicma9fNm5AIIYQQQgghhBBC6NC19yTk4I3Gx48mSEKO1FX46bRNFJryfYJynTchx697NAnJm5AIIYQQQgghhBBC6AC03ySkfdvvqLucJNfGE3ySzLOJu8K+MUL96xwbEofXHj/qriVvSba8CRl0giRk4ZpKkIRECCGEEEIIIYQQQnPWXpOQ8hZfSCqmSchN3oT0ycviz6krSt42zOqXfbquQRJymAwMbC0JyZuQCCGEEEIIIYQQQugANIt/mGYbSUhJxtk6Pns0SNTVFI+xWpHk3MqbkOa4LElaTUIWVEpCIoQQQgghhBBCCCE0dx1AEtJt14k8m9hb9Uak/bmzPs+w/iRBeNI3IT/tfl6dJxGHSUh/P1mdK1l1vwghhBBCCCGEEEII7UkzTUIWkmwenSSUNxllW/HnyDbJWH5zMByXJjSHSUhbrpqEbH0Tsr+fYQK1lISsa1g3QgghhBBCCCGEEELz1yLfhBxNPmayST5JAj5+vPK4sF8TE4c+CXkt1LeKkLBMkpdO+XlKycmSSEIihBBCCCGEEEIIoSVqFklIhBBCCCGEEEIIIYTQ4YokJEIIIYQQQgghhBBCaKciCYkQQgghhBBCCCGEENqpSEIihBBCCCGEEEIIIYR2KpKQCCGEEEIIIYQQQgihnYokJEIIIYQQQgghhBBCaKciCYkQQgghhBBCCCGEENqpSEIihBBCCCGEEEIIIYR2qpiEvPfee/0mhBBCCCGEEEIIIYQQ2p4+/OEPd5J/vEsykQghhBBCCCGEEEIIIbRtyZuQAklIhBBCCCGEEEIIIYTQTkQSEiGEEEIIIYQQQgghtFORhEQIIYQQQgghhBBCCO1UJCERQgghhBBCCCGEEEI7FUlIhBBCCCGEEEIIIYTQTkUSEiGEEEIIIYQQQgghtFORhEQIIYQQQgghhBBCCO1UJCERQgghhBBCCCGEEEI7FUlIhBBCCCGEEEIIIYTQTkUSEiGEEEIIIYQQQgghtFORhEQIIYQQQgghhBBCCO1UW09C3rx5s3vhhRe65557rnvmmWcAAAAAAAAAAADgFCA5QckNlrTVJKSc5Mtf/nL38ssvd8fHx34rmlKf//zn/Se0D2H/wxDtuH/RBvsV9t+/aIP9CvtvLmy3X2H//Ys2QFr4w34l9v/6179uP7OcZnn79u3u1VdftbYvJSJjEvJNP3LBb9pcL774YveVr3wluYgA69Os550s38/6btex/2Gsh3YM5PtZ3/26bgNRvp/13a5j//2vM57sdx37b75O/NjvOvbf/zrxg3W9jj/sd13sj/YjSUTKG5G5YhLyzVtIQn7xi1/sbt26lTS6Vr6d/dvfnwc5rXw7+7e/H/sfxn7djkH5cezf7f58wrDu8ew/2X7sv//9ug1K+7XYv/392L/XuvuJH/vdj/33v5/40Yv9PB+WlkFT7A/2h+mRNyLlp9m5tpqElBPIiUoXANNAJ9sv2P8woB33D22wX7D//qEN9gv23xxst1+w//6hDUCDP+wX7L9fdp6EpIH3D22wX7D/YUA77h/aYL9g//1DG+wX7L852G6/YP/9QxuABn/YL2L/O3fu2M8sp19OkoSUE8H+oA32C/Y/DGjH/UMb7Bfsv39og/2C/TcH2+0X7L9/aAPQ4A/7RewvCTHYD+NJyB+/5DdtrtDA0tgs97MMQa61PMvtLrH/YSxpx/0vGU/2u8T++18Sh/a7xP6bL4kf+11i//0viR8s9RJ/2O8y2B/2w2gS8k1bSkLKieTvQuplIN/O/u3vlzYY219asn97+7H/YezX7Vjar5fs383+fMKw7vHsP9l+7L///boNSvvDPvbvZj/233w/8WO/+7H//vcTP9iv94s/jO0vLdm/vf15TIRpmSwJCfuDNtgv2P8woB33D22wX7D//qEN9gv23xxst1+w//6hDUCDP+wXsb8kI2E/jCYhv/NDD/pNm4sG3j+0wX7B/ocB7bh/aIP9gv33D22wX7D/5mC7/YL99w9tABr8Yb8E+0tCkuX0y9Ek5IMPbjcJGU7K+rTreSfL97O+23Xsfxjr+WRh2/Wzvnqd8WS/69h//+uMJ/tdx/6brxM/9ruO/fe/TvxgXa/jD/td1zERpmeyJOTx8THLPS2lDVrKbWP57KPnujNnLnVXG8ufhuWU9j8+vtpdOnOmO/fos43lWbYup21HlqUl48l+l9h//0vi0H6Xk9r/6iUznzrXXX6usfzMl8SP/S4ntf8177vPN5Y/JUviN0u9xB/2uwwxEfbDpG9CrsNzNpklyZTnivtzQvlL18r7hasXz3Rn3nO5ey7ZHpI2becRwrksF68Wy8yJjdrATiBW2OX5y925YIcRYpuoSUmwe7Sf3Xepu+rrTmysuXi5u/wed12uTH/MXNmsDzxn73PV/VmfLtlJE3xe2Xj8uNBGgruO1A+ytsu3j7GA/lKjuR1tv3A2rPqxR8cr2yaJfbwPDGJWSn+OEV/x/Tmcr9z+ut3nyWZ9qeavmnp/c/YdsY237Xq+7a9J2tb6y/zjmLDpeB78bWx81rjyDf4YxqAVfcQR4pPYusUn5slGbbCWnQyh/Jh9kvHcUW630LcU77nUXcq3GdaZh+2LE9l/1N8axk9D2UZtY8W+WW27gq+MkNgim0MKK2N3kVJs0Ntq7bTueaZnXr4bjlkx9tnzD8usO6bMhaY2sPfs/GmKOaQlmyMmFNugPmdaSelcepv/PGDm8W0TWvwh+PpKrH3a+qJDt93QV2L8vFbug4Hgo0vri4LYX5KRqwh9K7zoM7Slx9jv2XDcc74fP6fqsl8sGltdVduq+/y5zHnl/PJy0eAYXU6feyFMkoQsnTjl2faJR83IvvGckxT2G6wT+eP7N/Zc4w0aN9RXICn73LOzb/TVbbCG/Q3h/p0N0w6m34Ts6/f7xFbxmL5zuW1S7+XuquqYfV3++mzbus9yDWPnmhNNfWDE34aEe+5t2NdV8WdDHMgKfcTtK9my940QGEM9l6QNkrKl62nZtwxaB6vgz6VY1ft/ul3sfPVi6Ae6f5l1Y7NajInn8gza3Q6C/f6Aa0vdr9QxM6alDaKfNxAHe2+nUr+pt1nA+/ZascgfIz4S2mgBE4i2PhDs0UDF96LvF9ojUvHtHt9mOraG8/lto/XPlJY2yONCnZpfr/bpOJ8aHbv6+t01Veob6X9zY9sxKPfJ5OHEbhuLPQEfy2ceQ1rHUE3w5cQuBcQPkzga46rxOWW/Yd/I7Vueq7g2LbeFq7OlnfbLfHy3n1dWUfZ315TFjtC+WTvNnbXid6E/132tdQ6Zj89i19KY3du77zP6vKEN85heaNv8Pkr+Eq6hGMOWEd82YZ2YOGz7Whv0xHG6ZkPfjy5dHe6P57uq+1rJV2rUr2suBPtLQrK+7O9ZEq3pfr/Px6HkuDhHNXZI6rnUXX7+uVgutpHqF8l5L172fdu0xfPhF6dSz2rki5/Bdc1oWUtCvu+7/7M9JCFtI9Y6Vd5BGjtC7DSXuktxcNWfc/x5S0FyQRNlzTpBTgiTEHefzu7DCaDqeLGjFfDt1d5p+gDrjpH2GPqHXFu/P7+2ebGu/ZPAJevii/nAYYgDhLHX2MRRt52UO2fqym3mjk9t2dZmekBUPqHqWb1vGaw9WcgefuL2xGYGH2tWkffB2Obepmm/9eWsL+nz+f7znkLbFnxsbqzdlyyrfc/Zztjp0RVtYeqIdm/g0lV/7kaGcXZetNnf3bPzQ3//A9/K2mRsDFFE3w59ptCmMW4l+4ZjiK43ciB9wNnAxfNgj9y38ljU5td+jPDtZeu0bZGOHRa7PdTvba7sq68xqS8cP1PWjUG5P4qdkxht0fYZixkFO1uy/jRTNonfvf+aeyz2zzF7KbxtEr/3PnrJJ29Kx8Tyfmwo+WhSZ7ZvTszDd7P4q3w2nm/g5+6Ycxd9ornC8NrmR2sbWFvsbA7p2snZK4/NlVgi50iuJz+uvN2OK5U339019eUv2zGoFONq51o+6/TJYdt7u2Q26/vRClS/jm2kbKzPJ59Lz47hXJdM35TlEvqgpt3+0i+MDR7N+kWxv4R2WUGwdZj/eBvm/dTV7c4v/aU/jyoT+1ip/8yXSd6EPDo6ssgJw+d0/Xr36D3O0E/aIFRGnLs//knfOE/GbWn9av+zj3bn7nnUBTizvG72XTT7pKGlnHw+98j19PirF+05L150yyq2vtL557Me2qClfLS/sZvdL7az9+oCUSzv7SN2C2WcPfv6bGAr2ccf23Oue/RZfT3eH5IynnsudhfNPjmvC34Xuyfz+me2vo79S/bu2+SqKn/dBzl3/7aMCWjB1rY+H9guXlX16/1q3Z3jUrSlkNs3DEjSVrIeJvBx3QRD6UuDNtNU++v813UsEzap7/ojvQ3jftsfVP/y/SP2p0H/cjGrZM/oK6bfyeA2KG+52D1qr6Nvb3tduf8Urn/f623jSb7u7z/pP2q/6nPBl/X+0GZJ/JP9IXHm26D9ehw2Pi4gfun1Nvv7MdVM1qpx3JCMF74N7HgyqC/bn/QHOZfqT2FsCeOXHDsYbxx2PuH7nhxfHa9mtt4ynjifNf27cu+WrL+v8ke9P4w3T9rz+PqKhD7l5mO6fZPxxV9nGKuEsfvb5/o647lrB2OHGI/7WFzyfxdLQv/R893heJycLxw/c//dJH5HG3qCD/Xlc3t5G8d43z9f9PX5eK76f15fsbzd79DXG8qUxo85ra9jf+dvxg7ep/T8TvppLB99V+zl28K0ka7P2cfNN2zsCP2hFJ+y8dQeq+O5J4y/Q3/w+2e6vk78KK0X/VH5cb+u4qlvo7iuyrv6sjaIjM1PnvXjuyvT7/f9zY8vSXv7Y9PrS8v39evz+eedmce3TdbXH090vArPyhdt4imULfc3317Wht6evq8l/dDbuD9f3r7hegrxIMQCQz5+DY+fx7rYXz5vzkgSMm4bJtHtfCqup0lLmRvousWWfd09MUbn9dp6lpGMrCUhP/Jnv2O7b0LqRi8vXac4d0/eyXwyUXWyZLsanNKl2i/JErMMDxnuldcQxPvJcXK8CpJxexj0fOdKzzffZR7kystgZ8EFr7g/fssW2iUMPt5u4WG8hA1+/XlckkTqUe0Tjy+0u21ffz47yfF+Ys4bJuWpX8xv2WZ/NekzpP7Y2zv6exw03P07u5aRgKYnGuHhR5/fHZ+2u76eOv1kSNd3iMumdlSDeSlODCcRZhn71zi23dQgvxrVz7SfmH4UJikhGWmXfhKY3M/Mlm3jieovVfq40Q/avl38eBHqc/2g4OcxCekeVuvXU16GpM7c45deto/nfly147mKKypZoseFsH0wDq/Yr+NaeLu3PD7r8URtt/217yfV889oudZ4Yuyf2y34ez4OrPLHfr/uX6Zf2DfEVvixfsgRTDvY+oIfxHaoHD+jZZv9w5eEQnZfar4U5pdx/Lb+OfZlXsXO0b7zHo/b40e/DPMQeQPE+V3uJw1ffgo+TifxPPjdVYkvIU75+gbly+OKxJviuD7D5frjZ+ZPav4R4keIJ85eYb5RQs8vdf8YouOV/LkS3R7xOn0/OrjnMTUfLI1HxflIHl8rDOKNYOwa5oWh/aScO4+JN9XrqfVHv93PJ0Ocvyr1Zc8v7npU+eL8Vur3/pLPGw5g2Tqey3IYZ0I/SscFPS8aJZkPhXa4ZF/0KZaX8xTGr/A8MZjn5X46w2Wwfx39UlSflO8JX1r1L4Skx4xg/Fkn3mO/GHn5Tfpg7L/x+P7Ln1CXnlPE+mfIpG9CjuGCoDOWM550NN+4zQ0/vt/Wmzd6ofEsMUiGaygzOG6GrNUGhXtMkbbobWLv3wccCUiD+oK9vT17exXaz5bxba0Gqdihs7Z2ga/kG/Oi1f56gjeG2LAfZNz9F307b5dKOwmu7VNb5vZ1624AtGVsG7n1/npaUHUsiOZ2rMUUw8CGgrJjv97Wbpa8fAF7Xp+QkHKhbV0S0i8HsXF+tLdBpU94W/WxxMUW/eVXiIPBnsU2E0b7a1++2DfMdbm3yAr1zpg2+3ubWv8PkzETR4K9Sn7m95X6zMr9oU2z+KWJbZDPF/K+twCa2sDel7eHt4/YLvdtTWkMGNsv61Jn0b8VF6/2E/L42bRDuJaU+bdFawxaZReH3G9vH+ef5fHD1VduH23Lah+aAevE70Cwo/PZMPfUdsjtlc8te5/T9fWcMw99fpuyf1petVOstz9vXyZc0zyZg+8m/T7asqe4vzQHWjVmzJS2NijbUSj6Wj6O+Zgf7aXt5z/LOPyo2NrYuByLhdDPStfj+4khHU+UTwT8L9hi2eT6fHmZF+TtHO9LlYnnOQxW+oO3VStpWzQSfEJQNg5+Md7HzLzi6qPOFwr9ee6sFxNL46/vB8m952PF0H+tbQu2Ttowtkt53I9cfdI/y81/DMqZTRKypxDAdKNE+gA4inIM3egrg24Mfjr4KmfzzrGEAXDdNnC20RMGZZOLxn7GyWWwiHbRASynOmhouw73Xzfnkp/Qu2OVTyjbx/Xs2Lmxdh/QvpX4mdjBTJjNg9yRGZRdEkO3U5k8oJUGqaSdPe0T0fF6DoX2dqz7dn0Cmdt1SN9uLbFPt4GUN+c0fpN+09wnH60vVfvqfGhvA3kw9HYN9xXvPfNzM4CnCcEQb1y5YpsJvt3ydq71Abdd1RPHmLTcnFl/PC/5auGeE7+sk9h6Zb/x5xnUHZLvZr/1EbVcQFus2wbFOF4YN8fGkB7dJ9w2l8A3n0McMXVLXeELXIlboW6dhMzPX+1nM2Mz+7v7Su5R/NI8nD8p2808s7fLWHwfxpVY3tt9znF8/fjR+1o+j+l9aMxeCl8+aQMVg3sf7e2Zli8/m0hMSuq01zRP5uK7rq5SmZ7S/Kn2fOiYv/2FtjZwdtzJHDL0HxMnkiSkaj8p584T2qxwPXpc9X3F4dvIx6E+JgXfMHX663V9WpXXdUbkXtM6+3Mtn3X6pItRegwI/UFva+tfgm3P3ObRxqovJ+1r8HHTfXnTv8wQr8HWmV7TXBH737p1q7gvIPvT/qDxdir1gWC/Gt7WT1xIt4exrm/Hs1ls8/VfvGjPffYRlY/xZcRXwnrL/ZW2B3a5fzQJ+eb33uc3ba7QwKt5onf4C08k+64/cjY2jm2M62b79Ue7s2b9rDGyLtvj61N12YaWRi+Uy+tx55Rzqf36nCvPPx/a20BI7eY6x8XuiUo5bYuLT6ZltL3zTjZG2abD9lwK69lf+55ZH/EzV861TdG383aptJNQb+ee5LoK+2/dagi8C2y/wLqxrN5mYzY0POknaIV2iti29O2VlHfnzts8aQPjJ09437no/cauD2Lj/NisL+n7L9t+0C5it3vMurFjrc1cn8m395PCvC8Nyo/0x7nSbH/ld3k/SMeCkg8X8PXZunxZx7BdhKTNbPmzpj1NeRt/1Fji94VxfgnxqbUNejtnvpjFBNc+3m9HYoAeI+RzaFf72fSVvk1SbJtGX/fnKdjZtdmw38yN9WJQatdaLInllH/m/aZmH9cuvk7dT7Jyc2Dd+C24+85ig+23NV8Z78ul2ODaQ44zD9TGhvr4vnzuu3071dt1XszFd9O60vOUfLh47pn7eo22NijbUWjyNT9G1sZTW4ex96MSO0y79WNFTmiz/nqeuOC2hbhjx9WkL6btacuFtpXrumA++y+I3fWp8nGc8HXF/pn5yAHR3ie9DUq2Trati4t7T+T9MNj+SWmTtP7QpuE5Qton8Uvvf0vom2L/UnIsZ70kZI6ybWG/1G0ThqXkvKlXJxQtPnEcvjA7Z8rEJL+9jt4v5p4IriYh3//d20tCyomksatLY1AJPH3gqyBZX9+IzsnPWYdfWb9f9t/I6O19cNXlXYB1HS9s198uSJDU5ee8DEGupbwLJP39pXZwTi4dJLHbWPsN7N3XIz8PtcdJmew6Qv3FOjVmAE2Pm99yHfvH+w52M4OyBJvgn2HyIPbSQdG1UxnXXqZ+307ubRR3XDhv7u/BD9po6Yf+vhbQXrVlezv6gcG02RMXzKD8bL/f2VXZyw/WrYR+GdtH7KkGrmS7vx7rJ96ftP/EfmjI499cl03jiV76/mNtIoR+lZUbtIva7/pZ2o6x3kF96eCv63HfYvfoN25c/0jHmzkum+zf+FbGOTOen/V+6uy/3v0X28Uv0/Z8sntCJb903NTziLH65rRcHYeCD65CvoQI96vG82q9w2UYdy6aB1PpC/ahxPizbNdvQob+0ich3Tf48VrMsfrN/tbz72O51niuHsZkPfVLZwsZJ2LcsP2hj8tDUvu4+sSu/XmdH3u7165rT8u147dZjt9P4zwxEPu/9/vic4SOyzoulPuVtN/Y+DGn5Vr293Hc+WceH50tnF97u8RxbGgjx3rzy3DeWH+ct/jr8/PZvlzlPma2bIsffTx+8mLqV2k7mO2N420gmScKFx+19nV2dOeVeOLOE+KNalfz7PDEk37+I/Fq0A5pexWfu31cdHFLlc/naxa5f1VG13MAy9bxxLWHsYGPS267t4seFzbwB1efbjdtb/85nrePj86PsnnbVeNPxl/dfHc54/kq4r0aH5V5a7/P9424LbRJI9bevi7VL4afTZ83du2vRdb7ONFfjzn/I+Za5DoH++bHjN6EDN+sOIdO91UaWTdeA7b+wTGFRvSNV3Iq7Rzla50f63Uyfd9ZmyROrezmt1vb+OPisZm9+8Ev2M63repgZXIfWA7tfaBgiyyQ6PbQA0DRt/N2iX6bB6bg3+P+3Ae+8v5RsvtYIs3t6O8170uCa78VNtSDT2m/xbWZDIbXY/lyXLTt5rfFzzqG+c9LaJv2vtTHbHdvTyTruW3HfDuJgZbQT0v9xe+LbaCuoxC7Yt0L6R9r2z+PScLgXjeL7a7NvG2L6Pb015Ofw/r+hjFtTzS3wUgcyX167dge2tC+AWmOkzdbTFvbJKSxsdR/8UnXrvb8OiYKY30h2z431rW/7gOpnbXfa/902/NY4I7t7ePsNda+84sn7fGjJ/Tz8fFQMx5PhnEj9/v0+L7NKjEkKZNunxtz8d20rmysyMeH2thY2z5zmtpAx8vM31zfXuFrI7FfsPbP7O3KuvaTz0mbheuRY/RnXV+sw7enlAmospbk+lT7J9eiyXzkgGjxhxDPh+NjsPVw3EzbpO+X6XZNb2P7hqz2Md1eqo0SH/HEcVzKScL6QGJi3wZZ3wv9oTAu9DT6b7DzI3md6fH2WuznQrz11yPbpNzc4+MMk5AjxAbpA2Vexxix4cIAWyF0rvhQb7aVGtJ1wBWDwQxY3Qb9fQ5sOrBVCDje+S9cdJ1lDNNufdsOg2V+Hm33JkY7//5p6gPh/gdBamiL4IthALA/qVX7h3gftcGp99cwGAVWBau1/D0E5oRK2y+E9liWxae8D63yV1++HN9c3Ul9VZy983aO6OvIfGOurBPLav6m7RFsPPTtzM7RVqF+Xfewj5bbroQ+z/z7R3sfWB3DY7zZ0PfG4tFwn7+eQTsaVk0MZ0ZzGwzG7pze3+z43DyOGtvJT+rMZ2tnOU7OZeyok5DuHL4N/Hgw+Dl2Nk7MfcIstNg/3P/gfgbjYvDRYJfsDdESxs6/bOtf0WdC+ze36+5pjx89IV6vHVMr953EBmsj9zmcx9HbdhhLArUxYr7MwXdj3CjtV4Tzu+uRc6mYXWMBsbytDzjf2s0cMkPeppJkkV2v+LSP72Jb2x4FO/f9xLfToHzWfrGOtLyuM7/v9hiwHFb6g+l3j8ovDYrzw2BTtS/0U23/gv3cdl1n2j55/y/GwUFM8Cwg+RgQ+9+8edN+Hlva+7/nEWvTmzefSX3Z26V+vC8fj6+Ue0L7u7Fhsr8f1/Rxun010n6D+me4nCQJKSeC/UEb7BfsfxjQjvuHNtgv2H//0Ab7BftvDrbbL9h//9AGoMEf9ovYXxJisB8mTULKCXXjsz7NemiDbdXH+nrr2P8w1vPJwrbrZ331OuPJftex//7XGU/2u479N18nfux3Hfvvf534wbpexx/2u65jIkzPaBLywQcf9Js2Fw28f2iD/YL9DwPacf/QBvsF++8f2mC/YP/NwXb7BfvvH9oANPjDfsH++2U0CfmmH7/kN20uGnj/0Ab7BfsfBrTj/qEN9gv23z+0wX7B/puD7fYL9t8/tAFo8If9IvZ//fXX7WeW0y8neRNSTgT7gzbYL9j/MKAd9w9tsF+w//6hDfYL9t8cbLdfsP/+oQ1Agz/sl2B/SYrVYP/u9pOEPAXQBvsF+x8GtOP+oQ32C/bfP7TBfsH+m4Pt9gv23z+0AWjwh/2C/ffL+M+xf/Cv+U2bK2/gGzdusD7xum6DbdTH+nrr2P8w1qUdt1kf6+uvM57sdx3773+d8WS/69h/83Xix37Xsf/+14kfrOt1/GG/63lMhGnhTchTAG2wX7D/YUA77h/aYL9g//1DG+wX7L852G6/YP/9QxuABn/YL2J/SUYGZBvr061PkoTUJ4TpoQ32C/Y/DGjH/UMb7Bfsv39og/2C/TcH2+0X7L9/aAPQ4A/7Jdg/JMdYTrskCXkKoA32C/Y/DGjH/UMb7Bfsv39og/2C/TcH2+0X7L9/aAPQ4A/7Rez/2muvJdtYn259siRkOCnL6Ze6k7Gcfon9D2NJO+5/yXiy3yX23/+SOLTfJfbffEn82O8S++9/SfxgqZf4w36XISbCfuBNyFMAbbBfsP9hQDvuH9pgv2D//UMb7BfsvznYbr9g//1DG4AGf9gvYn9JRsJ+eOGFF3y2sNfWk5ClE8N00Ab7BfsfBrTj/qEN9gv23z+0wX7B/puD7fYL9t8/tAFo8If9EuwvCUmW0y9v3rzps4W9tpqEFMlJJNt5/fp1++olAAAAAAAAAAAAHD6SEywlIEVbT0IihBBCCCGEEEIIIYSQFklIhBBCCCGEEEIIIYTQTkUSEiGEEEIIIYQQQgghtFORhEQIIYQQQgghhBBCCO1UJCERQgghhBBCCCGEEEI7FUlIhBBCCCGEEEIIIYTQThWTkPfee6/fhBBCCCGEEEIIIYQQQtvThz/84U7yj3c99NBDfhNCCCGEEEIIIYQQQghtT/IWpPwSmyQkQgghhBBCCCGEEEJoJyIJiRBCCCGEEEIIIYQQ2qlIQiKEEEIIIYQQQgghhHYqkpAIIYQQQgghhBBCCKGdiiQkQgghhBBCCCGEEEJopyIJiRBCCCGEEEIIIYQQ2qlIQiKEEEIIIYQQQgghhHYqkpAIIYQQQgghhBBCCKGdiiQkQgghhBBCCCGEEEJopyIJiRBCCCGEEEIIIYQQ2qlIQiKEEEIIIYQQQgghhHYqkpAIIYQQQgghhBBCCKGdiiQkQgghhBBCCCGEEEJopyIJiRBCCCGEEEIIIYQQ2qlIQiKEEEIIIYQQQgghhHYqkpAIIYQQQgghhBBCCKGdiiQkQgghhBBCCCGEEEJopyIJiRBCCCGEEEIIIYQQ2qlIQiKEEEIIIYQQQgghhHYqkpAIIYQQQgghhBBCCKGdiiQkQgghhBBCCCGEEEJopyIJiRBCCCGEEEIIIYQQ2qlIQiKEEEIIIYQQQgghhHaqmIR80w/+db8JIYQQQgghhBBCCCGEtqeYhPwre3wT8gufvtW9+9O3/dpxd+Fnb3VvqXD5BV9M9MJx9+6PHXdf8KuJqvtud5c/dqu78Fm/qvXZo+4ttfqs3LXFa5BzmPViXVbuXP01j9+bJTl/frzSymtFCCGEEEIIIYQQQmgemsXPsYdJyKPuml/rVU7IXXtcknd5+dZEoysXz53syxKORu5cbcRzr0hUyr2/5fFjv1ZQ6XgSkAghhBBCCCGEEEJoQdprEtIm4FTiTnj3p9dLQg4SiUY2WVhM7Lmy+nxSX0wEhuSeTfxl1yD7Ctcl59LnLqpUn1c1CWnPl15rjfqbmAghhBBCCCGEEEII7V8xCfnmH73gN02vNJE3/pPlkIRc563E+NbgqjcIa/sliSiJzlLdJdZ4S3E0CZltl7J5wlPsQBISIYQQQgghhBBCCM1ZMQn53n39HNv/3DhNQq7zJmSvUpJOa5C4/Nhxd02SgHpbxuUX5LzmeipvM9bfhEzfuqxdN29CIoQQQgghhBBCCKFD197/JuQgMfj40c6SkE5pPdUkYH4+nyxNrrVG8ibk+HWPJiF5ExIhhBBCCCGEEEIIHYBiEvL7/8oekpD2bb+j7nKSXFv9c2ybuCvsG6Ovv5CELJQPpEnIdd6EDDpBErJwPSVIQiKEEEIIIYQQQgihOSsmIb/zB/+63zSdJIEXkoppEnKTNyF98nLk7zEO3rqUBJ5sa3kTckVyNKeW9Mw1moTkTUiEEEIIIYQQQgghdADa+8+xRdtIQsY3Ej97NEjUpUrrsUnAQhIxkCYhS9el5epOk4L6fKaOLElaTUIWVEpCIoQQQgghhBBCCCE0dx1AEtJt14k8m9irvhEZ6pGl+yl4+5uQJ0hCftr9vDpPIg6TkK58ngxdycgboAghhBBCCCGEEEII7VMzTUIWkmwenYQMP68u/hzZ/03F4ZuDff1y3DAJGFRKQvbXMUZ6Pf1xwwTq2PmHSu2EEEIIIYQQQgghhNAytMg3IUeTj5lskk+SgCHRJ//AjHprME8Cpn83Ul9H7bq0Cm9CZucTpecoJydLIgmJEEIIIYQQQgghhJaoWSQhEUIIIYQQQgghhBBChyuSkAghhBBCCCGEEEIIoZ2KJCRCCCGEEEIIIYQQQminIgmJEEIIIYQQQgghhBDaqUhCIoQQQgghhBBCCCGEdiqSkAghhBBCCCGEEEIIoZ2KJCRCCCGEEEIIIYQQQminIgmJEEIIIYQQQgghhBDaqUhCIoQQQgghhBBCCCGEdiqSkAghhBBCCCGEEEIIoZ2KJCRCCCGEEEIIIYQQQminIgmJEEIIIYQQQgghhBDaqUhCIoQQQgghhBBCCCGEdiqSkAghhBBCCCGEEEIIoZ2KJCRCCCGEEEIIIYQQQminIgmJEEIIIYQQQgghhBDaqUhCIoQQQgghhBBCCCGEdiqSkAghhBBCCCGEEEIIoZ2KJCRCCCGEEEIIIYQQQminiknIe++9129CCCGEEEIIIYQQQgih7enDH/5wJ/nHuyQTuQ3dvHmze+GFF7rnnnuue+aZZwAAAAAAAAAAAOAUIDlByQ2WJG9CCltJQspJvvzlL3cvv/xyd3x87Lei06LPf/7z/hM6ibDjyYUNlyPaqi5sMxQ2GQqbDIVNUE34BhoT/rEdYcehDt0mcn9f//rX7WeWLO/cudO9+uqr1i9KicitJiFffPHF7itf+Yo9MZw+QvCBk4EdTw42XA60VR1sMwSbDMEmQ7AJ1MA3YAz8YztgxyGHbhO5P4RySSJS3ojMtdUk5Be/+MXu1q1b1hFFLE/XMgSf1vIsy0vsePJlGOjDOsv5LvH3+hI/Hi7xl+ESPxku8ROWtSX9heXYEv/YzhI7DpeHPi6FNgfQ3L592/40O9dWk5ByAjlR6QLg8CH4bAfseHKw4XKgrepgmyHYZAg2GYJNoAa+AWPgH9sBOw45dJvQ5lBj50lInO90Q/tvB+x4crDhcqCt6mCbIdhkCDYZgk2gBr4BY+Af2wE7Djl0m8j9yd8BlM8sWerlJElIORmcTmj/7YAdTw42XA60VR1sMwSbDMEmQ7AJ1MA3YAz8YztgxyGHbhO5P0k4AeRMmoSUE2rHZP3w12n/7ayHIF7bz/rq9Xyg33b9rG9vHX+vrwc/3lZ9h7COvwzXiXfDdW2TbdTH+uGs019YH1vHP7azHuy4rfoOYV1sss365rae9x2AAG9Cwk6h/bcDdjw52HA50FZ1sM0QbDIEmwzBJlAD34Ax8I/tgB2HHLpNaHOoQRISdgrtvx2w48nBhsuBtqqDbYZgkyHYZAg2gRr4BoyBf2wH7Djk0G0i9yf/QDFAziRJyNKJ4XRA+28H7HhysOFyoK3qYJsh2GQINhmCTaAGvgFj4B/bATsOOXSbhPuThCRLlnpJEhJ2Cu2/HbDjycGGy4G2qoNthmCTIdhkCDaBGvgGjIF/bAfsOOTQbUKbQ43JkpDHx8fJMpBvZ/9h7af9t7M/t2O+f9Xx7D+2Nhzbr5fs3+/+WtwIy8Bp3B9sU9sf9p2m/cTH4X4d70r7S9sPfb/uO6X9q45n/+Hu1/2ltF8v2X/69uMf29mvY3Bpf9h3mvYHm2x6/Nz35+MuQGA+b0I+f7k7d+Zcd/n5291zj57rzpw5U+XStf64qxfNtotXVV3PdZffY7a953L3XNymthfqiwyOgZOyWfC52l2ybXKpu1rcn+PLN7Rf8K1zjz5X3J9w7ZLzC/Ev/1n73pSsa0fbL3L72T7Wb1/VzyJJ/+qJx1f29+j2Cf2wtW23R6sNW+1S8yFnexfLSvsjoT2a4o7uE/7zSrsvl2Z/t/3S+ZKzew3dHs4H0/Zrs2k8x0ibOf8J56uNO5v7/7xsM9wXY4+cf8ROzf2kgc3GmbytKvjYP+zvq3wmtP169xjij4w1YqOmsarAZjbx17wiJlXbrjZODrb3thu/R1+uKUaupsUm7t4a0W2v5rBxW80eo5TaQG8LfjVkX/OTQ2Ct/rJuTPBjvW4f28838OtSzNLbQvwYUI1T0MKmY0zrPC9t11Vji9uf+J/1yQ3mFaUYpbf5zwM2jMnr2dHbYdV9WRsPy4RYXo6LQxuPl1esNXdfzSaxp3huu68wLiucn7X4SdtcoAW5P0lIjrHuuJseZ+5H1RW56mx17tFnh/sGPBvv99niNv85vxbDpau6HliHSZKQpRPnPBsGzsQB9D7TsZ5Lt4uDXL3ojgtOFuo5Z5w0rafkYC374CQ0tb8PFC2UO3sIDiUf6Yk+VsO3vw6G4Xxu23j9u6TFjun9ybU+a7ZltrXB22w391HvVwFvVxXwI1mbjQdhP9gngbwyaOyQ9WKRsou/13iPz7kJSG1gizFobODzdWgbpvjzazuHdlhrYF0mrW0V+2rBR+uTk+CDef8268amtTFAxwV9bKQYx4IfhYeGk7fZLGxj71XurZ/IhzpC3ZdNmdhPVvq7YoNxuMkmG15D3VbDe89pigUZ4ZhLV/v5zXh8LbP+mDFOfw8j9+37QOI7Ystse1/HZX+Prp9sdj3ttPadBH/tK88X/Sv4ir9H6QtmLI7lfH2atH19H8z6Qe8XuqxnYF9Yl3V8ozUmVP3Z+H2Isz1SX/AZRdbPXJ1qfiIE3yvGopH+Cs00+0ehf5eRNnR9XWKLbtdqX6/VbWLFZT9O9/T1J9vz8bUYO7zP5GUt5fjUSns/K1x7jvLpYp8c6xfhvi+uaC9/n67+FWzYxza2iT2fag97T86Hkus15aqxqBjH1Lk2bGdNuD9JSLYv+/NLEjTfX74fc+9X03me9K3nnn+u2Hck2bzqfLov6vPbpUrWJ9tZNi9nk4QUbGO/x3QIPbiG7b5jxe21YJzRB9axDrW9zgYpTe2vAmdo18GE328P7VkPqJreZ0JAHgzqoe3zfX7wsttGHl43eRDahBY7OptkA4q2rd5uaLOhIRtY43F+e1hPbevs6uyjJzTB3v467fXVBsHt0hqL3P0om2W+F/whtv2If2hieV9facKS29bhbWa39f464IDi1zrjhvTtc+becx8qTUrbfD7vL73NXRv264nPD3xZ/P6cuTZdt6fQ9q3MwzbBJy8NHnB13fb8Zl/ul67MOfMAUIod67OOTTSDvp4TH2JKSQONqePX2+KAxbTJP2+yt2eDvr2ZTXy7jpwv+MmlR1fcr9QRxlH/oNe3s06MuH4iSdf0XGHcMD5mbX/ycWIjm/h4fe7Rq8Y2pWsYicmaYFM9nmT2GSDHhPLe3sU5h64z3wdNNPvGOjEhxJXQzqF97Hq/38ZD6x+6X2QxdoAcH8r7ayn2W11nvg9aafYP2xdHxpQE18bSp/uxqB5P8vjZxwK3Hva7uiRWpfHc+VmIp0MkBofyLqk5Eu+KvraaNjtmNlC+289T8mtzx5wz/cX2zwrBZnqe0tdRp++jpf3+ejfsY62+FeZN1rd8zE/6fuZ7wVZ6zOh9I9RRs8H24sZ697eC2Aa6Dzj7J2NqPhbqMZJxdzZMloQ8OjraeNkHZ7X96kW77dFn9fqZ7uJVv/7so9Zx4vrR9TSolTCOd33kOliuv2xq/xA4s28wUi7aQBmOu/6I84nY/lm9er/zH3+8+Ilq5yd90Ov95KgSCJ3/2fL2+CddAHzkevH821622LEfnD1ynXk/GZTP+tWg3+jl1e6ir3uw3/e/M/c8ageII28ft+6Ps3YL/dC1h7N/vR23uRQbtpQb2LGCDEr2OD+gxfW8Xr0/sa/YRdnfD2gy6Mfjg10zrN+FfpP4pTrvgpfbGDdcPy7FjUvdk8l6Po6odd9e1uZJ+6rxRLeXKm8x/m8n87Ff+Ou6+KSvJ9TXvmz147Gl63e9HWR7Eifjeu6f/XrST9T92PtT95ucP9qn4PeGctxZvdzUX1aNI2F8KLeXj2u6/ZPjNoxrq+JJ43IzP/F+XWu/ENcNMvEe7Pfxqm/HdN7Vbx8fP127pNfRj8up366z3MhPlH9aBu39bPfoPXq7X8/nGWHd12ftVxxvs+N1eV/fYDmwO8t1l639Jfphod/H/hHiRT4eWM51F+XLl+gf2n/08blfufOkcTk73+B6ZFmPUyzbl83xNBsnh/FAr7v4KHEwtqv/9VI+v3T9v4+/mosXpf/3cbGPN2k8T+JQcr2h/lXxX5b5/dTKlZctdizFy4TM3+14UfJv3/8G40zol/Y+++eaIX079uPPCKP9sL5sGZcG8zGz/UkTRy5fNdcf2kPPX73fWLsU45CidN3h+A3bWS/D/a3C2ticT3xP/Mz6YnVdlVf3qvtLUr/y83KZrH5dPpbJaCkDo8zjTUgVZCTw5vt154vbS4GpAM6xX1qDj2tP/9aQBBK/PTzo5n5R9ImV+32Qsb4R3lCq1FEJLjHo+eutnX/btNjR3bP7Viu9znDPPXJf0UajyV9vAx3k4zkrg4K3S98G/hs1Wy60gbnOYp27o9UXB76T+4K/7uiT+XpOZb87j9jC7HuP+1yuo/KNZPRB/Y2g2r9g2v3d2a8U550vpt/y6mPq+Lav9J0yyp+Vn0ubhL5ok5FheQKfn4Vt4nHBN2tv6xjEHtGW/fExRoW6Ypn0ulpYb5zx11Uh9qPQnoJtL2lTff+VfmnQcTDft5JV8aSRVpu4ax2jv4+BX8m1Ftpw4HNhe+3NA0PsK7Ie6xzGtlhmgz7U7Ccaf+36+tL70/OKEcI9aRv5tr5kHiTlbVBn52xcVeWLbSV2qNkdmmnyjRPEhB7fvuENJr90Pq6PD+XC3011fcD1wXBOVd77QIrE0pZrglWsN8b4t/x9H07aLPiQamNp28H4G9rL19f72BAbF8y5hnOMNJaEclflXEn9IXao8trXI3IdaZ35tayiPQb78wyuwaHHBLnWoo/7e9BlhWjrNe4h2K5c3l9rfv5GVtukZousPZSvJP6krttt93MsW74y3/J+scr3WpD7k4TkKtyXtyu451GbFK2VPXfx4tBv5Rj1RV3/5d+T9kUQSdpKAt4m1339+ou94rkuPpmUKd0PrGaSJGTpxEPEGYwDPXJ9sE+/rRC3q4x/v66cITpZv68VHGp7NLW/bSvfluEbG9PBw9sQzT7RuD8GFAki2T6HD0YFX7DHhiA1IS12dPd80X4bGq9T9RO9vy9v9l0d2t/dt+uTiQ18X3JtkgXtnNiWF903jbZcsO3F7tEVbbhtmmNRY2yJfpmv54ztj7Gpb5cc105ix8xf8+s8IJrbKvHXFNfPU7tW+0DS1nWbDsoXkPOeu6cvF/rio3pZjT2rmY1tou/q+6nHzpQnuycfWdFv1qDZJkLRLuG6s/sz7Shl7f354/p45+JjqS2dfSvE8v74DDcx1uU2Yx2b5G1vGdyv9m1nP3ecakPvE9q22hZxe6g7P2eOscU2x4m1/CTg78ndY8FPwra8D2R2i+u633jcm0yhTHa8smlSjz5vwe6wHk2+IXZeKyaU+njwndxvKuXD/Mkfl8ZldT7rA71f9n16O/HktNMcO0I7PKL6pO6fSV91PiCxJbarmY9ftDHWxUYXP0Oc9D4j7akI/T6ND5Xy9xh/8ttq12PryMfJ6F+qTDxPOy121GNGyW+L+/PrVdvSOYayib2HUh8N9P0pOWeNDftYm2/56w7nKLVH3NYfF3zCzjtL11wZg/X9nnSO1tp3wrUm41t13ZPfs/IDdw/+/ryfaxh398/Ck5DOkcbQzlGsB3ZKe/t7Su2aBx2Da8us3IBCMC6W8/jzDOq+aAK4D05JIqFwXbuixY6D65brs/Z0dnD7+wEn9gebhFTHZSQB1rdP+kCmSGyS7bf7wjYzkfc2nZMNhTbfUrEqPIisIIltK+OX991B3Sp5aye5anlAca05bpQmnp5kAuJpa1tly5a21T5sy5s2MhPDpI1NmZB8tNe14WRVmIVtcv8N96PslY/lIf5c9LFzEEOlzg3jwVrjzLNmruHjUrBNGBvSazZtlScEk/hXe7gPMS6b3Hvb5HaJNov1qEmuLrcm69hExgnXbuGaw4NZFleMPZ70Nkhtl/pFbtdA2N77Wh63wr27xMu5R8wDuV32NpM6BzZsZC0/CSRtLtu8baKvZuNcjVBe20j10WCTc4886eorlM/taRE/yewO69PmG5vGhBK5H6lt9ngVB0KMMGWftH4S+o0q768jRfrzOtcENVpjh+vH0j66ffs26PdLedfG4jvJ9jhWDONfnRCH9Ljjt3kfs/FDX4+UTWKHKh98LkGuL61zeB3jrGfH/PwpZbsEO5Rw9r0udo22yI8v09uutN+fc8M+1maT9BzOPtLWqj1sW7p7dOOkH0vUdfXH5fVren8dv+825P5u3bpV3BeQ/cXxLcdfS9k/zL3759l+vHT3eutJ5eeFcffsI0/0dpRrUv2ieF1iU1Wm5f5K2wOndf8kSUg5ebiA8Hm4/oR1+rMmqOT7rz9y1jT0Wdux+vLZ8cHBnqzsN6x0cHE+VX78ellvWW9tf9fG0g6mna/r/c4vYhtdeMLue+KCrF/snvDH9+V1fSYgmbpcWY9q4768CuJm3Za/56wLUuJPKni5faZcg79tcz0MUrX9Qhhcgk1kv7OD25bvL5W/df3R7qy/r+L5/H1LP00mLGF/Vt6e39hS6nTl/DGyPqH9BO2LQq38IN6o9rfr3kYyASru98T6dXlf1uH8My+fnN+WN/bzE4nYH0w/cAOg9Be/ze4vnH+B6y3+btdH/DVMQBL/VvtlPdratEOxfvksbSC+m5c3E5mz/rMt7yckCaadXMzwbx+EdWm/2vlWrAc/XlneXl/fx/R+FxN72+T7BRcf1P3p/cbu52x/Vv5o9jv7mHqDzUL50O+VPZ40/q2vI0wGS9e7ar3ZX+J6Nq4Ixf6T3p9sl2s+a9bjg5z53Jc3x3qfHNTn/SPMccbKOxtp++XXv3q9Nd7F9YL/FuPzIN6Jjc6a9T6+hf4o/mDvV22PvmDu19pS2yP2Z2d3a+fQBtY+YfzwDxb+2uLxK9a1TVrK28/+2mO8F8T/K/E7n08M9mv7xfuV/XKcsaO59+R4VV77RRx/xf8S+2bnY92yar29v2h/dPukXc6Z9XI8NOs5sj/2Nxf/XP36eNW+Zr/ER+kPT4QxyM5PVPk4H3DX1M/vhtcr1O+P9dJ6q3+EMVDiUz9fCHHLz+WkD9vyvm0iffv1z6vKP3w/HyD1+fE+1OGuR8Uis57ED/GXC+azemMzKZ/PH6J/qTJme37/q9aDHVeVT+cf2Tlt/O3HjmF5X5+Pr+55Ja3f2tfWl7eBptQeI/i+Kqy6P70uNlld3tvAtJldxvMp21j/cNcc5lPCRf+rk3idGWG8DueyfhLGN2/DZPyz17Pqevv1cH+rcffiksvqvtS+ft1j/dJcq4mH+Xp4BrAJV7vd+blOQrp6z5nPK778y6/DxNOkTrsP1mWyNyG1U+oL6Le7QCDBQv7YanAo2R+Dix10TXnf8K244Dp2fuXcxf2rjmd/bX9L+zcFd9P+8se8+8m62eYnVavqd8tyAHP7s/aXtz1CkHrS75NJnikfB3F9TKxn7Pwn25/bMd8vyzRQCul9hUlp+AYslK+/pu/xx9vz+EnQYJBQ1+HOra9PfSMc2sFfh77++vHb2S82HNsflnrgstvVQGPXvW+EQVnbNdQzVr8s3TFukM/3x33+IeNJ83BvbSYPOWqC667LxUW3va8vUDv/3PfX4kZYBsJk1PXTfrIu5O3o7CrbWgj27+OTtHe0s9mnt4frsvFBJifh/D5uhOuU8nrCkt9XWI7tD7ap7Q/7YhLS+k/qn8E2wV7uvtz1rcbdvzufeghW356Hz3Hyrx4a7LklFqjrkTcTkm/0zTZXf3pfyf2p9Zb4mO8P7RfQ84RAen/5/v5+df2h3sG8w8cRFztD/Wa7b6d4Leb+49tO/mFCP0SFY/V6vhR0vCvtH2739xPRyRG1zOOh3q8SZsXtMn7r4+32Pm71/SvzH1uP8Y9HTDtk8Tc5j18G8u2675T2F49X7Tbc733W7G9CfFvff4xf+vyqH6jzS3n3cJgh/qftm1yfrrdfsn+4X/eX0v5+We73bunjhR8D8u3Bn2MbS1m1PT3el8nOk88PbHmJT95PUiTuD683oOvVS/YP97f5h+q7sj7o35l/2P19nA/zOdmn5ytpfJD9/jxqXErGs+h/6fX0zy/q+nU80uXzccki16fKDO4/XF/NPu3zl5b5Wt9v0vsMdeh5hyvX19/PQ8r9Q7dH6fqc3dJ5VbK/sL22P9hk/Hh/j75th/vNMoyn1ofCeJ6O4+6+ytfd7w/+4LaH+eGm40voO03EsayPbfVypn18Et3hk/z+nt146T7rMVL8ws6N5XOsM/VrXb447sp16TpjPbAOk74JOYp3iti4ap9zAONsJlDr7QkncoYVzg4bs277y2CR73MBULX/Rm3tA4y0c40QfIRikPK+qMtNxGo7Dn04DBzBpm7dB2RfXvYl9xT7obO3PUbfr7e9qzML2lX8tdlyoR3CdUxHmy/qa/Xbcn9LbLBZ7AhtU0fHO2+z/Bz2OlbExYXSHDd8Wwhp7Gjzs0FsKdL3lb58ud1tX/LbwufY1san3FssJ5u0zNE2/bfzfZ3J8cpXhzFUxREpl+xro9kmgrKLvV69Pjj3SP8ujFmhrVN7p/vyOFK0sarb2muDeLmOTdw5POZe9frgXvx1l3y46jPhmEf8+BLtqdrerPe+0fe5WEdmk5KNV7GWnwT8tbefL72nwX7tb57Ultnxyt69fXT5tEyyHZpp9411YkLwY/ezWrcMD8quXBoXfN2a7DxpH1PXYn2g0PfGrheaafKPMH+u2Xqkn+p2DfE3vgQRj/HrYbz1y7P3OB/q/SD4YH98JI8fyTWp2OPvZXitWXxak9Z+lvp5ds68nw36nae23ZCPNYmNIv78sV3932fV7Wv3me22zdYfp4U2m4S2D+cutIOOAb5dLep6nV3L19n7XX1fyZarWGvcDbZWjPqgvufYTu5+3TX7e9X2KNab2VP1i95XdPm0TLIdmplPEtIHgtiYucPoTl9iLWcoBZ0Q7GCbNLd/IfCk9O1jg2gpIIxSCNhj+/z1RH9S17dJED4pK+0oSRFzD6n/y331g00y+Nj7cZ9dgPU/F412Vn3E2mVsoM4x9RYC/hhTBPEmX7xuHnCNnZI2jrFF20Dbcf3YkU6wVu3z/plPPuQ61u4Hy2C9uJHFhthGq/vqWDvoPr8S3w5hopYz9Ke+X67LLGwTSeNC3o+TSWCgFhtO4MtNNlHnLd97HvPUtsEk3pfT9vH1l2JHZI171OdZ1VYlWmzS+2ulnUs289v6tlbxSCjdY2KH3PeHNhaa+tKaNPcdTaldRynMJzTafj7G2M+JjZR9B/YONNgdmmn3jXViwhPdE2ocOWvmWSEBqdvTHS/9Qtetx30Vm+J+Obbcd/o6wzGr4jisotU/xO7pXLFG2iZpe6Ux0u0z5X9N/KmvW/vTcNyR+tNY5Ob68rkWO0ZiVy0+rck6dtTnKxHu2Y0V6n4LZSMDW5T7ULS5aSNXv7RJvf6Vb+6NcBKbWBvouaq6v9BG7vpHMNfc23B43kjwgTXvUe7v5s2b9nNt2V+juwa9f3D95vx2f/RJ0zZmPdhH7rs/zvWlm0/4cfQJc5wad8P2gN2fl1fXefPmM1nfecTaW18vy/ZlPQn5ke6uN/3IBb9pcwXng9MJ7b8dsOPJwYbLgbaqg22GYJMh2GQINoEa+AaMgX9sB+w45NBtIvcnCSeAnNE3Id+8pSSknEgckeXpW9L+21lix5Mvw0DfWp7l/pb4e32JHw+X+MtwiZ8Ml/gJy9qS/sJybIl/bGeJHYfLQx+XQpsD5EyShJQTvf766yxP4ZL2384SO558KTZsKcdy/0v8vb7Ej4dL/GW4xE+GS/yEZW1Jf2E5tsQ/trPEjsPloY9L4f4AciZLQsLphPbfDtjx5GDD5UBb1cE2Q7DJEGwyBJtADXwDxsA/tgN2HHLoNpH7a01Ysjxdy0mSkHIyOJ3Q/tsBO54cbLgcaKs62GYINhmCTYZgE6iBb8AY+Md2wI5DDt0m4f4k6VSD/adz/3gS8scv+U2bS3cuOWH4zPrpWKf9t7MudtxmfadxPR/ot10/69tbx9/r68GPt1XfIazjL8N14t1wXdtkG/Wxfjjr9BfWx9bxj+2sBztuq75DWBebbLO+ua3nfQcgMJqEfNMWk5A3btxgeQqXtP92ltjx5EuxYUs5lvtf4u/1JX48XOIvwyV+MlziJyxrS/oLy7El/rGdJXYcLg99XAr3B5AzWRISTie0/3bAjicHGy4H2qoOthmCTYZgkyHYBGrgGzAG/rEdsOOQQ7eJ3J8kJAOyjXXWhdEk5Hd+6EG/aXPlzgenC9p/O2DHk4MNlwNtVQfbDMEmQ7DJEGwCNfANGAP/2A7Yccih2yTcX0g+sWQZlrUk5Ef+7Hd0dz34IElIOBm0/3bAjicHGy4H2qoOthmCTYZgkyHYBGrgGzAG/rEdsOOQQ7eJ3N9rr72WbGOddVmOvgm5rSSknCycMHxm/XSs0/7bWQ+DVG0/66vXtS8K266f9e2t4+/19eDH26rvENbxl+E68W64rm2yjfpYP5x1+gvrY+v4x3bWgx23Vd8hrItNtlnf3NbD/QHkTJKElBNpp2R5epa0/3aW2PHkS7FhSzmW+1/i7/Ulfjxc4i/DJX4yXOInLGtL+gvLsSX+sZ0ldhwuD31cCm0OkDPpm5Bw+qD9twN2PDnYcDnQVnWwzRBsMgSbDMEmUAPfgDHwj+2AHYccuk3C/bUkLFmeruUkSUgAAAAAAAAAAAA4vfAmJOwU2n87YMeTgw2XA21VB9sMwSZDsMkQbAI18A0YA//YDthxyKHbhDaHGiQhYafQ/tsBO54cbLgcaKs62GYINhmCTYZgE6iBb8AY+Md2wI5DDt0mtDnUIAkJO4X23w7Y8eRgw+VAW9XBNkOwyRBsMgSbQA18A8bAP7YDdhxy6DahzaEGSUjYKbT/dsCOJwcbLgfaqg62GYJNhmCTIdgEauAbMAb+sR2w45BDtwltDjVIQsJOof23A3Y8OdhwOdBWdbDNEGwyBJsMwSZQA9+AMfCP7YAdhxy6TWhzqEESEnYK7b8dsOPJwYbLgbaqg22GYJMh2GQINoEa+AaMgX9sB+w45NBtQptDDZKQsFNo/+2AHU8ONlwOtFUdbDMEmwzBJkOwCdTAN2AM/GM7YMchh24T2hxqkISEnUL7bwfseHKw4XKgrepgmyHYZAg2GYJNoAa+AWPgH9sBOw45dJvQ5lCDJCTsFNp/O2DHk4MNlwNtVQfbDMEmQ7DJEGwCNfANGAP/2A7Yccih24Q2hxokIWGn0P7bATueHGy4HGirOthmCDYZgk2GYBOogW/AGPjHdsCOQw7dJrQ51CAJCTuF9t8O2PHkYMPlQFvVwTZDsMkQbDIEm0ANfAPGwD+2A3Yccug2oc2hBklI2CnrtP9TnzjbnTl/pbjvtNNuxyvd+TNnu4efLu073awVi55+uDt75nx3pbQPdg7jRh1sMwSbDMEmQ7AJ1MA3YAz8YztgxyGHbhPaHGqQhISdsl77SwKtlviRfWe681fMZ0kQ3fNw91Sy/6nu4XtGkkbFYwxXzndnP/HUYJtLhkqdZ7oz5rwRlSSVpKm9nlIdAXve8915U48tWyrTwDp2lOuqXY9N9Ho7XDlfuKaxezEUjynaXrb5ZKjYU9swSZKadrXXM95+9rznTT2lNmxk3VhUvtd+X+8jw6Rv9A21rad8TG+LbJvvE7btEjsqe4mf2esp1RFw5z1/Xif7ZZuu099z7APuWHtutW7vXx2TM+ZDLTBu1Gm1zao2sqzqT5kf5PtK7Tzu+7vhRPExjA2y1DYZxK0xKrEr9svCvkjfx/N9V0xf3fQLpbX6kL339Fy5/wzbWl33mJ9kNPlHtb6x+LYa4grUwDdgDPxjO2DHIW02kfE2HZPLVOYia4zRgW3N5WhzqDGbJORT/+zfdf/Hj7+Q8tj/oiabv9O9N99veO+/0vW81P2tx9T+5Pj0HPq4f/qP1TEf/1L3T9UxkWf+l+7Mx/9d97ee6bcV67PldH2OM//spb4ug5wz3+buMT2H0F9fvk/ZpPFehXp9DnvsP/6dwfZNaGl/m+AoBdLkITANrNUHSVVGo8snx5pz6M8xSNvPD6fJovBA6Y/RAVoe2JLrCcSH0FriqY3VdiwPUGc/cSVJMqXXOHz4lfuoDzq6vP4s96Y/h/v0nz+RDn7uwTocY+oJ7WYfhNPrSY8xn3UbrUlTLLLXkNpQOH8ltW9io4HvrWhrXT45VtmiYOuHE5/P7Cf1aN9NricQjtF9oN8mZaJPKzvbZERm87HkSNK/NqR50iLXWWsXj1xPfv12W+WYPvmS36PygaJ9A/VyY+dtpdk2q8j9MFyzYO2l7iPZ3tdRihfRh9S2XdNuk9TfLUkfHGcsPuq2XY26hpGYtuskZPWajT0eVvc6bFOxo7ZFvt5vK9ZfQtmgbmcf7wbb22j1kz4GCAV/KVxzSywKfaq8z1Osv9AXk/1lbPsWysj9tcTosXK27mpb6Osd+rC2b+t1pPeh6j+BP2i2M+ZUriuLr8k9J/syXxtQv++kL4/5xSbXX6HoX2vdT8nHxn0nMnYfet/U/gGjYMchm9pE+t9o/Mz6SImxsUjqHx2rGtnpuDsWWxXDMSSjWL+ORYqxegRb1zD2FeNlgbFydl81po3FTj0fG59X9u3Ql7PnjXUP92/KvJKQWSLNJsviNpdwSxJqPuEXtkkdfWLPJSTj+r/6UhcTjDqhKNtVws2ec5CAC8lNlbSr1ZccZ9DlPCEJmCYhQ0IxrSexS1JXen/JdY9cW70+tV+uY8IkZP5gKM5uA4kE0GqHdcdIYmbYMXpcQEofhiSo6nPIstzp5TjpZNKxzfVJYJEy6pg+QJuykrRMgmiBhgBUosmO/rrcur/meA9Z2YA95uFyoI34tpH2CNtsENTnkKWsF84lx5n7DjavJiF92fPmevSgMmSzwNcci3S7Spsn95qWDdhjVl23v0/ra2Gb+IM+hyxHBjBnP/HhzH7BN2NZ6RurJiByvK/HHx/v3beZO1d6HUI6WRjS++FmtLVV1ibWP1O7RVsr2yTlrK17f7LlfTul9Ymd+vuqT2hGyo2cdx1a/Ti0YXGfINcQ7tUT2z/26bCv5v95OXfPJZ/ZJWv3bd1fvB2S2J3ZJbD2venzVBhLNO46CSmk5+jbOd7rwE9SH++RY1dfb+9jNXxMW3vfappskvWbtK/LPQYf0Hbo7RbrKPQXW1c8vkSt/qyctMkKWxdjnyFcQ7FexWg5e36zv6WfZLZIYqy93xU+Y4/X95HaJW2fzTn5mFO7Ltmu7jFpu3RfapuckfsuXEfZxza5/nBsStm/tP/6MiN12HMkPuauoXxfmpH78L4ZrmFa/4BVYMchm9pE+lffdwpIv1jRh9M47frjKsqxpc7uxl35XIutinBvVVvU6s/KNYy7cWzM4lY5Xg4ZLRfq3mDcTeyZ7dPY84f6R8ptK67OOgmZJh4LSUhD+bjhPvs5JtayBKWmkpg784+/NEzmrazPbe+v2SczzXGSNIzlYzJV7jFNQiblBvZQZdV1j11bvT6fyDT2+qfJ8SejObhK5xLHl6XuKE1Onk1Ickw9SUCJQWKIlJPOlQY4X3+4Nl9fEsCrmGOrk8p2Wu0YglD/YJkF6RHkfoqB1yL1pDa2QahgQxu0rI19ed+Oof7RJGSFNluP0z7QB5vpe17hY4rQBqV9Q3+Qc5RsaJByYjtfvref1J/ZT/ebEYZJDV+PPz7aeUXfG0uOjPtRG+1tpZE26m1v/dPY5oq5Hn0vcn39urN/uF45pr92XZ98Vvcs9in6Q73c2HnXodk2K9owxty4zVzTebcu7Wt/tq/9MZAcM2Tc/3dDm01M23h7XDlv2sS2TX9fLde89r2t6pc2Thp/uSJLZeOcFTYvsV68Ex+VZe+74V6Tvm6vd8xvXZ8Z8+sYYwr7BNtPQr/VNsjYad/R6L5u77/v9+Fah22jY4fH9sfzw+2axvrTODVE9kcbZjFH1sePX1XO+YmND+ra6nXqmJj6WEJ27w451thM7ifeh67PoNvnBJx8zGm9Lmffoq2KNgjU6xfbj/WpOptcf82/DNbHy/Eu9Y+aj2XX4MsVry9B3Ydcg+4zozZtZzP/gBzsOGRTm8j4UI65HtuHTT8bYSxurBqrW5lu3C3FVokN+RiSsaVx112ziVF2PtfXV42XGePl3Ni5+birytn7DfvSuDqMxwUf2VJMFWaehNRJs3IS0iXw0qRhwCbVfDItTb6l+zSD6wj1Z28UNtUnicFKgjQ/3pEnIctJTHtcft/q+urXNlJfqMeQJjFPxur295ORLDDa4Ch/AzDfbjrfp6Sjms+ho0inCZ2kFDTlIepsPIcPEIVA0Af0MPFxnX48CdlffzlYm2MLwWxdVtqxNtiYh0v5e5T59vP/QIKIfPaBRO4tXmfhms3+88YWsQ5jh3IiyttKPss1ST2yNOWDfd1xYjcp588Vrr9iq1K7rktLLJLzxHvU+IfHdLu5j3+QXbe/V1tf8BdVv/UdZUf3c/lCMFftYa8psV/wTWU/f654/fl5PcM28/Wo4+tvdBauc0dsNGmRe1CDaSDYL6zng7asu/2uL/d+5tZtWVu3uv/KucbK1c/ryzbSbJvQp8bQ/U2X977grjf4mikj92OOeTL4WcEn8vucgiabqPtLY4mKWSuw9yb9V9tNEftfldRnXPmCH3nKMbaN1TZx/l2+Tjdpj3+Gwvtp6/VY37Y2GjuHJ7GlL1+x70nH003iim2jcE7xIX1+61MF3xnEB7GjrDt7VseylvrzGDNCHvsCrX20VC7UmdhljOQeXF/Tv2AZu45wfutP4T5GYqw+dl1OPOY0X1fdB0ZtWq1f+oxZ6l8+FNq8yEbX35P7l6ynv6xR9VVIfSz0k7DfxYOVvqqvNe9DDffRwkb+AQOw45BNbeL620jfkL4wEgvk+LHnqlX7W5ls3C3E1uIYktNSfx4fx6iUtffUEJtL5cK2xC5jZPcwsGfxXly87e1Xjr9pzD4Zh5uETN5oHCbbiknDLNEYytlzJvta6ssTfin9fenteRIyv2d13vyNzXh9Y9c2Ul+oxzBtElJjAkgeCHxHHDz8mH2uE7igEydfGbEzSVAIdcvn0MHVOaSTph3LT+4a3oQMn21HV+e3E7KWgLGCdeyor6u/B/NZ33fc5wJRft0J6vol+IS6+zZR57DtkQU3b2M5h9jNHRfOrds8fM7b1D209Pe0GesOhKnPqfuKvqf2+XuwA11y7Ypoe22vvg2Sc2h/9fT2kzbI7KfbNnyWpT6/KffwIIng6/HHRN9RbabtPuonBTZts/UnLXIf5YHRXnNi+7RcPzlxftdfsyor9tB+bW2b29JQLTd2Xl+2kWbb+DYs7hPk2qKPuXu35VXbl9q0jwfKXyO+nsx3d027v5i4nbeZvw/7TXm8z/y+HNJm0obONoX2t5j6SvdvfWHoG5LUtPUU2qs16Vdi/T6U4uKM+yz3G33X+ri2VYr28Yg5prQ97Zt+3dgj+KW+BkfFto2sbZOsn7vrU+e3tsh9ZdjXe/u5/lGLiy31Bx8M62Pk9g201jEs5/qKXM/gWgc4O6Q+4e4/XlNm3wQVn+Q64jG5TcbqWIMTjzmN15XcS8TbZcQ36vV7O8e2GPexns2uX5P7l11Xx5TvNSX1MX8viX/kPpiT3Yc/RseusS96WjlpPAUHdhzSahPnyy5OVNH9zfbpQhmFjhMt9Y/3xTLTjLuFeCP1lMaQjJb60zi1Anv9w+uz51kRD4VhuZOOuw57rLRj9fh87Mhiq1C5t00ZTULee++9ftPmau5cxSSkTpJVkpCFn0+7bcNkYjkx58vYJF5Wv9QTymQJyrb6CslRT368I09C5olMZY+8fnV99WsbqS/UY5g6CRk7RoJxcgkEviPWk5Bqm0HqyidfNviouu2bXqGDq3PIsaFO91neUpPzmo4pnVY6n5T159bnSs8rHTd0Uv15c1bbsZ/Eavp7MGXC9cdjatfm71dvs4FH1W329wktqSd87oNl/OxtHGy0Ogkpnw26jSvtvQ5NsSi/T497I8jf1+BasusODOxtEFvouu0/fpTZKxwb6vSf5RV9OW/Rfvpc2Xnrfir4eswx57VP+zYr3oOlcs9bYr1Ji9yD2LJ0ne6e9b58MtFPTlw9aT/2ZcUO0a8Ndj34vGKkXP28vmwjzbYJbWg+37jxavfSSy92X3nlxrCcwba7vHku5f1xss1db/A1U1buJ7a78teAP/YkybNNaLVJPhZodNvUkOOjf9i2LR9X7mfatwzGVv3b9m5bb3O3vvskpLRhboveX/vrLfT3xBcc+fX3KB8K5H3FYH8mn9Sb2uekcWetuOLbN2+z8YcV185Jv07ux9nb1enLertbu62sX45PfSLxaX1eg7RHvk2QY1r9PfXH3h627qa2cPfp6smvX+/Lj+nL2XsM95H7jV1PbbIJJx5zGq7L3seozXr/sGV1u1brd9ei/TTay/pPqKfBT9e0a+5fA38b+O8Qudak/e15/TWbmCG/5En6YELhPgz2OnwdZ01MyePMJqznH1Dj0O24aq5VYlObiJ+3xPFIQ3/USP31vtfO7sfdUmytjSE+ZoT4IPZbWf9w3HVlQj2ZTfNY6hnExwp5Obn2YA+7b+1xV382+6qx3ZXrbZ8dZ2i9h1ZKScgPf/jDneQf73rooYf8ps3V6nzlJKROPJaTkPlxdr2Q/EsTa1nyrZC0FGzyzpwzxZUbrc+Q7h/SloTMy+X2UGVVMnbs2ur19ay69nVoav/YYU1Ht5MO13nF2YPz15KQtkPEQFAgdBY5R+i48jls9/XI5+H5pAOaZfjXncNx6tw6MMjnK5+Qc8hxfQDaxgN5ix3DZM5ei0y87L1I8PTXou/bEq7TTXyL9rP016+DYX9f+n4L55Ngrf6l8d62/twxoPrP5riH5RyqbYbXvj5tsUiuy92jXKf8/Q17v3L+cJ36uiz9dZcSmD3BRnKOiu20j2bnc/4pP3WS8pn9tH3C5yvGjuYc2k+H195vT94WkHVfn27zgNRZvkfPJG0lmPs35yvek8deq7qedN21dzg+9CG3z9Xt7l0+Z/aJ7amplxs77zo020a14de+9mL3wovCS91Lr+rJsfK/UN4vq20c/NLea/BFd8/RV0wdm9zbprSPM0NfFnofd+1SKpOWC/T3rsul212dZXvkx8t671cnGTva/CS0Yb8tnDO5Vx2PAoU2Fp+ptruuw7ZF5d7yc8l67DfmevPrWIO1+k7p+ux19/ayfSTpD8N2rvWjoo+N1m+Q61rj/u3x0XY9aZyrk5Zz9ze4l4brkXrcdbi+0N97pW9YO2TnEWwdch2qbWxbpT68CScfc8auy91nqS1SKvaw1OvP27O3dzhWs8n1lxn4V+6fDXWM+2J2TYN9Y8d68mvakHb/gDEO3Y71uVadTW0i/a/q/7bvqdgpfcBss0l5FYvH+qfUX5sLrcNux91KbB0dQ1S5WLZWv2HdGJLVFxjEywppORfnBvfRcD1xHLDXo+1aH2fSeOzOnY/X2/CJQO1NSPkl9t6TkDYJGLcVEmb524ultyIDep9+q1F/zo/R5OVq9fny5STjqv3DJGRil+T+hsnFmDgcubZ6fT3TJiHFqUPnMA5vO5Zb6p+ODh7GJJgWOlA1aEontHWaDhTfhAxB2NUtx7o6peOFABLKDDusPpf9HN4kssekAc0e669hVeAosdKOEiR90ArXZZf6rU85f/hsSa+zJ7RDvt0FKFunbh87cPhgp2wX71uODWUGgVmfSz5LErqvt7d5X6+9hg2CYEss0tfcP4yb5SfUtQx8r2Kvgb0D3udtctvY0beBnDv6mfIVfb+hzGAA0ueyn40dVTtEe8V6/TXYPhX8QGzc2z4dBEPZBpJjN6Nt3JDrXv0QYm2mr8f6ovdDsYe6N1s22FaXy84VB3e7TzNSbuS869A6poZ2kEnxV155pfuKnRjnk+O+X8V2s0vxy9w/zOfoP+FY6dPeP+W4uE+O2ez+NqHZJp5B+9m2UfeiymrWiz3OF8brHLfT3pOQMqYV7VK+7pX2sX4v9aXnHJTJ41vEXG9132qabDLaN53Pu3t07ev6uv6cH6PRx5eo1e/2D2LZCmrlpZ1WX+t4uSRWJrjr7u8xvefkmmy/W+3jch39faR2SfdtzsnHnPp11a9RbKPuf9T3Ru5bx17fx8o+ttn11xj6l74fV9+qOuQ8/fW4YxJfGfGx4n3Y+w/xZex+12PdMQbKHLIdx+dadTa1ifSPFt+WPmb7lIkTtnwh7tr+buJGEyv6dM7uxt22OCWMl9vuuJvGoJ7WesbKrYqJfdwfuaeRMSKp3/qJvo9svNoC80pC2jcNFUlS0iUh8zI6KWkTcXkZVYc+RziueN5CYq6UaCzV53AJwnRbSmsSUujvK9+nbJLYauzaxupz2GOnfBMyYhxcT6RUR0sexnwHKk1epQOVOpbrTKrT+Tpcp3QdNO6XfTYADINdHphCfWlg6OuzHdieyy/XCWSKdeyorysOPrIvO38cdAbXpNohwd9X0i7+HmXd2zjsj22mA1mwhT8+PZcOmoZQn0HsHuy/6YP5ugN9fx65b3VOc129H/RtrX3DUm1vd5+93VO7Wl+K+2Wfs1fiY2Ib1Q7JuayN++uN9RnCP6TU/01Jtz9ee6hH6reJKNUnGgefvJ9sQvukxd2XJvqPx95/1g6pTdLysV8M7te3m6BsP6y/XC6W9fvy867iJ3/yJ9fmpz7wvu69H/yQ/fyhD32we+/73tedtby/e/9Pu+0wP1ybSx9t63Ml2uKd8tWIO6f0g7KPumOGfTzEFr0t0J9H9oc+Viwr/TrrN037Gmixie6jPWrM0nEnibm6vGN4f84OZRt5SvV71o2tpdgntNYzVs7WrdoiLZv6VV5HaP/ERva+9dygx5ZvjLGbsp0xp3RdqS0C0SZZnaO+MXLf2m+rbbvR9dcp+pc+R9U/egbbk2vM5ophTF5xH0kfLvj/Jqw7f4Qyh2pHl4B0CccbN9ZLRG5qE/Hzal8XfD+J/Vs/u9jnq/H5hdQ/Ho/a2Nm4uyq2KoZjSEaxfkctdlWxdQ3HsmK8LDBWzu6rxtXUHuk11/apuOrLWlvZcpl/VO7rJMwmCQmHSVv7u4cX6/S+40kn0MFPJ57S5FDoLBXyjhwCTWWCdeWKKW8DtfwtxXxC6B8K479COLymGEiz84btmwb0JjvaQUVdl9yrvk9ZD9elP8fjavT3GQhBqng/T1/proSfW0vdua1lm09w2foH1xSCZX5ev73SdqtojUWxDUOwtder2tOsxwCuPvfH1ciDd/DfoX0txhfDz63l70GWfEr/S5SDawq+np83bJf68nvzuHupXFdCOrBZNmwfDePGEElOraPjo5vdjTt+5evH3Ss3j7rj7k534+bN7quWW93Nr/v9aDaSdo6T4RP0pbY+JP03jQ9hLMvHYIvEiyQuZGNwcr16Xx77HP1k1xDikMSn7L51bO0nz+tDXIEa+AaMgX9sh0O0Y5KAfPXl7ssvfq372hqJyBabJGPlKsxYasuHcdSO227f8JnWldfnCsi4u+kzq4a+AzVIQsJOof23A3Y8OdhwOdBWQ9ZJQiYJyO7r3c0jST8GkYics/o3IU8GfWgINoEa+AaMgX9sh0OzY/oG5KvdS197uXvlxnpvRB66b9F3oAZJSNgptP92wI4nBxsuB9pqSGsS8s7xrTQBecslGmX7V+3bkCISkXMVScjdgU2gBr4BY+Af2+GQ7PjKyy+lCciXXKJRtr9g34a80ZSIPHTfou9ADZKQsFNo/+2AHU8ONlwOtNWQliSkvAH5ynHIKPYJyDTpSCJyziIJuTuwCdTAN2AM/GM7HIod5Q3IL7/8qv2sE5Bp0rEtEXnovkXfgRokIWGn0P7bATueHGy4HGirIS1JyN/+5Hu7+39dPrkE5LO//NPdQ//yf+4u/+T7u0/+tvxdyJvdV68/1v342763e8cP/ED3Az/wfd1b3/a27r82nHnH93ff8z3fo3ivOcZWu4Z+vbu/dtxvf7J7b7Lvt7tPvtedy13z1JJrvd/8f16Sdn755ZcHlHxiDPrQEGwCNfANGAP/2A6HZsdhAvJr3dfs34WsJyJD8jJw6L5F34EaJCFhp9D+2wE7nhxsuBzWbSv3x8Dr3zQfAvUkpCTT+uThD/zA93dvv/vu7n2//EL3wj/8YHf/Z+TNx39pk4P/UBKRkoS875r/yfZvd598/9u6v3otfxNSEoRjScj0nH0SsT0JKQnT75kk++iTnYNzTZWErJ2/LGnnf/fv/l0CScjtgE2gBr4BY+AfjpPOtQ7JjmkCUj67hKPdp+wUfrItb0/yJiRAD0lI2Cm0/3bAjicHGy6Hddrqxitf61546eXuJTvB6wkTv0Oh9U3In/+1/m9A/uZjP9n91Ws3u68euT8SeXx01B3/9qe69z3wL+36P//5t3Vv/b4fiMlEhyQKx5KQLgHZ59SkbEjmjSQhM/36/d/TvTcWdIm6neQkJflp7uW9g4SjTkLu4/xlSTv/i3/xLyIkIbcHNoEa+AaMgX9sZ651SHb82tdcQtH9DUhvj6+94ve5NyJfUgnImp0O3bfoO1CDJCTsFNp/O2DHk4MNl0NrW4Vvm/s/Dq7/9s5hJSJrSUhJ5qVJxJ53vuNu+1PrwFsl+ShJsfs/6d7Ok3Lv/WQXU4GffK9PDI4kIW1SrT8m1RRJSJ30XK1wT3K+tP5Nk5DbOn9Z0s4f//jHLSQhtws2gRr4Boxx2v1jW3OtQ7Vjkohcwx7CofsWsRVqkISEnUL7bwfseHKw4XJobSv7zbxM+l56uXsl/AwmbLP0P49ZOuNvQvqEmv3Js0qQ/fr93V/41LP+H5/x/2iNTUKqbJg9xick4/aRJKQ9Vy2h5pOQn7y/T4aGguraxhKnOila1jpJQHUfxhZp3SEJ6e5n+vOXJe380Y9+lCTkDsAmUAPfgDFOu39sa651yHbUicj87z6Ocei+RWyFGiQhYafQ/tsBO54cbLgcWtsq+ftE/mcw6cR4vcngnIlJyDtH6l/AdrJ/X1En0iw+GXj/r3d3jp/tfvH9f8Elw2wSsvwmpE2U2W33d/dXk5BGoZxOeFr5hF6SePT1qCSkaJI3IZPEn0+Q9jfrk5CifZy/LJKQuwObQA18A8Y47f6xrbnWkuwo97fu/NEmIr19Wjl03yK2Qo2dJyHlBK++ehgPgbA+BJ/tgB1PDjZcDuu0lftj35rs7/SsOSGcKzYJ+XX/L1wrXvnnD9qE4EP/Uv5F7OvdL77/gT5BZhOOZk2SYToxGLNtLvnmEoo6qSjbVyfMYvIz1pcn2lQ9J01CxsRnSl/HUOk58vU1k5BbP39ZJCF3BzaBGvgGjIF/bGeutRQ7JklXT0hIun+Epu1+Wzh036LvQIkbN27sPgn5xS9+0f6B1tIFwOFD8NkO2PHkYMPlUGqr+K17YeLX/wym/5cH498sOqAkpPxjM/KvWssyJCH/v/fd1/3iYz/p/+7j3d3bvz/8QzOSYJNEW/jslSQhM/32b3cuRdaWhHRy53BV7jAJGSVl1f1UFe49Jxy7ZhIyalvnL4sk5O7AJlAD34AxTpN/7HKutRQ7yn3K33Xs7zenv/+Tcui+RWyFEjfN88vOk5Avms765S9/uXgBcPgQfLYDdjw52HA5lNoqmQyumOzab7G/9nL30kvbmyjumw/+1Ptt0lGSkLnkjUSXQMsSZDbxF5KCv97dLz8NjknINEmWJuCknkoScpDElHrUOeaShLRvLubl3D2788jnsH8f5y+LJOTuwCZQA9+AMU6Tf+xyrrUEO4b7n+ofNjx03yK2Qo68BSnz2hdeeMHPfHttNQkpmc4vfelLNhnJz7JPHwSf7YAdTw42XA6ltsr//lBtcqzLTTWJnIIPffAD7u3HI52F/Hp38/iOTUKmb9sF3uv+LqROPtpkYKlsTiUJaZSfr0+qbZqEVHXqv1FZVFsSUOrvfybeq9+uk5D7OH9ZJCF3BzaBGvgGjHGa/GOXc60l2LH0Jqj9CfbL4wnZTTl03yK2gkbygvILafEL+Zxrq0lIkZxEsp3Xr1+3r14CAACsw7PXn+5+4zd/s/sfNU/JdjOuPPtsX+7Z691vfe6p7mm17RD40Ic+2N2QJOSt486mIe8cub8Jefx1m0AbyWu5xFdIFg7eZCxJJQ/RpJIk5Ac/+MHu53/+57t/8k/+SffZz362e+qpp4o+AQAAsE1O+1zr2Wef6f6t3PPnnrb3++wzT1kb/MbT5DAAtoHkBEsJSNHWk5AIIYTQyST/8IpLwh2rv4mYvhl4uPrQh37a3f/No+5YNoR/pEbuv/AP1giln26jeUuSkBcuXOguX77c/cZv/Ib9xvj27dt+L0IIIbRLne65Vrx/5loITS6SkAghhGan4yOZ8LmJofvsMZPDO8dH3c2vu3KHKElOuX+Qxk+Muzvpm5Fe/T9aE8qhJYkkJEIIoX3qNM+1RMy1ENqPSEIihBCandyk71b3yi33zXM/CXQ/Sz5kSXLK/gQ7ToSzb+tFZv+h2+HQRRISIYTQPnWa51pWzLUQ2otIQiKEEJqf/E9h9E9fjo9uHdi38jLhHd7TMAkZ3lDwZcU2p+bnUocrkpAIIYT2qlM817JiroXQXkQSEiGE0PxlJoqH9rd4+p8+pT/xCUlI/e17eFvh5h0zKc5+KoSWKZKQCCGEZqVTNNeyYq6F0F5EEhIhhNB+Ff4A+Cn6xlkmxTeO/X1nk2NJTuV86IMf6M6+732GD3Q/9aEPFcvA8iAJiRBCaBIx1yonIrXkzciWcgihE8klIT/a3fWmH73gNyn9yv/Qdf+HP9h1f/B3d90feINBlgAAAAAAAAAAAAArkJzi//4/6Lqfu9C/CfnmPAkpCcg/+HvKFQAAAAAAAAAAAAA08YbuX37Pf1VJQv6Rby4cAAAAAAAAAAAAALAeX/8Dv6eShNQFP/rfdN2Xv+R3IIQQQo2yf4Mo/G0d+RcKV/2tnVDmsP51RvfHzt2934h/JP2m/YPodp/9G03u3tM/Cm/2GzvI3wqUvxkIhw1/ExIhhNDaYq5lddK5FkJoh7r2q0mOsZyEtH8H0vO1r/qNCCGEUKvCJLef7IUJov7XCHPZPySeTA6XLG+DW2ZCrGzR/2uNilvH3U2z3dom/nF094AgySk4HSCEEELtYq61rbkWQmjHiv/OzBt8EvLHL/k9XiEBKSCEEEIb6U53Q0/uwr/OOPoN/eGo/1Ze4f9lSj05vnEUJsIZp+hfsUQIIYTQJmKuVZs/MddCaEZSOUabhHwTSUiEEEI7V/+NvXwbfSqmffFhYBz7RsKdo9E3FxBCCCGExsVcqwZzLYT2KJVjJAmJEEJoe7pzPP6zlvjzF8PBTo7DA4B/C0FPjuWei5PlW93N46MD+nkUQgghhHYi5lpGzLUQWpRUjtEmIb/zLz7k93ipAgghhFCT4oRv7O/rqG/oR8stWDL5zyf9+eTY/HfDf5a/T3TQ9kAIIYTQdsRcy4m5FkLLksoxfvRHvqO766GHSEIihBA6mdK/yzM2yXOTwsP8JtrcWz4pDhp8K9/byP3dIibGCCGEEKqLuZaIuRZCi5PKMdo3IUlCIoQQOpHMpO+G/Rs7/lvnbOJ3yLIPBPYPm8u9938I/viocP+Db+kRQgghhBrEXEs+MddCaIlSOUaSkAghhLasUzQ5jhPdI/svL7pJ8Yo/Cs/kGCGEEEInEnMt5loILUgqx0gSEiGE0A50WibH/X2GnzzZb+WPV/xReDU55g+kI4QQQmh9MddiroXQQqRyjCQhEUII7Ujp5PiGmTC6n9Ickvp7fOX46/bvDYWJbvJ3myqT45tMihFCCCG0sZhrMddCaAFSOUaSkAghhHaodOJ4WJJ7O+qO5V9o9PeoJ8X2ftU+fg6EEEIIoe2LuRZzLYRmLpVjJAmJEEJop7pzfHSAPxHyk+L4uZ/8x0mx7DGf5e8Xxcnxwb2dgBBCCKF9i7kWcy2EZi2VYyQJiRBCaDOFv7UzNtkzZdy/5HhI0pNikfrj6H5yLNIT5PgtPd/QI4QQQqhVzLW8mGshtGipHCNJSIQQQuOyE2A9EXSSv8kj/1Jhvv00Sv5A+it6cnx0lDwQOFvxh9ERQgghVBBzrZViroXQgqVyjCQhEUII1RW+gV/apO7O8aQ/Swp/JD1MgO3kOEyMjQ35o+gIIYQQKoq5VpOYayG0YKkcI0lIhBBCZYVv5f3kOE70RiQTw5ZyO1WczN/azuT4ztHKh4IwMQ6fB5NjhBBCCKFczLWcmGshdNhSOUaSkAghhIYKk2K34v8Oz9jPgUKZLU1GTyD5+0BhYnri69H/4mJel7FR+BnQ8VFqm35yPGYzhBBCCJ1aMddyYq6F0OFL5RhJQiKEEMrU//Hv8I1zmGyOfdusv6Hem+Jktf9XFE80OZYHBPmbQ7EuxYo/fD4LeyCEEEJohmKuFcVcC6HDl8oxkoRECCFUkEws1YRSJoh2QjjDb5v9tQ0n7SedHIfj+3vuv3Xn5z8IIYQQOomYazHXQuiUSOUYSUIihBBqUP+N/apvpadU+nOg0rfhm0yO3TFSV5gIJ/XGnw1tMtlGCCGEECqJuVYUcy2EDksqx0gSEiGEkNOqf+VQ/82eOUyOzfW0fUOeTo5vHJnJ9NHI1fv7lLqHP40ydR0ZO4WHBP4OEUIIIYRaxVzLibkWQqdLKsdIEhIhhJD6CdDYN87qG/q9fzPtr2VsgpuonxyvnEwHW8jkP3y253F1uOP1ZJvJMUIIIYRWiLlWL+ZaCJ0uqRzj3pOQX/j0re7dn77t1467Cz97q3tLhcsv+GKiF467d3/suPuCX000tk/02aPuLWr/tcf1NdQ1LOeuN7mugW53lz9WKZNdB0II7UvpT23GJr1uQjj8Kc7UChPT+rXeuXPHlOp15/iocTIfHgBuda/cEsxnWUb7hPtXk+PmCTpCCCGETqOYa2kx10LoVEnlGGeYhDzqrvm1XuVEniQF3zIo78pe+KxfLSlJ/tXO6eTOUebCp1ckO4MkKSrl9TWRgEQIzUVf3/K/cjiJ1JsChUmp+/tC6h7iPbYp//tHr5hzyFniH0sPP5FKvr1HCCGEECqIudZAzLUQOkVSOca9JSEl+Zgn9d796fWSkGG7fjvRJg0fL72srepWCcDSdUSyevI3IavHhuPkPKX9BUaTpgghNJmWMzlOJq/5xNRPWDd+iyBMeAf167cC+m/x5/0QgRBCCKH5iLmWFXMthE6PVI5x729Cpok99/PmUpJOCEnIsbcTB5TeeIxJSHe+JAFo31pUidBaIvFjR92FwhuXyf3IsVkiM33z00mOIQmJEJqPljI5Vt/QC8kfcJd7GP/7QYNv8M0xx7ECOd7/YfVQv58chwn5K7daf3KEEEIIIaTFXIu5FkKnSCrHuN8kpP+ZcpqEXOdNyF6l5F6qYRLysk9mJset+nuSQaqcfSNSko2tCcwCJCERQvNSOjle+a8c7k3Z5Fgw1ymT19Fv5pNv383k+I6s64m01OsmzYO3AOyxc35gQAghhND8xVyLuRZCp0Qqx7jXJOTgjcbHjyZMQsqbjGbdJyRD0jEmFKPc25LJdRr0uYbHePEmJEJo0eonxyv/lcOpdefIXFc/kY1/P6jheu1E136Tryf/49/kJ5Nj+wfU9ZsACCGEEEKbiLlWEHMthA5YKsdok5D33nuv3+OlCuxM9i3Bo+5ykpQrJ/wCkoS0Cb/CvjFc/cM3IfufaYcEZ8M/alOQvabS25P2HofXU4IkJEJojmr/Vw4nlEyKN31TwE6o/QTX1iGTY5kU+0nySL16crzx3z9CCCGEEFJirtWLuRZCByqVY5T8412SiUykCuxK8vZfSCqmSchN3oT0ycvRn1FnCc7S24/5z6mNBm9rKnTi8t2l6+NNSITQkvX19f6Vw0m08aS4/ynRjeP+50Fhgtt/uz/+0x+ZHDMpRgghhNBWxFxrIOZaCB2gVI7xgQce2E8SMmgbSUhJ4tk6Pns0SPAF2UTjz/pkX/ImpKhPUJaODwlTdx75W5Lq2PC3IUfOrVVKQiKEEGrQtr6VlwnxkVuXSW6Y7IbJ8ex+DoUQQgghNIWYayGEdiGVY1x4EtJt128b2mTj6BuRRiNJyMEbiZJk9PWHZKecw5XT16Wv3V+Xr7OZVdeNEELr6s7xsv6od/5HzMO1n2BSHCa8N+7kf1hd/t6Q/yx/dyicW51HjuXbeIQQQghVxVyLuRZCaFwqxzjDJGQhOefRSUhJCMq24s+YJclo9lXfOFRJSJu0jGXD+XUysU+KxjcupdzHzOf8/Pa8pSRqr/R+EUJoh4qTzIX864JyvTJB1d+kb/ptfFAy0TaTXPXzILtuqg8TZ/mD6TfiZw9/FB0hhBBCNTHXYq6FEFotlWNc3JuQo8nHTCHBOPiXq20SUv517MI+K5+M9InKcE7BJULd9ZSuwZ6zWKcTSUiE0FTSf9x79pNjP4GN34T79e38XCf9Vj7/lt6dM//mfvxfcEQIIYQQYq4VxFwLITQilWPcexISIYTQDmQmlu4Pnft/idAyz8lxOoEPE1V93Z4TfVOeTYYL39KHMvydIoQQQgitFHOtTMy1EEIVqRwjSUiEEDp4zX9yPJi4Hh0VvzU/2aRV1yV2yM55x9nJnRchhBBCqFXMtZyYayGEClI5RpKQCCF0KjSvyfGd4+PCT3DyiarfbBT+ltDoxPjOkdrv7ndYXp9DfgaUnpO/S4QQQgihzcRcy4m5FkIok8oxkoRECKFDUNO/zJhOjm8c3Tr5HyPfRP5vENnrGJy/Mjm2f0B95G8HxT+w7ib9x+be6vZQ57DnD+v7f2BACCGE0EzFXMsfw1wLIbSmVI6RJCRCCC1dcaLZMrHrJ8ej33TvUPnfJRLSn+UMJ8d3jo9W3lv/Ly9m3+wfF75x15NzeUg4vsO38gghhBAqi7mWFXMthNBGUjlGkpAIIbRwrfsvM7ZMMnerdOLbo799T8u0TeL1MWKH8BBQ/lbf2W3kG3+EEEIIISPmWkHMtRBCG0jlGElCIoTQkvX1Nf9lxlh+z4rfjptJev5tffzZkEx0R+7lTviD6k5uwp9Ojl/xn8sTa7EZE2OEEEIIjYi5VhRzLYTQRlI5RpKQCCG0OMmErjRhbJwcz0TxD6Dfkgmtvna//ei4q87hk79L5I7tJ79mcmyOtXPmUC7/e0hmAp1tQQghhBDyYq7FXAshtDWpHCNJSIQQWpr8ZK/+jXOYXM59chyuVV2nvbe26+7/LpEu33877+zj19W/xGh/GpRPlBFCCCGEgphrWTHXQghtRSrHSBISIYQWp+FkL1U6Od7bv8zYovzb86/fqX8jP5C+T/mpj9jFTJLvZH8IXe4/rrtt835gQAghhNB+xVzLibkWQmgLUjlGkpAIIbRAuT/0PTbB6yeN5W/x9yg7GQ5/H8hP8uU67U+F7MYmHZsJb/7TovRe+7ot1QcJhBBCCKFUzLWYayGEtiSVYyQJiRBCS5T/Y+Njk979/8uMBcmkOH9TwN7Lre7GnTUu1tTT/6F0PTnOHxb8N/ZzswNCCCGE5i3mWsy1EELbkcoxkoRECKFFyn/zXPvG2Uw2Z/EvM2qVJsWiO8crJ67yN4nGHgL6v1mUT45l0sy/yogQQgihdcVcS4u5FkJoY6kcI0lIhBCaq+y31vVJ3eqfCc1ItUlxk/pv38uTY9kvdih8S3+i8yKEEELooMVcy4u5FkJoh1I5RpKQCCE0R9lJsZvk9T+FyeTLjH1rPbnUdW91cqrqze83/RcY9eT4qLtxxDfzCCGEECqIuVYq5loIoV1J5RhJQiKE0NxkJ4FmQtcw8bU/jZnLHwGXCbC5lpvJz3VGJvbryNT9yi15G8HVqW1y586d7P77yfFWzo0QQgihwxJzraGYayGEdiWVYyQJiRBCc1KYFLsV/y8OjnzDLJPROfxMyE/i+4mo/pZ8gwmqrc/c17Hcn69HvoG39+vWXzk+tudIHxyYFCOEEEJoRMy1nJhrIYSmksoxkoRECKHZKEyE+0md+1tE+eRPy00Ex77Bn0RhwqrfFFCT2NHJ/UBih/pkP9jEctKfHiGEEELoFIm5lhNzLYTQhFI5RpKQCCE0K8lEV00K/bfeYxPLvf1MKF6bud474bOarCYT4zUm79kk202Ezf0rW9xUk+O9PxQghBBCaEFirsVcCyE0qVSO8YEH3tfd9aYfueD3eKkCCCGE9qn+G/vq5NdOJNf59vvkKn1DbifoYZvFTfBj2aZv0s2Dwa1b/SRbPtv7dm8hxHrMRPzGEZNjhBBCCJ1UzLWYayGEdiqVY7RvQr6ZJCRCCO1X8ZtnIZvk6m+5a5PjKWWu9UZlItpPmNUbBmFSu3JiLA8B/t61Pew9uwcENwE29fm6ShN0hBBCCKGBmGsZMddCCO1BKse41STkTROYXnjhhe65557rnnnmGQAAaODZZ57q/sff/M0Bv/H0dbf/2evdb30ubP9c91vXnx3UMRXPXn+6+43k2p7p/q1c11Mj5Z962lz/6uuW+3zGl0nvuUfO+/RTT3VPP6vqevpzdt+/fWZ/dgEAAID5wlzLwVwLAPaBzjF+5M9+x3aSkJKA/PKXv9y9/PLL3fHxlC+qoyn0+c9/3n9CrcJm89M828R/cx2+dU++pdc/fXHl9vqvEOq3BNS1hZ8GDa5Nla9d93XzUGDvN/lmXb6Jl2/33TfyyflMnXu1ARqIWLcMG9BO2GATYbPd6xBtPL97mn6utbENdjDXivc78VyL+LF7YWNsIFqEDVSOcWtvQr744ovdV77yle7rJpCJSstAWM+X7J/vfnHssf1hH/v79WCzsJ7vz5fs3/3+EKBr+0vbw3J3++90r73+eveS4bXbYfttOwmWbe4PkZ+k/m3vN5PVm3Jd7vpeOTrqbprrvm0mxy/duh3Lu+UdM7E96o6S49N6n/rcbw3u7/aR+3mRrMtPgF4y53rZ20gm0Pr4sAyE9XzJ/t3tZ3wYxvt8GQjr+XKK/fOMf9Pur7VTIKzny9O8n/69+/1LiB/r7tfxprRfL6fZ38+rJLnm9vfzr5devxnnHeG4sAyE9XxZ26/7Tml/WJb3y/zJXa/wsiQLzXXLXCufB9myZq4orwAN63F1H5m68vu7c2zmb37+Zes155C5lp3fqflcIKzny7H9xI/d7z/E+LHufh1v8mUgrOfLQ9lf84NAWM+XU+7XOcYHHvhId9ebf/yS2xGkCrTqi1/8YnfLBK+geDIv1pe9Hjp30LbrP8R1bbNt1KfF+mbr+SAVNO26THrdZNCpT+qFv0/kyvtv7WUyaLYn312f6PzbWHeTY3fNN7uXs78PtPL427fsJFq+1f83n79u9puHA3k7wX5T75KuUWbby2IvM1kO5wuT46D1r591rZOuMz4sI97PI/7td11ssM36RIe+Tv/e/foS4kdQ6/r+443MofR8wr3tZ7/MVH8LMiQn7fzCzENub+3824g3en7o3lBc6/g7R3a+JHMt91ajmX/KfDLMtUzRWD5sU/8IjU52Bq27TvzY/fohxo+g1vX9xxunfa6fPN7sfl3nGN2/jr2FJKT8zvv27dv2ZHB4BMeGdrDZ/JhFm9y+5b7V9pM7vc1xq39zMG5X22aDfPMerjm7nxpmQhzeaHzZTHDlzc/r1z/v3kQwE2N5QNBvRTpu2/1SNrGTKS8PC2lZ2AfEumXYgHbCBpuAzXbPIdp47/c0g7nWdmywnblWmEtNPdcifuwebIwNhCXYQOcYH/jIj2wnCUnjHza07/pgs/kxjzbxE8psYmd/zhwmffLmn58gHt06+SRwdwwnx/Jl1KprlZ8FvSZvJJj7+s3Pfa67qe49TLBv3wkTbTmHmjDbyXFpAg37gli3DBvQTthgE7DZ7jlEG+//nvY/19qeDU4+17J/+3EPcy3ix+7BxthAWIINdI7R/sM03/mhB30q0UsVaJXc+B0TyOAwoX3XB5vNj7m0yfHR692LN17vXr9d2n5DcbN71Uw883J75fimva5bcdvt7vXX+2t++eh2Wj7j1s0b3avH/TH/+ree6o6Pj+x99ve9uh6YD8S6ZdiAdsIGm4DNds8h2ngO97TvudaJbLDludaLrx/tZa5F/Ng92BgbCEuwgc4xvu+7v7u768EHt5OElAynnIDl4S1p3/WXIRi0lme5++Vs/Pi2+6mMTP4G++VnNGZiKN9UywRRfhpTrWfqpZkUy98XGu6/bb9Blwl88Th1vLufY/uzH7m/f/2bv2knx7e/frt71Tws3DR1uWU4zjwwrKqX5V6XjA/LiPe0E+PyJkv8ZvfLQ/TLWfiNn0/JW3+D/X4eJvMQmW+9elw4/oTLjdv19q3uxZvHhf13utfNtfbzo8rSHO/uR+ZT/XxS3og8tvMvma+FZTjudnd7Vb0bLIkfu18eYvxYd4mfLcMPdI7R/uvY20pCygkC8po464ezTvuuv65tto36WD/5emiTbdW3+fqx+3Zavpku7p/hunwrbybF5f3HNlHYrw/3u2/j5Vv9292NG6/bb/flm3pJQn7ltdfsBNnuNw8GX7txy9rFvQnwenfjuOH6WN/bOuPDMuL9fOLf/tbFBtus7zSs0793v76E+LHu+jzijcw3zPzCz7WG+3e7vlG8kbc0/VxruP92dzQ6H/L36+dar8vPqc1+mWu5OdYNP99yc62XjV2O5Hg/15KE5NrXu2Kd+LH79UOMH+uuzyPe7Hd9o3gz8brOMe4sCQmHBe27PthsfsypTWo/E5olKgG5EXaCGybB7p7dT4XudNc//zm1r8BJzguTQKxbhg1oJ2ywCdhs9xyijedyT/uca61tgx3OtdJ9BXY01yJ+7B5sjA2EJdhA5xi3moSUbCccJrTv+mCz+TFZm5hJr3zb/BX5mXFpv3B8q/uaKfO1W8fl/Xvg6Jb7lvwrr71uvz232+Vexu6jmaPuFVu345Ujs83Y4H/6nGkTbwu778Yt+818uQ6YI8S6ZdiAdsIGm4DNds8h2niSe5r5XKtmg33Mtb4mde9hrkX82D3YGBsIS7CBzjHuJAkpmc7Skv3L3U/7rr8/2GzT49m//f3SJmP7S9s32S8TTPlmWSZ68u1yvj8sb77ufiakJ4J5vaE+Ozk1E8iXb7if1+TlAqXjm/abCfDXbh3Zn03LpHXt45v2H9m/T2Tt8ro5343Xu3/zW+7n2AFrN/9z7OHxq+pn/z72Mz4M432+DOxz/1Txb877a+0UWHX8adxP/979/iXEj3X363hT2q+Xm+6Xtxzj/MHMkWrHy1yrNK8Iy4CtT+qRPwvzmvuzMXp/rf7aft134nZzjpePju3PpuUNxcH+wnL9/cc2EenmUzfsXOsV+zNtP/+K87DV88+wb9P9xI/d7z/E+LHufh1vSvtL2w9tf80PAquOn2K/zjFuPQl5fOweuFke1pL2XX8pNmspx3K65WR+7L/l/p1XX3VLM/mtl7vRvWYmpMX9dnncvfaa1HOj+6pBEpDlcidZHtkJcXqdR93L/vpf9m8QrK6nYXl8q/tqsIu5n6eeud69fvOGmSCLHW7ZifPvvHbTToyb6mO59yXjwzLiPe3EuLzJEr/Z/fIQ/XISvzl6vZ9nyfJ1+Rega+Ves39furjfLv08yJSTpN3r1XLty2G7+vlccp1+3mOuX74ATsufYHl00771aO0i92PmmTdvvd69bLbdMPdq53dmznertb4Nl8SP3S8PMX6su8TPluEHOse4t59jP/foue7MmXPd5edl/Wp36cyZ7szFq4NyDrf/3KPP9duuXTLHX+quJuV6rl7M63uuu/wes+09l7vnVLm4Xc5fY3DM6WPd9rX2D+3z/OXunLFj0n4av//StX6b9Y+q3V2bpfWt8iGHu67xNk19s+Yfdd8LtNosXtMYFb9NbVDYZvtJVpexkZwzlrP2D/cbjnH3N35t6pgDa5Oc9Pw1lA3iT16e6n7hz7+1e9fDT/k3GY+7o3/+QLzmd77zHd13v/Wt3Xfd95nxNvnMfd1b3nqx+xVT56/87Dvi8UM2bRP3rXz4adCv3f92c763dm/58w93v2HvY/hTplKbvPMd5ri33d29Q5bm+O9++33mmtXPjQLqJ0H/5vPX/bp8W++22Z8P5cfkBN9u8q85xCLvt367vS772W+XYywlPw5lVvlgzxL6VbhGbe8xXPkxG6Q2jhTadRXRfoaqvyg2GyNXXZO7n0GZRt/P2Wn889c0tNWqcWB93xbcNTnbiC1b2khYywbr3tPa8SOwhg38OVbXKfjrtH14VTvU2cy3tx1zw730SJ3OD/oYNeYL7rra40fq925fX/fwehym/KNhDuXKVO9d0WTj0O815lqTe7b2bOxLqr7aNaY2WI9N441rp1Wx0WPmDp++YOYqb72n+4Wn3fwhzrViuee6T/2UmWtduNLPY0I/yvuDnWtJfYa3u7nWpYsFuzeMi8LQBulcy/4E28+FAnKNK20gx9241R354//Zz8qc6ye6x/7nrJyaa9l51Rce6/7cW9/WfddPuLnd+Fxr2vgR7nmUFXFv1F/F32txpVSv7R+uncevTZ8vjxNCyXau3KVrfcyx127LrG/rjeOHRV+/O7e7fn8dCtm+TszNKbWP3uY+p+e0NNhid/FG2yTdVo8DwzZ05zHli37Y48pVfHgFm9nA++Da5+zv0bZbrW9lNtA5xq0mISXLOc6zvnM+2z0bnO65Y//ZOMDVrPzVSocxN3rZO02Pqyuc5+pFV6ecS7aFc5wzxnhWn8Nfk9SZbl+173TR1r7O4aQdY2cz22OHiu3jCG0y4KJpX9shNK4ud6xvF7M9+Iw7h1kX34rlUkKZQJu/het29xb8qYU2m63Cd+LcB5/zEyh1Tf39DW1ly9j7k/sJ/cOVy/tfrMf0lXg+j9un6w8cdpvoeFXab1Ft8v5PPme/7f6Vi3d3d9/9NjM5vNj9yquv2jcN8za5++1m8vz5Z7pr/937zbF9m9z99rd2H73ymn1L8kkzwbxbEntmEi3fart63Hm31Sav3zD1mro/bc71XWaS+tbve2f3znd+X3fpV912eTtArmWsTV6/caX7qJm8v+vhz/lj0mvV3LrpvqH/17/1VPeanPu1G/ab+lJZoRovBogt5heLeh/qj7G851J3yfuDLWP7uu/3LVT7ac88+tXJ7kkI7VS/Nm9bf7y1g9jT983cDmM+pcs+a9pMH1dindgydl6H8jHfVum1Bx8q9fs6Tdeo4thK1Lik+1lap2/3SpsKq9t1SDjm0tV+vjfw8wLrtFPrPVXbc2X86Gmywcq28X1Y9+9gd79tHRsH1unf0gbabu7zNmKu1N/XI/XKvbh6ZH/oE+dM7M3n+ek5x+LHs8/1bevKyzn9NnOey1d13W67rc/aV9s/XHObzdts7O4xPd/YfC4bawqsurbeBuX9Y6zjN6VrG1CMIUfdU4/cY7/8/InLT5fnHb7f3Pfk57pf+Im7u3e8851JvTLXeovMeX7u18wcxsxDbj3Zz2MK85d6XBhSskGYa33VnOurdl71a90DZq711rf55Keff+lrjHgbhDoC/9PDxgZvf0exPcNc63c+/1j3HrnXt5n5ZLF+7b9+22TxYxXeT8KYk8dCNc7HbWG7r8O1m6DbLqtXEcsX/K7uA32fC+NRqCedE/p+G+LdRTMPNGVsjsLbumU8C7TbeNXcQccs+dz3fbkP2V6PuYW+nNmuGE9CuxXsHNunuC9l6/Em+oSyie4bA8x9/aMQl4fXHXzmsqlD7tfWt3JMVxR8NGeamBvo71F8NrahtVHdBjrHOIMkZH2Q7DugcgC1Hvb3HcKsjzpIT1+3P3+xccf2nS7WcWyxbR+gvRMOUEHId8LYJna932/r8m3g2jqvK0fVbel9zPlQv977gcH6jg7Mcu3nunMl/xztmI72QWEMb7/og/X+kqPv1X6OgcHUE23s68/uxw425pz5INW3a7/tENvE3edq3LWW28RNbM1kz0x43ecwqb3e/dL73t6955eet/f3znf8RPcLT5mJ7xc+lbTJO+771TjBlJ9DyzX9xHsfdslMwU+Of+2/e0f31rt/vrlN3nH33faaBm1y9Ez38T8frvNpMzF+3t6XTkTKdYy1yTu/7+7uu+wk2uOTpl+96X56lHJkE7X/+jd/s697UKYnifMrcTacTSzy9Z579LK9BvF5W5f12b6P9tv8tY76dKnMnPuVu153Xf7aB2Nrdk/eboNryrB1Slmf0LXb9eecpA2zfmBtk9mrgdbYkvqNagN1r/m57TFj9yMMbDlk0zGpaCdNuPZiAklj6vj1tja1mHv65039zLNNG6xzT+vGD9XWKwn35P2y1B+jT5Vigd1WHqMsW7OZ67ty77uJuVKX2S5vGZp1eRFB+n3Sn/J7abRzEpNaiHZ2x9jjbfv4647xVe3X11Wgzcb9WJGcL9rM38OYjyjbCmLfsVjXt2V5/xjr+E3SBgOfzO4ra9fSXMvOYx69bv9l6F/9OTPfMXU+f+vz3S/8+bd3P/FJM/dS9d+6+bT9xYrMV8IcR+r56JUw17pmz//+T17vXjNzmd4n+zpK3Lp5s3vq+vXhvqOb9k/S2Lp9EtLVL19euy9yv/v9nxq3wfPyRmN/r4Hvuvv7ol0EZ1cz1/rVi65MuEdV9zzixyoKvpHEjrKP5H3P3quJ6c/GPpAdlyFtvZNnoVpsKo43aZ8t0WxjP47EGOLt6a69jyF9fzTbmmOutmXwH5dc7e8l0J8r3nNSV6nOfF/K+vGmtF/w126uZzD/sNfhr8m3v/WRWF923+q6tc/YY8y+/H5dmXPdpTW+WNWsY4Nxm6Zl2nxbkPsbt4HOMW41CXl0dGSRE4XP6fr17tF7XGNdf8Q5/KOPXLQXfu6R667Ms4/ajnnxqpR/srsYb6zHvRp/sXvy/9/e2/1Ycpx3mvwXBnurmcFeztUChudisZdzsb6chdEafoAkMBhgZGDGzabED93sLmABGtvoLlLyUCQlWbRJLJvUB/dqYA+ktVjqpmTfWLCwBtlNskWPYUqk2M3qqu5qagzkxBsfmW9ERuaJzD5ZlXH4/IAHVefkV+TvjYh86808p/z+bdDOvdpck9dvyP7Mfn/ulrnXYX+GaP/CNWeW2n8P0xHtvj3D57e7r8vi6+Ilg+ayHUh7Jr6u47Z+6/j4WMR++8EX4hnis3fZbu/6zVNt7Nt+FMVbvVbHCH3Mtdf1RXtMM0Dsusn6FtMO+9Rt2x7f33x7uv357dXr4NmwX/61vygEj+Lll90gVsdPtw8Xj3DO8fK0f5uJ/42hi587p7H2urh2/gvu+N147LXHJ8vta3XxlZh0+9cxUf6mF2szHl9VMZHtbbsK2h8m6KHlQ691P8uuf+dW8+HhoUWSyivffbJ58IFHmxeuHDUf3zpqDkzieuf4yC+/0rz4uE4UzX7fiPud/VizfGRm73WbqH54eNQcHd+y+5HvkQzH+lA+hnNBku9nWv+79rqY6Pa/9t6xTX4/3L/Q/Ov7H+/Ox/f7Bx+4zxZK3f5vNbd/7R7Tt+25cMm8jtdvz8HE4rVnHmw++3lJIj5pDsz2fy4fkbpg2n/7E3fuR8fNnbC9b6v49tM3r9j9Rn5mXodzkgu4W+avD+341a/d7zKm3EW9m4tkfrLr+7lCkruhuWhP5qJ2/vf90x8vbU/w2O4v3b+/Djnc+Al9VpIWe1185VXbZrk+uvNxDPnRe52Z69xyt397bHu8/voWE0M7rtT1zrVRzY+G3PGnXB8eefWNrj0Z2vgIvo3x+QwsF4/3zHwdrhd2WRxf6Q96+xAzG2d//Cx6Pho4v6L5Pro++f4aofu3wbY7nm/d/nxfNDGTJLZdv12ef73U/OeuCwbdv9rlb/hx2Z+f3XbdtSFdPvo6xH7ieNF9VRhavzunXP8Pc40/X9+WOJbj80cg/NERPMi2J+q/4qda3+cPkb/RfNNhr7fqemzPsSC/nTK+l8v/ZP9mPMsfxH6ukvNJ84+ofaGPlMwf0XKViwTS/jvgsbC3J8ukTS5/Gzy+el00fwQ/2mMZPwryubYvJ/NF18fdumH98Ht3vA39c+B12Xzj5odHXrk8el1o82PJf65cbH7n3nub33n5qv10hsutjpobR4e2wHbn3Vf88reaj6+95sdObr5VuZY8hSj5iuRvr36h+eyDzzQ/8U8Qfnj4evPl++9vzr78dnP83/+unXuljw6e3yfHzQ2TB8lN1g/lO66T5V0+KD8vNU8//LD14P99UtrjCqppW7vr153m4O1vN48//GBzts3XJB+8Y596tLnW37nztvOj6edPmvP88v4t0/6/XOn8YfDHbeeLaLmPnzqeuy6pfEq1NaKdT3LH99enTfFMXoc5Tl+vdXu6153X0fxn11HjOfgfxUPPf26bofaUzR/+70k/X14z7QnzX2irFAbdeJQ5S9Y37ZU6TZhz2/pN9/dFb/++7bnrXfz3oV7fLe+3fzh/SF+XzTf91zpO2fV9v7T937wOfc2Ox/D3qeo/bn9uHX3+o+OlvR6m/cXtp53/cu1Tr/VYEzatX/o6xDzKT0fiF3vQLV+0CCkHD4TGxK9ddbTrxL6BvpF2XTXB9bd3v4eioy0OmYDan9H2fp8jhMk8kG8vrwNl8XWV8y4J7QiD101AbpLuby+/hwp6+GPS3SGJt4/33cf3n8K+4Nhr3giTiZ0k3OQvfXW0v/Xa373WnuX98q99O8W3/nJ/N8IcX98x0duHSV3fKeuW+zEn/vmxFYokYfIMf/R3+zLHG2iP+4Mpjl9pTGz7JsXkqS4m9vy7+SNM5iEmtnhiJvu0velrfZHKLR96HS5SweNouSTFPvlzd7aPmr955fHm4Ycea1666p7wC+sf35a73i6JlfMIMWnnO3O+Tz78ULP3o1vNTbuu/6iRvct9X/PUT+TpwdvN7fZYt5vLz0iyumcvDqFNvfnVI0XG7q75ueZPpH0/7r6jsr+OcH9zr3nvsw/KcVRMjO/2yYLHHmye/M7bzX+9cG/z2098r3llzyTQX/xu87ItQu43v7p1q7lh/Al3/+WpyM6/T5q/9UXI0HYhF48wdzylxl/UH33fEl/DxVH6sFunwy3v9hcuqunxurnI9C+bTPm5KNo+3nef/njrFeEefarZk/6wJx9n8Otn/0AfQOYrlaxsxvgV9m+2lXEV+qP1Kown89PNdS6J6vvTvS67Psjvbj575FznvV0etUetHzzz838gt1ziId66mF2O4+v3H+a0sL1bJ8k3Rufj4dfF871haHxaJJ5hffmkiO2/e9H4bv84Sf1ql+dfF89/Bf3Jzl+yfpgPBDsHS3/q5sruj4j+/OzG5ni+N/i6HU9uPPaWD7wWDzaur8ef7f/it57/Q/Ltzim/v/H5I6wbPOj8Gtqf+13PO4+YNtmf2fHRPckQ7a/NA/xYLPCvbHwvnf/J/k27fRHSjYshvJ8T5o92eejPxjc9P7TXEeVnNH+0vpr92/Ejc4/3eOj46nXZ/OFzINmfPp4s9+0W/6Pt/XyWZbT/yu++Dxna8R4tH39dPN/48eT6s+ofIRYh/zW5lr2pGYqM/uPSUvCT3CI84Sfj9wv339d+2qQ7X92fZF2XTx3cOrK5lnwyQ24Sv/CofBxaPh5tcpkHv9C8sC9Fz/ubr/ylbONv6nnvXPv759d+3YwUIX2xsW2fXz+s45bLE5D3N48+8agtgLbzvffg4Se/3fxMPv3ib0J/fO17zaOmfV947Zq96WvzQZNrfRz8uHqx+Y8PPKTG9yfNTZMvvvuafO2Pj+mq5g/zu49V/u9z3572+ujnCnnPtsNd+2177PztxoYdt6b/6Cfa4v3765POR8z+9Tyba4+bD+L8UW8zTLje+bE8dFPW9q8tzx9hPPXYM/OqtN3F1RYh7XiX45v2ShEy5IO9bQNdn3D5eZjL37DXgzB/hDnTXe/U+tl5ys2hQ/lD+rp4vinKl7v+0F3PTLtzN32yf5+HczP5fbp+QPK39ryDJ/54PreL2xv3t/h47nfxYOP529fx+MniPZf1c31bvgrHxVji7c43vv4ED/bcT4+uMS7yJOQwrjIuAyr8US9PAO3ZP0hcVd0FO9zVzNyNNISKsF3XBF9XlV2w3CDvXnfbhOTSvi7qiB3tPj6FlMXX3akSn9o4yhNeEkMbJx/PNma5O5MhduEuSldBF1y/Cf2j5E5TTG/9DNJ290eyWy/0M/uHefiZtCtHmWeGkn4YPJvUZ8WndAypc9djQbdn6H1DPD4dOxeTCR4//PBXm7/Y32u/v8fdVXeFu/ROtiyT5HJTTB5/4L7my/uH9qlH16ZPmqO33Z3/L+8fNUef+Pfki81/faf5C/ul7BeaP/d3wmWboZi89ndmuyOznjwJee+55oUr/g66feoxHO/XzXvf+UK0/MaxfAF6t1z4yTMPNmcflQKpW88++fjoK83FP3rYJswXvypfBP+62//RcXP72JDsQygdJ+Gc3NM1zjPdd+J+tL65KB079rXdp9t/eBJysB/7fll6Heq1J8OJjqv2POUOexgDxg8/33SxUPhlbptkWXZ5PlZDc1rrUfIkckqJ59Pnlq4vjC/PnZN/L+fZCMXXJCHrWYhb0s9NH7L+SRt78fRjK9OP3JgYoF0/NzalXcP7HaM4TpPOafr8ESjzIKHtJ5k+5HF9O7MPu+34vJBS1m+cB8vNubK+Wa6fymn/lpBjufej8dCbHxKi5aFvd57251C3TrR+OGbWV3eOg8dXTJlD+34ZsuM1pu0TUZuH+1DXz9Q2E5hyTr0Y9MbcneZAPhEi+Y9ZJk/2yZOOae5iufZqc/ZBebLQ+273JecZ97lww9XdYDU52he/11z5keRGLpe58pNnTI73RHPxsnvqUP6JYHtzVv5pzdD4tLhcKxQhO5L2ypOLh281Lzzqnty8cRw+udB58PAXv9u8Ge3DcOWV5lGTdz753XeaozvijX8/5FrhSchc32vjOhz7k58/DLq/DRH1XfN6z8wFtv+MPEkbtsmNkdDPcueUW9/TznHqvXYuil6r/WrvzO9RnxefzfFelTxQcjJp88jxU4o97mHGxDmTV9tPg0jb9Jw1dc6Nx5dlb8+/58479sSvL+euvTH76rxU67THyTO1nwVf0zhFsW37hyfpS9F5hTb6/bvzD+3u5u7xeF5uLps+IPvOjt0NzO8H43TxMK9b//w5GU8u2+WqzSMe6Brj6RchJeg+mO3H0YqMDwHtBrxFn/gIuhOkHRD6lMXXTRbibTSIQ4f1A6tkQm0np2iCC7GKY9lHxTKdQHLoY9j1zYT8c9MHdV8y64Q/yO25LTghTkNN+tk2dWPOHWfso4fxeMy1Z/jCm+4rpbKYKOLzS+YJm0C65M8V6iTxfL35cihCToyJ/j4j4bMPPtm8ds0c422TVN8nRUifaEoyfsd93McW/3wRMhQux2LSfW/jF5qL77q78OHjTeG/QWbJxOTb75g/AvYvNL/9wIPuS9Ufvdi8uGcS+wuvN3/x1Yeae79yKUqO5ePYdnvjWyhslsak7Xuh/4i3/nfxMu6ba5uL1Dj1++n6bNcf4nPw64TjbponqhpXyo+WZGwJJedk6HIGnxcoX3PrBx9cDLs+Zb1VfWqj54piD6bGSTHW5zoPhpkUJ/ljxPsXzt/1z/RYpp+kBUHvm1svWdYS4tP1d4v2P/N+tx8da7XeBso8mHtOOfy62ZhO9ECP0yzxNbx7X928sV+BpH6mYy5DqWdyntJXonksjKG7nnPlPd9uP0eJP/EYTs6n50Oens+edt+ZZSF27fm0sXFtCGNlux67Y9r22uOV53Puvfhc5A/HsCwXlzaO/lgl56GZNN9YfNwj/HF1rvXu9+wnRtw/csl/dFmIxqoQbiwYnr4sedo595SjyVv+4jtPNg8/8WrzNz7Xklzmb+zN2kebi9dcrhWOLx/PPi+Fy03j/5Pj5me2CHmrOfIfv25RH9GOyXvw7XfcdjeO77gbySZn+4/3hSKq8eKB+7si6X3dP9+RT6m0N5FXPX8YwlxRMEeEjxKnRUgbczUX2D4c5hF/XtH+lSe9eSC3viea4zzTckK1n2Sec0Wo4PHQ/BMzbaz1r52u7dI21/+6sePbUTTn+r5r96uOEfqT2YcrVoVt1PrZvinnrvcZjpNnaj8bx/luz9UXUtv+Ec4nnEe7P7NNuu/Q7nabfj8Lfu75vmDzb90nZJ9RHxmmyAPVlo3447Yxl+39Ocq46K5zhnCuGzzQNcatFiE/+eSTDVxynanlbPPqNbfs0oXw3l5zKax/OTmRgJgid7rs624fWfw+9i5nlnm6Yw8gx8ts92miKL5tTAIhliHRjr289spZta7iwiUVe9UfMrh9FPQBf9xofdtetW2uv5m22P5xzkwQcg7htbRRHyND2ZgwlPbRzDFd3zUe2X3kfHDenzWTnjtOt07rf9q/fRxz7WmPl7yv2YmYeNz5nm32Lrg2hp9t++7cbq7fvNl8cPOwObzj3rv8tCSGTzc/krvoD32hefGtW80ttc+hmBzfPmze/M4T9hwfeMwkwHa/hsPbzfF7rzVPyMe09/3r41vup9nfnJjcuuX2fd0kx4d3jpuP5Tivm4RbEm/z+///6uPd+iMxaZ/83LvUXP6K+f3RC82XHzWvz/+w+bPz9zX3fvXH7bHs8W7faT5RbZf9lcbExdz1me6c/TXl3Fk394Q+sLa5yLYnbN+/Dp7NjlG/Xjin3FgwRONU1lnzuFJxseerlrmYBrxXvp2Dc6PfX7cvH9+0zX69dD9tP9LL9TE3HV8x1YPQ5rjf+PbrObl3jgPrFTB1/uv3VUO2PyR91SDenjWvr2WWWfx59d73nqf9I7e+669LeVB+TrPnj1IP2n0I+Tkm6kd2fTevuH2r9vplr14biEuGIs/CubSE893unOu2697vXrvjRP3G76do/ui1f4xMLA1RDDLLxyjrl+oc2zi6Za2fyXgY9LlHck7eO+fnwvON8j6KnyFcF9zN0wvNn0mu9eNn7HtfvXxo8gqfX9lczP/ei6s/N/v72eaxx8PXyyQ3fj//bXt+P/7PDzX3fl6KkF9pHnzw880L8o8DZfsWN3bStua4euXNfq6lsDmRrLvBgzbXuu8rzWXJoSRfM6+//Lrsx+WfUa71zveaJ8w2n7v4TnNsclHZr2Ol84ewabwabH/wx3S/uyLk2VcudfNMSui33uO9y6Y/m+2utXOTP9e0f7frq/c8rl/m54HA6HzgzzUlGm/t68z2CWUe+5ilmPO+1La137fdeXTn2r1W85Hev42PPwcfK9lGrp3dcZL1236VHmP5fpbGKYqt8eOS9qQdp379EMfQPllu+1Hc7vZ8ZP2on3U+2eOa/PuS2a9ug9t2fFwEij0IaC/8ueX6nGubb7eKVWhb65ewwQNdY9z6k5ByoMGfP5cTNA3/uVRVpTGP2JOQ5d2JGDPeSLf3Qdq73L7vAuQJ76fV1w30jzNwXG/88Hq7/7MovtZ/VynXA0iWd/Fy8Y+37+68uNfedx+n8L6rxHfvj9MdJ1Tq3R2crt/p90N7bDt9f7LLzeCx7TSDKtw52Nxv3M8wGWxaT99VyK8X/Oj8lPeDH2E7dz7O/257t+3ZC/6uoWDPz7/vL9wyAbXHs+NU9ivrxPtL46rH7Wa68R76g0x27jxcvPT7oT06Djo+oZ2yftT+kZ9F/Vh+tvF25x/NV2GeUfNR+CnryUd8vvy6+8iNK0iaxPnwtn0K0K3nvH9kb69tvzs//76/o/u0TbBv2rvfH7/rPlrz9OW3m28/+UzzI5NsypOFkhincS8ZJw+3Hy0611x8z233k69Kkntf8+h334vOd3yc3Gn298x+zv/QtvODt9xHhCSxl6c2pf3ydOYnnxw3B9Je84fCDd/u4FvZOOkuZva1vQh2/SnEq+03drnrp6k/4Xyi7ZPjdP3PxST4Ft6f2+/b4/j2un4b4m781ecV+lm4/mycJ1Y+rsL5bMCOC98u53M8743/9PEK/SS8H/kd3vfrJtf38f4x/LN4vlf+DiJt8uvrOHb7UW0fOk7mZ/H8p352fjjy/S8Zn9Hy7kkG/X7Yb29/vp/o+cb+TH0z5+7+oHFxEp90/x76WRyngXa7n0PnWzZ/hPXDuOyNM/+HQbp+dB3S65ufcT+51FwOH5Uy7Y/GkfXXrTe2P/2zfHy7edadVzduw3n2+7H8LMv/3PpqmR+37rz1dTrNT6bMH91Pt19zfPt1Ffl+7/bftTVP2TxS1i/d+U/K5+SnzH9hnlPXEdv+8H66vuxb9+8w/rLjIf+zvN/4cxkhd124fFueDnSFR/lHLzZfSvKL9mdov7/J5r7OwfTHN15tPv/YxebPXz5nb8K+afIV6a8PPP5q886PnzG5zLnmy3tfaJ8sFPYup+M8czz/89q1d2zhUT69IoVC+/6xPNWpXvvxPsbDDz/UnNu70PzOhdftef7Ny4829z70THPplsoT7ROPd5qPJd80Odf1KO8Mvq10/pCf3ofhvCOMfz3POMInKe04tf3XtcteZ8J1MvRrQd7T86waF+3x2rxBjhvPI+761eWVYb4ow/ln2x/NY9382O6vcLyVX9fkp/dRje/u+CPzsfdR9we3XfBBXxe7/qOPH5+nWj87D8h+x67D8c+p/WwcHe8w3n2h2/sQ978kX4narX1J/PXzkrzW/SHs55rp16HYG44bHyf+OasfhPj5/h7mtW58h/7iCv72nH08Qh5nz8f6queD/nnLdrrGeMJPQna4kzMd0TQ2BNIN9PC7rJeceLjjcU62ldeheu5Myx1HT2rZ5aN0BuaXf3qYGl8XUxnEIaYSa++nj3s3sN3Fw/30d6Ts61A0HI6f7ke55Y5wnLA/1ZYktrbd/r3we2iDTADuj56y/lTsmRn4MgkN9uHQD/3k1L7OtKMbS/69MNnKtvZ3PebcJOvWUR6GbQxxm7oJy243QPUx8eevzz208bWfhycff+g/cm2SQLtOF5P07vz35YnAhx4ejMm/vvfzzbffS2Lykz9q7r3/C83Ft/2d7df3ms/eL//B8f7m3Hffs3e83R30u4iJ3E2Xfd86dq/vXG6eNu2cGhNbaD3/Q5MUP2LO5f7m3sdfaf7M/u7u0ktiLOvZu/TqCcjA3Jhosufn6Xw9xblIjSlZx+03xCy0y2N99e/pJzz9Psb7eTiPlc517XmFuUzRmwfz7R7H7z/dxu87Opden4r7hPai19YMc+f7uN+k/gz5NeLjCOVxMkR91vRV/bp33JFYZa5vwVv9XrqsN1/mxpbadzR/jlDuwZRzcutOmT8meZC8P4z2aGAsWD8zXo4wqd8Ylppz7X5t3+ti03mijmHPWf8et2+c0M4uNu0xNuzLrTfN20CRx2EsiAcqjlHfT+Pbjh/vo38tv18zfnXxSdbPnWtYVjjvlPebzHwWPmXy1sXmcyav+Pz33vPrdnGVT4/ET0J2n0jRiD8PPn7O7ueB//yaPZYrJJqc7iffa8499u3m9VdMzmI/CXLY/H9PuVxL8rYH7n+kefEd/7RiIDOnDWE96OVax82tXjtH5nR/vMdever24/PPe592BcnAplxr9fPHRl997L1Htt+H9ul22f2437s5I6zjt8n0czeOMmOh16Ywr41fb8bng0vmmhr2kxzDn4v75NWEfpZ5P89AbC3O43DMzr9u3G2cczXJMWJP1LY6fmr9aJ3o/T7FHvi4xtfi7tiuH+jYujbE8XHnJ/tw66dxCu0Ohbtuf9Hx1HlHfdWi5gRZL1qWZ/Kc68/BvpeMv9YHf77x+cV9V9rm/mbo+5Z6oGuMp1yEDCegG60C9JfdY7DWgHN7UYLS7k8FsX0vWqZMHqU7VsfAfj9lTI1vGJSWZOB0HVvi6zq9rKfjq+Pl+kPcR+JlAzFS+96Ib2PUbkW/v+Xbo5niWTwecvhz9P15dDJqzztpY9h2cJl/T13AZVnatngi6rMrMdHIOT0sH8t5q0v4Atcv/5Frk29vlxjLR298UpyNiVkuH/dp77CrZce3/UeO9uxTjy4RD8nwnebKxUfajxP1vMgQxcQmxNK+O83hodv3f/AJd9hfSvgeyd9+/Hu9mHTfMXlv87mX3+q8sR8Xko9PeZ/Cx44SSmNyySRkr14u6T9xP1jFXBThrjPdft3FfLg/Jxf7Hma9asbVpnNRx0/moTL8/qNEOYfbr+1TKsfI5QltH0neTyn2oCRWoZ/6OVs8GT8fYbNXRW30xxTy84rKk9rx5N9TfyjE7VVtU+fU7lMd05KM0zH0cfLtjSnvq1POaeL8MdMDt30+zv1l3ViIXg/se4xyzxyLzLnij96Xed0+kKDHZ5g3/nLi/KHbku1HiX9pvEbZ3I6pHsf9JZmf7LKunzk/1bhN2jPaL3uE/STHzFB+TvF1ofsHfx2SW9gcIsTXtD+ba6X7Nuf0zE/M8quXmq9+8QmznTtWW4R849vNOZ/7PPDUD22u8mfnXa7zntwMvu+R5v951+0rvmZuPn/JtX765pUu15I8yH4sO7Ou96DNtR54SB3L8cR331GF2Uey+ag9xkCuVcP84drRnXOfgfabfrEX2qXGshD6s923PZ/03Dqi673qa+32mf0OMeZ3NH5NO+J9d33Lvb+lsaaPGSH7z8wPsv6UOTcqSGqP9b7De7KtXt/vyxP7MeBhwuQ51DMaJ4trp8Q7tCuNfT9O8TmnuWU2rxyKz4TxVuRBGB+9/aox7gnn6XLlbt3Ys+5cY1/yHuga41aLkHfu3IEdhfhOB8/Wx/yY3G5uHBw0vzQJ7215bZLLj+S15yP5T9Vh3dtH/v2bzc3jsH2foyP55zL+tezv6HZvncDRkd7fcXPzptp2CtI2fRx7HjebG7dV+3vkj3d0FNoj3shy75ElvB73QGCc1A8xrMMD4oQHc8Cz5dlFj+ed027lWq0HK8i1Tgvmj+XBYzwQavBA1xgXKUJKpVMfkNf1vya+018Hz7a1P17f/WuJybztu6RPPvLilrn35M6zToLlY0GSbLavM/uzia5Pst366nVm/du3zDF84ixPQt5WyWZu/exrnxRHy2+7u/Lta0O6/a1bh1FyK8e/efPAJNO59W/b7z8Kfxh8ZNbr/Mqt379opst5vf7XXB/qmO/nz3+785r5Zvprxvfyr2uYP6a+njffHLe5luQYbnmXf8k/YWnzkeNb9iPYcX4S708+mqwLmvIkYfvakK4vT1d2N2rle6w3tTfzWt3sbceOybWknWPbS7ExzseO7ROUIdcSuvXj/FNyrc6v3Pqn95r5Y/nXuzh/TH09b77Zrdd6rAnb3v82XusaI09CQhHEdzp4tj7mx0TuULsk2N15Du93ybFObMdwd9r1NmHfA3fc/R10nWhPJn0CshBpq06ALWZfvfcilCcF7Wac1A8xrMMD4oQHc8Cz5dlFj+ed027lWqUenESudVowfywPHuOBUIMHusZIERKKIL7TwbP1URwTSSTT5C56TyWx7fsDia3CJcVmPZvs+n2ZhDUky+MJ5wZybQ7vb7EAWbYvSY7LkmLGSf0Qwzo8IE54MAc8W55d9LjonHJ5S/Re3blWiQcnlWudFswfy4PHeCDU4IGuMW61CHl8fAw7CvGdDp6tj6KY3DpsfnF4q7llEsNffPyxw7yWZdF7Hx80B7fdNoeH5rVJeG/p/UTcbg4OwnbCYXNoksxfta8dvzJJZ7zdreag914G32ZZ/3rYn2/zHOR8rt9K3pf23sU+h2Cc1A8xrMMD4oQHc8Cz5dlFjzee06cg19rkwUnmWqcF88fy4DEeCDV4oGuMFCGhCOI7HTxbH5tjIolll/DahNMmmiaR9evEybFbdv1QbdNDkuKwXCWuueRYJZ7uON1xB7H70Md3x+gn2WUMJsXhGJmEXv+RMBXGSf0Qwzo8IE54MAc8W55d9Hj8nD4dudaYByeda50WzB/Lg8d4INTgga4x2iLkl770JV9K9FIrlCqc+O3bbjIOPwPp+yyvaznxnb5cTwa55WEZy09uedqP0+XHRzddonfjhk8s/V31GzdtgtquZxJmnRxeP4r30+3fJcUf+0TTvW8SV7N/t61Ljj8Mr/1xjo+Pmuvqbn+6327/BkneZXv70SN573bz8cdh/5vaF78vbbtlEtzs/s1+PjSJ+61btxr5AnW9/1/c+Ngmxpv2n1suMRlbnnuf5e5nIH3/pJdzfXDz/djy3M+TXr5p/tu0/S4s13HKLdc/We5gfC+/vIb5Y+ryoX5jf7ZFR5dXdHmL/KOZbt9SiOvyoxu2aBf2E3CvZfs4D2kLkXZ7s9+Qt/nXLteSdQ5trhW1zy7T+ze/t3mPW7/LD4fbl4ur+3nb5lr6/TT/lFxL/jGg3r8UIUM+Gcjvfz3LmT+WX76L88fU5Wk/S5dv2n4Xlut+kFuuf57Wcl1jlPrjPc8995wvJXqpFUoVgg+7CfGdDp6tj40xae88d3ebo7vkdnnBHfMe+q58iitExne8R44h6+qPI/W2zTHz7rkkwFJ4DE8kqKcH7DnZ14UfYxqAcVI/xLAOD4gTHswBz5ZnFz0ePadPSa5VHNcTyLVOC+aP5cFjPBBq8EDXGOWT2FsrQkqVE3YT4jsdPFsfc2JyJN9BdEO++PvY/+7uostTh7n17d1ss47c3Y/el6cbZdssZv8mCXV3/Ef2bddxbem/H/b1sb1Tbt83Sat9usC8L09D6m02Yc/j5pH7PWmb22+/HXNgnNQPMazDA+KEB3PAs+XZRY+nntMu5lolHpxUrnVaMH8sDx7jgVCDB7rGSBESiiC+08Gz9TEnJjoxdglil3impMlvmhzbdXQSe/NmnCzPSIo17b59Qmvfs4n68HYhedZttees99Em2G4/N28OezAVxkn9EMM6PCBOeDAHPFueXfR46jntYq6lPTjtXOu0YP5YHjzGA6EGD3SNcetFSPkOC37u3k/iO/2neFayHj9P7uecfixJ4vvXD0xCeNR8dP2GTQhz60lS/JFd77g5vOkS3fevX7cJZ279myYpPjC/u+2u26T40LxO15Oft01yKwn5jaNuebudSVZlP9168XGl/R8d5vcbln/gk+Dc8vDzpjkn8eHjwvVLfzJO6v/J9aGOfkycmG/m/KTfLP9zF/vl1H7j8ibJZw6b60m+o3/etstd3uPyM8mDbgzmJfK93K4wKNuZPMZsKwXIdD35KcXFD5I8r93O53fdevFxpf3yFKTen46rLB/KB/XPgwOX190oXH/tP5k/lv+5i/PH1J/0szr6ga4x8iQkFEF8p4Nn62NOTMJHfvRHb3rrJB+ZkYKd28ah73yn2G1vDt+VF9r9hY/otG0KdG2bdGwpWvrlR0fuH9uk6wTsHXvZp7prvw0YJ/VDDOvwgDjhwRzwbHl20eOp57SLuVbwYA251mnB/LE8eIwHQg0e6BrjVouQUuWE3YT4TgfP1secmMjThXJnXO7KZ5ffPrRPSH5w43rzvqx3eLP5yCaPR80N+55D7pb3t5V1hvetkbvodj9mfbmTb5+atG0Lx5AvRN+8n9uHB+7JSPPz/YPDqJ3uiUl3PrpN3Tplx5gC46R+iGEdHhAnPJgDni3PLno89Zx2Mdf623eurSbXOi2YP5YHj/FAqMEDXWPcahESAODTxtUrV5qr164171x9q/npm28a3mrefNe9lgS0e//N5mdX3+22te/7ddX+xrh6xe3np1e69669e7X5mT6uWj/l2jtXXDtMm3/m93H1ylvNz97y+zX7+FuzbEqbAAAAAJaEXAsAoG50jZEnIaEI4jsdPFsf24yJu4vt7mjb19Gdcnc3Xr7bR+5oy3f76PfTfU1Bvt8ovUPu7txvvnPettHf3Zf2SfsPj0Jbhe7OvKx/w5/fUjBO6ocY1uEBccKDOeDZ8uyix9s6p5pzrZ++dXU1udZpwfyxPHiMB0INHugaI0VIKIL4TgfP1se2YhKS4pDsfnR41Nw4kMKe+yiN/ahNlCjHyXFIpu8Gl8i6JFYS45J96o/6fGS2tx83yrTPJtnSfl+szO1rWzBO6ocY1uEBccKDOeDZ8uyix9s4p9pzrZ++eWU1udZpwfyxPHiMB0INHugaI0VIKIL4TgfP1sc2Y6K/3ycku+33LcoymyjrBNokrwcu+Zx7h95+t1BIWtv9ju/PbePXPThUd+EFuaMvd+bDf3jU57T5bv82YJzUDzGswwPihAdzwLPl2UWPt3VONeda8tFr997p51qnBfPH8uAxHgg1eKBrjBQhoQjiOx08Wx/bjkmaHL9vkmFJMkMSatfxielHhyFJnpdw2v34fU7FtdMcNyTJN0wibNsihC96d7/fOFLJ/MzjTYFxUj/EsA4PiBMezAHPlmcXPd7mOdWaa/30rbdWk2udFswfy4PHeCDU4IGuMVKEhCKI73TwbH0sFRP9HT/hDrxFin0+uTy8aZLmmXe77yYp1uiPLX1k2tP+fug+ZvT+wYFJik0CHdbj49hQADGswwPihAdzwLPl2UWPlzin2nIteRJyLbnWacH8sTx4jAdCDR7oGiNFSCiC+E4Hz9bHUjHpfbTG3wUXSj8OFJJWSVKj97eQFEffmdQ+BamT+HBXXp4c6O7Op21ZAsZJ/RDDOjwgTngwBzxbnl30eIlzqi3Xkv+mvZZc67Rg/lgePMYDoQYPdI2RIiQUQXyng2frY8mY6C9Qt9/5MyGhdf9xMSSu3R3xbd2VD9w+OrL7Dsf74OZhnNCbZbn/CLkkjJP6IYZ1eECc8GAOeLY8u+jxUudUU671ztW3fDtPP9c6LZg/lgeP8UCowQNdY3zys79BERI2Q3yng2frY+mYtHfBJ3y0Rrb5qPAOfik2oZZ2DCTVXRJ/o7lxKG2Wu/OnkwwzTuqHGNbhAXHCgzng2fLsosdLnlMtuda1a++sJtc6LZg/lgeP8UCowQNdY+RJSCiC+E4Hz9bHScTEfWdR2R3ukEiHjxGFhPZuPpqTfoH70L7a71Y65e8iYpzUDzGswwPihAdzwLPl2UWPlz6nGnIt8WAtudZpwfyxPHiMB0INHuga47PPPkkREjZDfKeDZ+vjJGLiktvNiXF7B91jP1bUPqE472M6Lil2d9rHEl/5SNJHB/r4p/exIMZJ/RDDOjwgTngwBzxbnl30eOlzqiHXko9jryXXOi2YP5YHj/FAqMEDXWPkSUgogvhOB8/Wx0nExCW3+UTT3o1XiWp6J/0Dk6zeOHTJsdxVT+/eb+LgoPuoj/7epKG7/SE5L93/EjBO6ocY1uEBccKDOeDZ8uyix0ufUw25VvBgDbnWacH8sTx4jAdCDR7oGiNFSCiC+E4Hz9bHacbEJbn9hLmXHKsktfRufbyPLjluv4R9i1+4vm0YJ/VDDOvwgDjhwRzwbHl20ePTOqc15VqMHTw4CfAYD4QaPNA1RoqQUATxnQ6erY/TislQUtwuH0iO3ftdopvDJc9mHful590+3EeDxhPrw6PTvyvPOKkfYliHB8QJD+aAZ8uzix6fxjmtLdcKHqwh1zotmD+WB4/xQKjBA11jpAgJRRDf6eDZ+jiNmLikOE5uc3fdc8nx4c2DwaS424emnyB/YBJr+Rk+JqSPM/Qx7ZOEcVI/xLAOD4gTHswBz5ZnFz0+6XNaY6715ltvRu99GmH+WJ5ij/fPN2fOnGk5v6+X7zfnw7JzF5ur4f23LzZn1TZnX77abRMtO9/sh/dPAfpZHR7oGiNFSCiC+E4Hz9bHacQk/dLy9EvS9Ud6cslxur8USbw/Muu5BNxs5z8O1D9Ogvq+pNOEcVI/xLAOD4gTHswBz5ZnFz0+6XNaY6710zffXE2udVowfyxPmcdSZFSFQluQDK+vNhfPdQXG/fNnmjPn9/37Z5uLb/ttbNExvI6XXX35bFy8PGHoZ3V4oGuM/HdsKIL4TgfP1sdpxSR8X5C9Ux4S5JDIWtK79PHd/BK6RDh5EsAeZ/jjSacN46R+iGEdHhAnPJgDni3PLnp8Gue0tlyLsYMHJ8E8j92Tj+5pSPldFRujAqUmLlZG2ALl6T0NST+rwwNdY3zys79BERI2Q3yng2fr4zRj0t6lV19c3iXH8R36w4Gk2CW/OomOPyYUPg6k7+q7Y0xPtE8Kxkn9EMM6PCBOeDAHPFueXfT4tM5pTbkWYwcPToJZHuunGtMCYvTEo0YXLmN4EvL0qcEDXWO0H8f+zOcu+FKil1qhVAR/tyG+08Gz9XHaMTk46D+R6O7c99/XdAm0cNDcsNvEycnUTYwAACWaSURBVPSNm4cqUVbJs912fP+nCeOkfohhHR4QJzyYA54tzy56fJrntJZci7GDByfBdI+TJxrTJx8HipDdx7T1+913SeaKkycF/awOD3SN0RYhf5MiJGyA+E4Hz9bHWmLi7tS7xFYS47EvLQ939eWOuyS5Nw5N8jvyHUN6fXltE+MVfycR46R+iGEdHhAnPJgDni3PLnq8hnM67VyLsYMHJ8E0j10BMiomFjwJaQuQo086dk9J2nV9YbJftFwG+lkdHugaI0VIKIL4TgfP1scaYuLulrvkVSewQ+j1Zd3cHX5N+E6ksL58rGjTMU4Txkn9EMM6PCBOeDAHPFueXfT4tM9pDbkWYwcPToJyj12hsP+djmPfCZkpWmYZ+b7IE4B+VocHusZIERKKIL7TwbP1UVtMwp31A5Xs6u85SglJcLhD7xhPpE8bxkn9EMM6PCBOeDAHPFueXfS4pnNaKtdi7ODBSVDm8ViRMF6mP3ad/wi2kBQuB79H8mSgn9Xhga4xUoSEIojvdPBsfdQUE/vdQwf+vzvK7zdUspt85Ed/5KjdVtYfSaLXAuOkfohhHR4QJzyYA54tzy56XMs5LZlrMXbw4CQo8tgWCf1HpBXd9zh23+3YfexavadoC5nJPvlOyNOlBg90jdEVIX/3KV9K9FIrlIrg7zbEdzp4tj5qiYlLbF2iG/1u/2NjlyCH7zfq3l/3U485GCf1Qwzr8IA44cEc8Gx5dtHjGs5p6VyLsYMHJwEe44FQgwe6xmiLkJ+hCAkbIL7TwbP1UUtMDg6SpPjwZvOR/66hNDm2HByqjwW5bdN9rhXGSf0Qwzo8IE54MAc8W55d9LiGc1o612Ls4MFJgMd4INTgga4xUoSEIojvdPBsfdQQk/AfHHVS7L4sXRLe7r81xt9FFNicFK8Nxkn9EMM6PCBOeDAHPFueXfR47ed0ErkWYwcPTgI8xgOhBg90jdEWIX/r/3rOlxK91AqlIvi7DfGdDp6tj1pioj8WJK+H7rwf3Iy/r6hGGCf1Qwzr8IA44cEc8Gx5dtHjGs5p6VyLsYMHJwEe44FQgwe6xmiLkM89RxESxiG+08Gz9VFDTNKkWDi8edB80H5ZuvsuIvmoUPieopphnNQPMazDA+KEB3PAs+XZRY/Xfk4nkWsxdvDgJMBjPBBq8EDXGClCQhHEdzp4tj5qi4lLkl1C/MHNm81HNjEWbpjX6//P1yUwTuqHGNbhAXHCgzng2fLsosc1ndNSuRZjBw9OAjzGA6EGD3SNkSIkFEF8p4Nn66PGmOgvR++S4/jufc0wTuqHGNbhAXHCgzng2fLsose1ndMSuRZjBw9OAjzGA6EGD3SNkSIkFEF8p4Nn66PWmMgXqLfJ8YF8XKj+74IMME7qhxjW4QFxwoM54Nny7KLHNZ7TtnMtxg4enAR4jAdCDR7oGuOzT36WIiRshvhOB8/WR80x0cnxLnwXZIBxUj/EsA4PiBMezAHPlmcXPa71nLaZazF28OAkwGM8EGrwQNcYKUJCEcR3Oni2PmqPif3PjTv0FKTAOKkfYliHB8QJD+aAZ8uzix7XfE7byrUYO3hwEuAxHgg1eKBrjHwcG4ogvtPBs/VRc0zc9xW5/9aYW14rjJP6mR7D/eb8mfPNfnj99sXm7Pn9ZJ0cst2Z5vx+btnpUkM/ntLGqy+fbc6+fLV7T2J07mJzVX6aGJyR3+X9/fPNGXldhIq5pij+SZ9R7J8/21x8u/9+jmlxutpcPNc/5qbj7Z9XfdT6M3DeI/T8T5DlbQwWptQzOe983GOGxu/Gcwp90L52c0F//7l4uWMOtW8N80kN88dUaj2nbeZauxjXqeDB8uBxuQdF16mR65C9Tm3IV7I5guQCRXnufE7Sg7H8JI/L4XSN8VSKkFd/+Ivmf3np/ZYzP7wRL/vOh9GJh/Uf+2vz+t0PmzMD29669avmsbAs2seN5hvf6baJl6ltXvpF8413w/uO7/+XgWVRO37ZfF9t45D9Jtv89S/9+g57PmGZ3t9/+VX3vkH7FW1jKGpfsj9Hpn0jFMc3+YNkLLnrBkE6WFVyeUJJ9hLg2fqYMk8Nex1Tuh7kWSImFlssSf8gHR4nNrHwy9bwR2lNFMVwTrGqeJvTH3tT+vFpUd7GTPEtKgCNI+N0aAzpcbYZ1YaRBH77Rchcgcu0JdMfo0TcL++deyjctu1P95/OU86nbt+59gywwB85s/v2SJ+Z1g9cfLv5X3y/aDxJfcv025F+syZqmD+mMu+cXF9vx5Aec1FfSsfEOvOvXYzrVIo8CHNkwvRCx6eTKf1sOI/WY2pkPCWxSmN0Wn8TbW2sRdetedfefE4i16dl/75YxoMc4ks/bxnHXZ91jfE//ft/dbJFSFdQ00U7VwQMxcS0CBmvL8VEVTizhbbw2hUaw35scc4X32QfXbGyv15b2LNFwq5tUVuiZa7NYTu7XlToC4VNXeST99R5D+4vbl+0XnS+pe1L9qeW54quQ5TFN+mUNnnId1KbgIYOHq3nBmmY1OxkVkECmQPP1kfxPDXo9bz1YJhtx8TSJkl6nZFxovdnt13nHzRrpTSGlrf3m31DNO+J57k5y8QlTXClH6yxSDzJg1NiylizHuu4+KT0YvsHhiGMxwQZW5NiNBR/xVihcftFyIBLmtN5Jne83nXXziOxD3YOs+uY/t9658bCee1rhBxLrz+CzGMbfJzD7L7t+8ymdkdzu2C9Szw2752P5gLxLeeXipf4UeLbCqhh/pjKvHNycW3nn/C7WRaNMbusPzbXxi7GdSqzPNiU40FEqcfDeXScHw/PnbKempuTuXp4/8tT3M+kXWPXSTmn9twLr72yjdpnmyP4Oax/nRKSa9wWWMyDbPszRPNzZrlB1xifffY/nWwRUhcHA7qYNlxYy6ELbFJYU0W1kW2jY0TE+5C2dsU7VdiTfWefLjT4JxAf++ukPT3U/uw2XVt7frTH6hdQs+0b2V95+2JmXUR0MpEsk2Si++NSrye/q4F5wpPYNsGz9VEak2Gv560Hw2w7Jq7/m/GwLxdBPQ6Gx0lXHJBlSTIGGymf6zLeShyGkjyzLI2DxGqNY2zefH+ylLXRjBM/FvbPm/Fhx0mXQJZ4L2N1UoySBL6HTWjDmI4T2oiCPxaKPMgm0KbfmT8s4vcMuXbb7WVukTkndy0270cJfn8d6ef5OciNoeCveD36x8QWmN23xYeRmNh5N/Wzh5uz7XlG7+V8E2/8e/rYmXlkbdQwf0yl/Jxcn7axNXNOe21Prw3tuMosWym7GNepTPcgnuNgM6UeD+bRG+bqYeKcrjhPX4DifiZzx6Z8Y8yLkeXpNa31Ipqv9PV/uyzjQWF7ZZuwT/17i7s+6xrjyX8c2xYH3x8oApoAhoKZXW9TkWy48OZe57fPFUItUeHSFfzc04Tdayn6SRvP/PBDe2z3UehcsXNDkU+3T46r/VDtiAuNuu3D7RvbX9jPxvYlTL+IGKQT6j/6W9ILjJrE7DYqsRzcx/rBs/VRFpMRr2etB2NsNyaK7LjIj5M4cTqZP+x3idK5risgSnIq3rskVSdtaeKWxjhbuFgooZvCrPn+hClqoySn3tduvAkSKzV+RrDj6ZyJ00BcNhef4uuXW3/4mrbck5AziP7YMKTzjiXt97I8TvTlnNO+b+elnA8hZgvNWbM9k3MfGZvdfGBox3rcz+LYao9SDwOJ16ENql/3KevXS1LD/DGV0nOy/TrE1cfJ9ovsWHL9IZ1D0rGyFnYxrlOZ7EEad9hImccjebR4fv6ife3GVOk11c3Dbp8z8vQtUtzPRq8Fnqj/DV1rFNG1V9ZX/iXXwSn5ylSW88DFMrteQHsg55zJR+TcdY3xlP4xjSuYuQKeQRXMbBGyLe6NF8miYmJaaBsqQmYLcl17sk8WqnVCEVK3LV/UHCvyqYKheR09qSi0bYzXE7pjbWjfqRchxyYfPWkJyUSoE0KVdMT7WD94tj7KYjLi9az1YIztxkRhx4EaF4PjpL8vipDTmBJDl7C4+ckWq5IY5gsTA8tXxPT5/uQpb+PV5mrv+iHxSz82nC/ehLi6QsHQtcjsL/eHZjpu/TiVoqbdj4zjZGwuUoS0x9XnmiFqh5tH8vOG6/tdX9bn7ny156v6u3jXrm/nLj3/5bF+5zy9S2b3bfFwpD1hLNt2a9/s+YY5Qsc255t+L8XFJOvbhradNDXMH1MpO6c0Ruq1H4NhmZ5Pomt0st6a2MW4TmWaByNjFgYp81jmzP5Ys9eZ5BpTei2Jc+WR/attlqK4n2VyiIjetSG5xqTL5XXv+uVzhAxL9u3lPJiIn5O78+6u57rGuIr/jq2LeLrA535Pi2dqG11oK3kS0hbjxgpvuujnfh8s8umi46Qin9tPb/uBoqGcZ74IOdy+sf2F/SxbhHQTz3AHTy8yaqKyHTdXKAjr1gOerY+ymIx4PWs9GGO7MVFkx0V+nKTFsDixgk2Uz3UStzA37Tf7Jp5pshsKE3Z9kyjZuIwldXeTKG2RafP96VDaRtv/c14bSuY32b6NoR1n+e2iWFvScW4wsT+/r/uN2y4er+XXu63FSc4rzBG2f5pzMe3IeeYIy9PCmfzhFuYlOU/3e3qOwZv8vh0lsZnDbM/Eo5HxaeP/svjoPoIbnY99T4re3Rytl+t/TKPj3/nW+RX3Mc+Gtp00NcwfUyk7p3zhIryWeLYxN30iuoYr1nrN3sW4TmWSB/Z6kY8xDFPmcTy2wms7X8o1TM+HNg5mXv2x/AzzbnydtWMumkNH9t+usxzF/UzOddJc4eaoMA9laffnrufhuqX3E13TF7r+LOKB7QuZc84Rzinav/QD54d4oGuMJ1yElEJZpvClimbpU3y6QOnIFPEsSVEtKbyNFTQ1+nhxAVA9eTi7yOf2oYuKlqSAqj2IC56q0GheD7ZvZH9u3bD+EkVIN1g3TToyeXXr6CREfleD1yb3dV6Q8Gx9lMZk2Ot568Ew245JSy+ZHR4n9g+d6IK5eTxCR1kMXcy6hEXFRmLhkxeJc4irxMX+HiU0GrPPBRK5OZTP96dHURt9wjk037n30z82YnQMHV0SqteL3x8bd+n28rrrP+t4ElL1V/VeYPMTfd26QvQHSw5pX+kfEXfJ7L4tbRwZn51fyThW51bkm13fFTLFs6tvG9/MnCG/9/uiZ0PbTpoa5o+plJ2TG/ddjNLXCnWdSJfF+cF62MW4TmWKB3EuBqWUehyPE5lD/ViT+VBfh+zroeuqG6O5OA3uP1lvCYr72WA+qdE5Rub6NHC9kn3L+UbXLeul8iX1eoss50FAXXezyx1x/iLreT/McXWN8cSfhOwXxOKiYn95XLjrFyUD/QJdu162SNht0z1NqAp55nXUlmgfuoBXWBRN2tdfNxw3WU8fN3m6c7x9A/trSds3Tll83cRUkgjYC00YxDIYok7d7UMmtFovSHi2PornqUGv560Hw2w7Ji29C/3IONH7s9sNJV+QozSGJUhcQtLaJnISn+ycliSHp8g2PViKqW3sXUvsODHvbfjDQsdwM25cju9T1hkek4sUIU3fkid129eDfbBD5qihc+gV07yPjv5cJvsazQv0Hz4LM7tvSxtHxmfnV+qHwZ9bURHS7yvn12Bf3NC2k6aG+WMqpefUv7b7mEXXcH39dr+3cV3xNXsX4zqVKR7IeB2d9yDL/LEWj68wpuy1f2B+7OUFiuH9L09xPyu4lsfXl8z1KSXZX7hupT6O+boNlvPAE20nfUYvl/W78+6uu2o/ZntdYzyVj2Pb4tlL73eoAl6/CGmwBTYppH1gi2vRtvb9UGBzxTf7vtqHLUiq9ePlahtDWqzrtk0KdrYg6Jel7bUkRT69vqItgOrlSUFT+9UVTB1F7csWbRcoQtpEQA1Kj+uIXecM69vBaNdJkwc14BccrEuDZ+tjyjyV93pKTKCEJWJiif6ACQyPE5s8+WXdxRNKKI+h8j/rsyo2SfxCjGwy220XsZL5bko/Pi1K2xjGgo5Pf3yoWKltBRmnJWOoHc+S1IYYZxPj4WONL+szyQPfrvBH8dWXz7vj+Pds+1V7tUd9dBvNOGj7rYyJdJ5y+xr9Y1zGR9ar7TO7b+sxnEHO0fUT7Ycmja1bb9/Gxn1cW/8H8jQewmBf3NC2k6aG+WMq5eckcfbjxMTkoopZNKai2Erc/fuGkvnmNNjFuE5laj9YayzXzJR+1l53e3mzHlP9a1J/nQ59rRre/7IUe1By7ZR8pF3HXXfaa0V67cjsL70xGuYx8cn9vow3y3kQzkH3Cxmv+nW4Fuufvi/IfmyOt8LvhIT1Q3yng2frg5isD2JSP2UxHCoWqT9ABZ/cdQUKQ5IMdSTJ4SlSQz8uamPkdReb7o8MlVgOeD9Y+DHookJ2HZuo+v23CW+m70gSHdab0AfK4qT6VdSeQGhLnIRHfTah6GlNfU7RHynK801s+sNiBsX9JteeLM6zYb8G+pg/hu2L7fE6/7t1uvfSvtj9gbyuJ65qmD+msovnNBU8wIOTAI+neJDknFlGrtdpETJDe73X16xoHbnGFeQEE1nEg8FziK+nFl9s7K2rrsu6xkgREoogvtPBs/VBTNYHMakfYliHB8QJD+aAZ8uzix7Tb/BAwIPlwWM8EGrwQNcYKUJCEcR3Oni2PojJ+iAm9UMM6/CAOOHBHPBseXbRY/oNHgh4sDx4jAdCDR7oGiNFSCiC+E4Hz9YHMVkfxKR+iGEdHhAnPJgDni3PLnpMv8EDAQ+WB4/xQKjBA11jpAgJRRDf6eDZ+iAm64OY1A8xrMMD4oQHc8Cz5dlFj+k3eCDgwfLgMR4INXiga4wUIaEI4jsdPFsfxGR9EJP6IYZ1eECc8GAOeLY8u+gx/QYPBDxYHjzGA6EGD3SNkSIkFEF8p4Nn64OYrA9iUj/EsA4PiBMezAHPlmcXPabf4IGAB8uDx3gg1OCBrjHaIuSXvvQlX0r0UiuUiuDvNsR3Oni2PojJ+iAm9UMM6/CAOOHBHPBseXbRY/oNHgh4sDx4jAdCDR7oGqPUH++RSmQktUKpCP5uQ3yng2frg5isD2JSP8SwDg+IEx7MAc+WZxc9pt/ggYAHy4PHeCDU4IGuMX7ta1+jCAmbIb7TwbP1QUzWBzGpH2JYhwfECQ/mgGfLs4se02/wQMCD5cFjPBBq8EDXGClCQhHEdzp4tj6IyfogJvVDDOvwgDjhwRzwbHl20WP6DR4IeLA8eIwHQg0e6BojRUgogvhOB8/WBzFZH8SkfohhHR4QJzyYA54tzy56TL/BAwEPlmeyx29fbM6eOd/sR+/vN+fPnGnOWM42F9/Wy/pcfflsc+b8vnrvanPxXNj+THN+P16/xR67W+/sy1fV8mlt0NDP6vBA1xgpQkIRxHc6eLY+iMn6ICb1Qwzr8IA44cEc8Gx5dtFj+g0eCHiwPJM8bouAugjpCohtQXD/fHPm3MXmars8xhYgZR+qCLl/3rwO29hj5IqIchz1frSeL2KGfUobeoXSYehndXiga4wUIaEI4jsdPFsfxGR9EJP6IYZ1eECc8GAOeLY8u+gx/QYPBDxYnmKPbWHvbHNxP3kSUoqBA0XH9InHUGzcj953BUT99KOsF4qa+vcYXfyUpyB14bK/zzHoZ3V4oGuMFCGhCOI7HTxbH8RkfRCT+iGGdXhAnPBgDni2PLvoMf0GDwQ8WJ7JHtsnEFURUoqT5y+6JxELPwodFyfzRUhdvMzjPn7ttssXIfPFyz70szo80DVGipBQBPGdDp6tD2KyPohJ/RDDOjwgTngwBzxbnl30mH6DBwIeLM9kj3NFyLYY6AuMIx/HFoaekHTb+O923FCEjAuVrujYvrZtpAg5hRo80DVGipBQBPGdDp6tD2KyPohJ/RDDOjwgTngwBzxbnl30mH6DBwIeLM9kj3NFSF10tMvHn4ZMi5DxP5U535wf/Ai2Iy5aenzh0e7jnNkHH8eeRA0e6BojRUgogvhOB8/WBzFZH8SkfohhHR4QJzyYA54tzy56TL/BAwEPlmeyx2kRMvt6ahFSM/Z9jskTj4OkH88eh35Whwe6xkgREoogvtPBs/VBTNYHMakfYliHB8QJD+aAZ8uzix7Tb/BAwIPlmexxWnRMiobZpxQTch/Hbp98HPnP1vFHsDVxG0o+Eq6hn9Xhga4xUoSEIojvdPBsfRCT9UFM6ocY1uEBccKDOeDZ8uyix/QbPBDwYHkme9wrQgrxx6nDsqEnHsc/jh0/wdgVKPU6HW3x0rYrvJ8vYg5BP6vDA11jpAgJRRDf6eDZ+iAm64OY1A8xrMMD4oQHc8Cz5dlFj+k3eCDgwfLgMR4INXiga4wUIaEI4jsdPFsfxGR9EJP6IYZ1eECc8GAOeLY8u+gx/QYPBDxYHjzGA6EGD3SN0RYhP/PvL/hSopdaoVQEf7chvtPBs/VBTNYHMakfYliHB8QJD+aAZ8uzix7Tb/BAwIPlwWM8EGrwQNcYbRHyNylCwgaI73TwbH0Qk/VBTOqHGNbhAXHCgzng2fLsosf0GzwQ8GB58BgPhBo80DVGipBQBPGdDp6tD2KyPohJ/RDDOjwgTngwBzxbnl30mH6DBwIeLA8e44FQgwe6xkgREoogvtPBs/VBTNYHMakfYliHB8QJD+aAZ8uzix7Tb/BAwIPlwWM8EGrwQNcYKUJCEcR3Oni2PojJ+iAm9UMM6/CAOOHBHPBseXbRY/oNHgh4sDx4jAdCDR7oGqMrQv7uU76U6KVWKBXB322I73TwbH0Qk/VBTOqHGNbhAXHCgzng2fLsosf0GzwQ8GB58BgPhBo80DVGW4T8DEVI2ADxnQ6erQ9isj6ISf0Qwzo8IE54MAc8W55d9Jh+gwcCHiwPHuOBUIMHusZIERKKIL7TwbP1QUzWBzGpH2JYhwfECQ/mgGfLs4se02/wQMCD5cFjPBBq8EDXGG0R8rf+z2d9KdFLrVCqd999tzk6OsoeEOqHwT0dPFsfxGR9EJP6IYZ1eECc8GAOeLY8u+gx/QYPBDxYHjzGA6EGD3SN8WtPfra559ln774I+Q//8A/NwcFB9oBQPwzu6eDZ+iAm64OY1A8xrMMD4oQHc8Cz5dlFj+k3eCDgwfLgMR4INXiga4xbK0Jev369+eCDD7IHhPphcE8Hz9YHMVkfxKR+iGEdHhAnPJgDni3PLnpMv8EDAQ+WB4/xQKjBA11j3FoR8s6dO80vf/lLW4zkY9m7B4N7Oni2PojJ+iAm9UMM6/CAOOHBHPBseXbRY/oNHgh4sDx4jAdCDR7oGuPWipAiKUS+//77zbVr1+x3RAIAAAAAAAAAAMCnE11j3GoREiGEEEIIIYQQQgghhKxUjZEiJEIIIYQQQgghhBBCaPtSNUaKkAghhBBCCCGEEEIIoe1L1RgpQiKEEEIIIYQQQgghhLYvVWOkCIkQQgghhBBCCCGEENq+VI3RFiF/87Gv+CVeagWEEEIIIYQQQgghhBCaLFVjpAiJEEIIIYQQQgghhBDavlSN8Wtf+xpFSIQQQgghhBBCCCGE0JalaowUIRFCCCGEEEIIIYQQQtuXqjEOFyH/OUVIhBBCCCGEEEIIIYTQTKka4+YnIf/be/5NhBBCCCGEEEIIIYQQKtCdO1GN0RYhn332Wb/U63/+n9RK/0T9DgAAAAAAAAAAALCJuKZoi5Cf+d2nfPXR68mz0UoAAAAAAAAAAAAAc/iH/+03Bp6EFP2Hf6dW5mlIAAAAAAAAAAAAmMI/aZr/43+3BcjhIiRCCCGEEEIIIYQQQgjdpdoi5Gf+7R/6txBCCCGEEEIIIYQQQmh74klIhBBCCCGEEEIIIYTQoqIIiRBCCCGEEEIIIYQQWlQUIRFCCCGEEEIIIYQQQouKIiRCCCGEEEIIIYQQQmhRUYRECCGEEEIIIYQQQggtKoqQCCGEEEIIIYQQQgihRUUREiGEEEIIIYQQQgghtKgoQiKEEEIIIYQQQgghhBYVRUiEEEIIIYQQQgghhNCiogiJEEIIIYQQQgghhBBaVBQhEUIIIYQQQgghhBBCi4oiJEIIIYQQQgghhBBCaFFRhEQIIYQQQgghhBBCCC2qtgj5pS99yb+FEEIIIYQQQgghhBBC29Pv/d7vNVJ/vOe5557zbyGEEEIIIYQQQgghhND2JE9ByiexbRHyH//xHwEAAAAAAAAAAAC2CkVIAAAAAAAAAAAAWBSKkAAAAAAAAAAAALAok4uQf/iHf5h9P+XOnTvN97///ebrX/+63QYAAAAAAAAAYAypIfzgBz+wNYVcrQEA1oWM29z7OSYVIcOkkFum+fu///vmG9/4Rrs+AAAAAAAAAEAp3/zmN5v3338/W3MAgPUQxmxuWUpxEVJPBrnlmh/96EfR+gAAAAAAAAAAU5DaQq7mAADrQY/Z3HJNW4R8/vnnsysIeoclO+UpSAAAAAAAAAC4G1588cVszQEA1kM6bnPrBDYWIdOdbdqhcOHChex2AAAAAAAAAAAlPP3009maAwCsh9zYza0n8CQkAAAAAAAAAKwOnoQEWD/puM2tEygqQgqlOxT4TkgAAAAAAAAAuBsuXbqUrTkAwHrQYza3XFNchBRKd/rrX/+6eeGFF6KGAAAAAAAAAACU8K1vfcvWFnI1BwBYD2HM5palTCpCCqU7vnPnTvODH/yg+frXv942CAAAAAAAAABgCKkhSC1Bagq5WgMArAsZt7n3c0wuQgIAAAAAAAAAAABMoS1CfuZzF7IrAAAAAAAAAAAAANwNUoR87rnnmnv+JUVIAAAAAAAAAAAAWAB5CrItQiKEEEIIIYQQQgghhNC2RRESIYQQQgghhBBCCCG0qChCIoQQQgghhBBCCCGEFlVXhPzdp/1bCCGEEEIIIYQQQgghtD21RcjPUIRECCGEEEIIIYQQQggtIIqQCCGEEEIIIYQQQgihRdUWIX/r/37ev4UQQgghhBBCCCGEEELbky1CPvlvmnuef54iJEIIIYQQQgghhBBCaPuiCIkQQgghhBBCCCGEEFpUFCERQgghhBBCCCGEEEKLiiIkQgghhBBCCCGEEEJoUVGERAghhBBCCCGEEEIILSqKkAghhBBCCCGEEEIIoUUlRcjnv0gREiGEEEIIIYQQQgghtJAoQiKEEEIIIYQQQgghhBYVRUiEEEIIIYQQQgghhAr1ypWm+RcvNc0/+9ZuIucm57htPffcc64I+S+f+Kp/CyGEEEIIIYQQQgghlNMuFyADco7bFkVIhBBCCCGEEEIIIYQKlSva7SLbli1CPv88RUiEEEIIIYQQQgghhDYpV7DbRbYtVYT8I/8WQgghhBBCCCGEEEIop1zBbhfZtihCIoQQQgghhBBCCCFUqFzBbhfZtqQASRESIYQQQgghhBBCCKEC5Qp2u8i21RYhv/71r/u3EEIIIYQQQgghhBBCOeUKdrvIttUWIf/pI/xjGoQQQgghhBBCCCGExpQr2M3lqtnfxcz7/+xK0xy833//8idmG7NMfr/4sWtPVmZZuu1Utq22CPmNb3zDv4UQQgghhBBCCCGEEMopV7CbzRW3z7QQKcXJy38VvxeQ4mOuQNki+1xpEVI+iU0REiGEEEIIIYQQQgihDcoV7O6G33vf7FQVDYeKjPJ+eAoyIi06rr0I+U//3Z5/CyGEEEIIIYQQQgghlFOuYDcZ/wRkifTHr3eiCMmTkAghhBBCCCGEEEIIjStXsNsKV8Y/Zh2KkPbJyRFdpAiJEEIIIYQQQgghhFDdyhXstkJhETJ9X74/soYnIaUAKfVHipAIIYQQQgghhBBCCG1QrmA3FVs4nCD5xzW5IqT8t+zLyXdKrr4I+c1vftO/hRBCCCGEEEIIIYQQyilXsNsGvScaE9IipBQg7eu06EgREiGEEEIIIYQQQgihupUr2N0tUmCUj2LL9z0OfSRbFyGlYNkWJCspQkoBkiIkQgghhBBCCCGEEEIFyhXs7gYpLuqiYShI6nXC+1J4bJ+ADMsoQiKEEEIIIYQQQgghtFvKFexmIcVCo1zBMfwH7Mt/1b2nn4TU64iifay4CCn1x3v++I//2L+FEEIIIYQQQgghhBDKKVewm8RfNc2B7KigUChPPYqkGJkWIVP0P7sZW6+UbYsiJEIIIYQQQgghhBBChcoV7HaRbYsiJEIIIYQQQgghhBBChcoV7HaRbUsKkFJ/pAiJEEIIIYQQQgghhNAG5Qp2u8i21RYhv/WtBfaOEEIIIYQQQgghhNAOKVew20W2LSlAUoRECCGEEEIIIYQQQqhAuYLdLrJttUXIP/iDP/BvIYQQQgghhBBCCCGEcsoV7HaRbev3f//3G6k/8iQkQgghhBBCCCGEEEIblCvY7SLbFh/HRgghhBBCCCGEEEKoULmC3S6ybbVFyBdeeMG/hRBCCCGEEEIIIYQQyulfvJQv2u0Sco7blhQg5SFIipAIIYQQQgghhBBCCG3QK1d2uxAp5ybnuG1JAVLqjxQhEUIIIYQQQgghhBBCi4giJEIIIYQQQgghhBBCaFFJ7dEWIf/kT/7Ev4UQQgghhBBCCCGEEELbE0VIhBBCCCGEEEIIIYTQopICpNQf7/nTP/1T/xZCCCGEEEIIIYQQQghtTxQhEUIIIYQQQgghhBBCi0oKkFJ/pAiJEEIIIYQQQgghhBBaRFJ7pAiJEEIIIYQQQgghhBBaTG0R8sUXX/RvIYQQQgghhBBCCCGE0PbUFiFfeukl/xZCCCGEEEIIIYQQQghtT1KAlIcg7/nnZ59rbh3d9m8jhBBCCCGEEEIIIYTQ3ev4+NgWIOUhyHv+10eea77/4x83tylEIoQQQgghhBBCCCGEtiApQL7xxhu2APnSSy81/wPmVMtxq38YuwAAAABJRU5ErkJggg==;" vertex="1" parent="1">
          <mxGeometry x="121" y="118" width="592.05" height="349" as="geometry" />
        </mxCell>
        <mxCell id="1MryAkgBpspKinondV_L-3" value="主要使用了两张表的关联查询，分别是 t_finance_receipt 和 t_must_receipt_relation。相关实体关系图：&lt;div&gt;&lt;br&gt;&lt;/div&gt;&lt;div&gt;&lt;div&gt;https://app.diagrams.net/#Hmoliwqf%2Fdraw_resp&lt;span style=&quot;background-color: initial;&quot;&gt;%2Fcustomer_manage%2F%E8%B4%A2%E5%8A%A1%E7%AE%A1%&lt;/span&gt;&lt;div&gt;&lt;span style=&quot;background-color: initial;&quot;&gt;E7%90%86.drawio#%7B%22pageId%22%3A%22NiPHxGcCJjQwnjdoAiQd%22%7D&lt;/span&gt;&lt;/div&gt;&lt;/div&gt;&lt;/div&gt;" style="rounded=0;whiteSpace=wrap;html=1;" vertex="1" parent="1">
          <mxGeometry x="84" y="507.5" width="660" height="136.5" as="geometry" />
        </mxCell>
      </root>
    </mxGraphModel>
  </diagram>
</mxfile>
